<?xml version="1.0" encoding="UTF-8"?>
<!DOCTYPE svg PUBLIC "-//W3C//DTD SVG 1.1//EN" "http://www.w3.org/Graphics/SVG/1.1/DTD/svg11.dtd">
<svg version="1.2" width="97.06mm" height="47.64mm" viewBox="1454 10523 9706 4764" preserveAspectRatio="xMidYMid" fill-rule="evenodd" stroke-width="28.222" stroke-linejoin="round" xmlns="http://www.w3.org/2000/svg" xmlns:ooo="http://xml.openoffice.org/svg/export" xmlns:xlink="http://www.w3.org/1999/xlink" xmlns:presentation="http://sun.com/xmlns/staroffice/presentation" xmlns:smil="http://www.w3.org/2001/SMIL20/" xmlns:anim="urn:oasis:names:tc:opendocument:xmlns:animation:1.0" xml:space="preserve">
 <defs class="EmbeddedBulletChars">
  <g id="bullet-char-template-57356" transform="scale(0.00048828125,-0.00048828125)">
   <path d="M 580,1141 L 1163,571 580,0 -4,571 580,1141 Z"/>
  </g>
  <g id="bullet-char-template-57354" transform="scale(0.00048828125,-0.00048828125)">
   <path d="M 8,1128 L 1137,1128 1137,0 8,0 8,1128 Z"/>
  </g>
  <g id="bullet-char-template-10146" transform="scale(0.00048828125,-0.00048828125)">
   <path d="M 174,0 L 602,739 174,1481 1456,739 174,0 Z M 1358,739 L 309,1346 659,739 1358,739 Z"/>
  </g>
  <g id="bullet-char-template-10132" transform="scale(0.00048828125,-0.00048828125)">
   <path d="M 2015,739 L 1276,0 717,0 1260,543 174,543 174,936 1260,936 717,1481 1274,1481 2015,739 Z"/>
  </g>
  <g id="bullet-char-template-10007" transform="scale(0.00048828125,-0.00048828125)">
   <path d="M 0,-2 C -7,14 -16,27 -25,37 L 356,567 C 262,823 215,952 215,954 215,979 228,992 255,992 264,992 276,990 289,987 310,991 331,999 354,1012 L 381,999 492,748 772,1049 836,1024 860,1049 C 881,1039 901,1025 922,1006 886,937 835,863 770,784 769,783 710,716 594,584 L 774,223 C 774,196 753,168 711,139 L 727,119 C 717,90 699,76 672,76 641,76 570,178 457,381 L 164,-76 C 142,-110 111,-127 72,-127 30,-127 9,-110 8,-76 1,-67 -2,-52 -2,-32 -2,-23 -1,-13 0,-2 Z"/>
  </g>
  <g id="bullet-char-template-10004" transform="scale(0.00048828125,-0.00048828125)">
   <path d="M 285,-33 C 182,-33 111,30 74,156 52,228 41,333 41,471 41,549 55,616 82,672 116,743 169,778 240,778 293,778 328,747 346,684 L 369,508 C 377,444 397,411 428,410 L 1163,1116 C 1174,1127 1196,1133 1229,1133 1271,1133 1292,1118 1292,1087 L 1292,965 C 1292,929 1282,901 1262,881 L 442,47 C 390,-6 338,-33 285,-33 Z"/>
  </g>
  <g id="bullet-char-template-9679" transform="scale(0.00048828125,-0.00048828125)">
   <path d="M 813,0 C 632,0 489,54 383,161 276,268 223,411 223,592 223,773 276,916 383,1023 489,1130 632,1184 813,1184 992,1184 1136,1130 1245,1023 1353,916 1407,772 1407,592 1407,412 1353,268 1245,161 1136,54 992,0 813,0 Z"/>
  </g>
  <g id="bullet-char-template-8226" transform="scale(0.00048828125,-0.00048828125)">
   <path d="M 346,457 C 273,457 209,483 155,535 101,586 74,649 74,723 74,796 101,859 155,911 209,963 273,989 346,989 419,989 480,963 531,910 582,859 608,796 608,723 608,648 583,586 532,535 482,483 420,457 346,457 Z"/>
  </g>
  <g id="bullet-char-template-8211" transform="scale(0.00048828125,-0.00048828125)">
   <path d="M -4,459 L 1135,459 1135,606 -4,606 -4,459 Z"/>
  </g>
  <g id="bullet-char-template-61548" transform="scale(0.00048828125,-0.00048828125)">
   <path d="M 173,740 C 173,903 231,1043 346,1159 462,1274 601,1332 765,1332 928,1332 1067,1274 1183,1159 1299,1043 1357,903 1357,740 1357,577 1299,437 1183,322 1067,206 928,148 765,148 601,148 462,206 346,322 231,437 173,577 173,740 Z"/>
  </g>
 </defs>
 <g class="Page">
  <g class="com.sun.star.drawing.CustomShape">
   <g id="id3">
    <rect class="BoundingBox" stroke="none" fill="none" x="1454" y="10523" width="9706" height="4764"/>
    <path fill="rgb(255,255,255)" stroke="none" d="M 6307,15286 L 1454,15286 1454,10523 11159,10523 11159,15286 6307,15286 Z"/>
   </g>
  </g>
  <g class="Group">
   <g class="com.sun.star.drawing.PolyPolygonShape">
    <g id="id4">
     <rect class="BoundingBox" stroke="none" fill="none" x="2052" y="11416" width="1291" height="1533"/>
     <path fill="rgb(0,72,165)" stroke="none" d="M 2369,11417 L 2725,11567 3341,12085 3025,12947 2053,12130 2369,11417 Z"/>
     <path fill="none" stroke="rgb(0,72,165)" d="M 2369,11417 L 2725,11567 3341,12085 3025,12947 2053,12130 2369,11417 Z"/>
    </g>
   </g>
   <g class="com.sun.star.drawing.PolyPolygonShape">
    <g id="id5">
     <rect class="BoundingBox" stroke="none" fill="none" x="2052" y="12129" width="975" height="2055"/>
     <path fill="rgb(0,72,165)" stroke="none" d="M 2053,12130 L 3025,12947 3025,14182 2562,13434 2053,13401 2053,12130 Z"/>
     <path fill="none" stroke="rgb(0,72,165)" d="M 2053,12130 L 3025,12947 3025,14182 2562,13434 2053,13401 2053,12130 Z"/>
    </g>
   </g>
   <g class="com.sun.star.drawing.PolyPolygonShape">
    <g id="id6">
     <rect class="BoundingBox" stroke="none" fill="none" x="2368" y="10979" width="1451" height="590"/>
     <path fill="rgb(30,136,229)" stroke="none" d="M 2369,11417 L 2806,11132 3817,10980 3679,11417 2725,11567 2369,11417 Z"/>
     <path fill="none" stroke="rgb(0,72,165)" d="M 2369,11417 L 2806,11132 3817,10980 3679,11417 2725,11567 2369,11417 Z"/>
    </g>
   </g>
   <g class="com.sun.star.drawing.PolyPolygonShape">
    <g id="id7">
     <rect class="BoundingBox" stroke="none" fill="none" x="3678" y="10979" width="659" height="670"/>
     <path fill="rgb(255,255,255)" stroke="none" d="M 3817,10980 L 4335,11647 3679,11417 3817,10980 Z"/>
     <path fill="none" stroke="rgb(0,72,165)" d="M 3817,10980 L 4335,11647 3679,11417 3817,10980 Z"/>
    </g>
   </g>
   <g class="com.sun.star.drawing.PolyPolygonShape">
    <g id="id8">
     <rect class="BoundingBox" stroke="none" fill="none" x="2724" y="11416" width="1613" height="671"/>
     <path fill="rgb(255,255,255)" stroke="none" d="M 2725,11567 L 3679,11417 4335,11648 3340,12085 2725,11567 Z"/>
     <path fill="none" stroke="rgb(0,72,165)" d="M 2725,11567 L 3679,11417 4335,11648 3340,12085 2725,11567 Z"/>
    </g>
   </g>
   <g class="com.sun.star.drawing.PolyPolygonShape">
    <g id="id9">
     <rect class="BoundingBox" stroke="none" fill="none" x="3339" y="11647" width="1653" height="440"/>
     <path fill="rgb(30,136,229)" stroke="none" d="M 3340,12085 L 4335,11648 4990,11770 3340,12085 Z"/>
     <path fill="none" stroke="rgb(0,72,165)" d="M 3340,12085 L 4335,11648 4990,11770 3340,12085 Z"/>
    </g>
   </g>
   <g class="com.sun.star.drawing.PolyPolygonShape">
    <g id="id10">
     <rect class="BoundingBox" stroke="none" fill="none" x="3023" y="11768" width="2188" height="1180"/>
     <path fill="rgb(255,255,255)" stroke="none" d="M 3024,12946 L 3340,12084 4990,11769 5209,12509 3024,12946 Z"/>
     <path fill="none" stroke="rgb(0,72,165)" d="M 3024,12946 L 3340,12084 4990,11769 5209,12509 3024,12946 Z"/>
    </g>
   </g>
   <g class="com.sun.star.drawing.PolyPolygonShape">
    <g id="id11">
     <rect class="BoundingBox" stroke="none" fill="none" x="3023" y="12509" width="2188" height="1625"/>
     <path fill="rgb(255,255,255)" stroke="none" d="M 3024,14132 L 3024,12947 5209,12510 5209,13695 4990,13602 3975,13520 3024,14132 Z"/>
     <path fill="none" stroke="rgb(0,72,165)" d="M 3024,14132 L 3024,12947 5209,12510 5209,13695 4990,13602 3975,13520 3024,14132 Z"/>
    </g>
   </g>
   <g class="com.sun.star.drawing.LineShape">
    <g id="id12">
     <rect class="BoundingBox" stroke="none" fill="none" x="2917" y="12404" width="2399" height="650"/>
     <path fill="none" stroke="rgb(255,255,255)" stroke-width="212" stroke-linejoin="round" stroke-linecap="round" d="M 5209,12510 L 3024,12947"/>
    </g>
   </g>
   <g class="com.sun.star.drawing.LineShape">
    <g id="id13">
     <rect class="BoundingBox" stroke="none" fill="none" x="2619" y="11311" width="1167" height="363"/>
     <path fill="none" stroke="rgb(0,72,165)" stroke-width="212" stroke-linejoin="round" stroke-linecap="round" d="M 2725,11567 L 3679,11417"/>
    </g>
   </g>
   <g class="com.sun.star.drawing.LineShape">
    <g id="id14">
     <rect class="BoundingBox" stroke="none" fill="none" x="3234" y="11542" width="1231" height="650"/>
     <path fill="none" stroke="rgb(0,72,165)" stroke-width="212" stroke-linejoin="round" stroke-linecap="round" d="M 3340,12085 L 4358,11648"/>
    </g>
   </g>
   <g class="com.sun.star.drawing.LineShape">
    <g id="id15">
     <rect class="BoundingBox" stroke="none" fill="none" x="3711" y="10874" width="731" height="881"/>
     <path fill="none" stroke="rgb(0,72,165)" stroke-width="212" stroke-linejoin="round" stroke-linecap="round" d="M 3817,10980 L 4335,11648"/>
    </g>
   </g>
   <g class="com.sun.star.drawing.LineShape">
    <g id="id16">
     <rect class="BoundingBox" stroke="none" fill="none" x="2619" y="11461" width="828" height="730"/>
     <path fill="none" stroke="rgb(0,72,165)" stroke-width="212" stroke-linejoin="round" stroke-linecap="round" d="M 2725,11567 L 3340,12084"/>
    </g>
   </g>
   <g class="com.sun.star.drawing.LineShape">
    <g id="id17">
     <rect class="BoundingBox" stroke="none" fill="none" x="4253" y="11542" width="845" height="335"/>
     <path fill="none" stroke="rgb(0,72,165)" stroke-width="212" stroke-linejoin="round" stroke-linecap="round" d="M 4359,11648 L 4991,11770"/>
    </g>
   </g>
   <g class="com.sun.star.drawing.LineShape">
    <g id="id18">
     <rect class="BoundingBox" stroke="none" fill="none" x="3234" y="11663" width="1863" height="528"/>
     <path fill="none" stroke="rgb(0,72,165)" stroke-width="212" stroke-linejoin="round" stroke-linecap="round" d="M 3340,12084 L 4990,11769"/>
    </g>
   </g>
   <g class="com.sun.star.drawing.LineShape">
    <g id="id19">
     <rect class="BoundingBox" stroke="none" fill="none" x="4885" y="11663" width="432" height="953"/>
     <path fill="none" stroke="rgb(0,72,165)" stroke-width="212" stroke-linejoin="round" stroke-linecap="round" d="M 4991,11769 L 5210,12509"/>
    </g>
   </g>
   <g class="com.sun.star.drawing.LineShape">
    <g id="id20">
     <rect class="BoundingBox" stroke="none" fill="none" x="2918" y="11978" width="529" height="1075"/>
     <path fill="none" stroke="rgb(0,72,165)" stroke-width="212" stroke-linejoin="round" stroke-linecap="round" d="M 3340,12084 L 3024,12946"/>
    </g>
   </g>
   <g class="com.sun.star.drawing.LineShape">
    <g id="id21">
     <rect class="BoundingBox" stroke="none" fill="none" x="2700" y="10874" width="1225" height="365"/>
     <path fill="none" stroke="rgb(0,72,165)" stroke-width="212" stroke-linejoin="round" stroke-linecap="round" d="M 3818,10980 L 2806,11132"/>
    </g>
   </g>
   <g class="com.sun.star.drawing.LineShape">
    <g id="id22">
     <rect class="BoundingBox" stroke="none" fill="none" x="1947" y="11311" width="529" height="926"/>
     <path fill="none" stroke="rgb(0,72,165)" stroke-width="212" stroke-linejoin="round" stroke-linecap="round" d="M 2369,11417 L 2053,12130"/>
    </g>
   </g>
   <g class="com.sun.star.drawing.LineShape">
    <g id="id23">
     <rect class="BoundingBox" stroke="none" fill="none" x="1947" y="12024" width="1185" height="1030"/>
     <path fill="none" stroke="rgb(0,72,165)" stroke-width="212" stroke-linejoin="round" stroke-linecap="round" d="M 2053,12130 L 3025,12947"/>
    </g>
   </g>
   <g class="com.sun.star.drawing.LineShape">
    <g id="id24">
     <rect class="BoundingBox" stroke="none" fill="none" x="2263" y="11311" width="569" height="363"/>
     <path fill="none" stroke="rgb(0,72,165)" stroke-width="212" stroke-linejoin="round" stroke-linecap="round" d="M 2369,11417 L 2725,11567"/>
    </g>
   </g>
   <g class="com.sun.star.drawing.LineShape">
    <g id="id25">
     <rect class="BoundingBox" stroke="none" fill="none" x="2263" y="11026" width="650" height="498"/>
     <path fill="none" stroke="rgb(0,72,165)" stroke-width="212" stroke-linejoin="round" stroke-linecap="round" d="M 2806,11132 L 2369,11417"/>
    </g>
   </g>
   <g class="com.sun.star.drawing.LineShape">
    <g id="id26">
     <rect class="BoundingBox" stroke="none" fill="none" x="3574" y="10874" width="351" height="650"/>
     <path fill="none" stroke="rgb(0,72,165)" stroke-width="212" stroke-linejoin="round" stroke-linecap="round" d="M 3680,11417 L 3818,10980"/>
    </g>
   </g>
   <g class="com.sun.star.drawing.LineShape">
    <g id="id27">
     <rect class="BoundingBox" stroke="none" fill="none" x="3574" y="11311" width="869" height="444"/>
     <path fill="none" stroke="rgb(0,72,165)" stroke-width="212" stroke-linejoin="round" stroke-linecap="round" d="M 3680,11417 L 4336,11648"/>
    </g>
   </g>
   <g class="com.sun.star.drawing.LineShape">
    <g id="id28">
     <rect class="BoundingBox" stroke="none" fill="none" x="1947" y="12024" width="213" height="1904"/>
     <path fill="none" stroke="rgb(0,72,165)" stroke-width="212" stroke-linejoin="round" stroke-linecap="round" d="M 2053,12130 L 2053,13821"/>
    </g>
   </g>
   <g class="com.sun.star.drawing.LineShape">
    <g id="id29">
     <rect class="BoundingBox" stroke="none" fill="none" x="2918" y="12841" width="213" height="1742"/>
     <path fill="none" stroke="rgb(0,72,165)" stroke-width="212" stroke-linejoin="round" stroke-linecap="round" d="M 3024,12947 L 3024,14476"/>
    </g>
   </g>
   <g class="com.sun.star.drawing.LineShape">
    <g id="id30">
     <rect class="BoundingBox" stroke="none" fill="none" x="5103" y="12404" width="213" height="1742"/>
     <path fill="none" stroke="rgb(0,72,165)" stroke-width="212" stroke-linejoin="round" stroke-linecap="round" d="M 5209,12510 L 5209,14039"/>
    </g>
   </g>
   <g class="com.sun.star.drawing.OpenBezierShape">
    <g id="id31">
     <rect class="BoundingBox" stroke="none" fill="none" x="1946" y="13267" width="3371" height="972"/>
     <path fill="none" stroke="rgb(0,72,165)" stroke-width="212" stroke-linejoin="round" stroke-linecap="round" d="M 2053,13477 C 2587,13039 3025,14132 3025,14132 3680,13476 4554,13373 5210,13695"/>
    </g>
   </g>
   <g class="com.sun.star.drawing.CustomShape">
    <g id="id32">
     <rect class="BoundingBox" stroke="none" fill="none" x="1835" y="13443" width="433" height="434"/>
     <path fill="rgb(255,255,255)" stroke="none" d="M 2161,13660 C 2161,13679 2156,13698 2146,13715 2137,13732 2123,13746 2106,13755 2089,13765 2070,13770 2051,13770 2032,13770 2013,13765 1996,13755 1979,13746 1965,13732 1956,13715 1946,13698 1941,13679 1941,13660 1941,13641 1946,13622 1956,13605 1965,13588 1979,13574 1996,13565 2013,13555 2032,13550 2051,13550 2070,13550 2089,13555 2106,13565 2123,13574 2137,13588 2146,13605 2156,13622 2161,13641 2161,13660 L 2161,13660 Z"/>
     <path fill="none" stroke="rgb(0,72,165)" stroke-width="212" stroke-linejoin="round" d="M 2161,13660 C 2161,13679 2156,13698 2146,13715 2137,13732 2123,13746 2106,13755 2089,13765 2070,13770 2051,13770 2032,13770 2013,13765 1996,13755 1979,13746 1965,13732 1956,13715 1946,13698 1941,13679 1941,13660 1941,13641 1946,13622 1956,13605 1965,13588 1979,13574 1996,13565 2013,13555 2032,13550 2051,13550 2070,13550 2089,13555 2106,13565 2123,13574 2137,13588 2146,13605 2156,13622 2161,13641 2161,13660 Z"/>
    </g>
   </g>
   <g class="com.sun.star.drawing.CustomShape">
    <g id="id33">
     <rect class="BoundingBox" stroke="none" fill="none" x="1835" y="13705" width="433" height="433"/>
     <path fill="rgb(255,255,255)" stroke="none" d="M 2051,13811 L 2161,14031 1941,14031 2051,13811 Z"/>
     <path fill="none" stroke="rgb(0,72,165)" stroke-width="212" stroke-linejoin="round" d="M 2051,13811 L 2161,14031 1941,14031 2051,13811 Z"/>
    </g>
   </g>
   <g class="com.sun.star.drawing.CustomShape">
    <g id="id34">
     <rect class="BoundingBox" stroke="none" fill="none" x="2815" y="14065" width="432" height="433"/>
     <path fill="rgb(255,255,255)" stroke="none" d="M 3140,14281 C 3140,14300 3135,14319 3125,14336 3116,14353 3102,14367 3085,14376 3069,14386 3050,14391 3031,14391 3011,14391 2992,14386 2976,14376 2959,14367 2945,14353 2936,14336 2926,14319 2921,14300 2921,14281 2921,14262 2926,14243 2936,14226 2945,14209 2959,14195 2976,14186 2992,14176 3011,14171 3031,14171 3050,14171 3069,14176 3085,14186 3102,14195 3116,14209 3125,14226 3135,14243 3140,14262 3140,14281 L 3140,14281 Z"/>
     <path fill="none" stroke="rgb(0,72,165)" stroke-width="212" stroke-linejoin="round" d="M 3140,14281 C 3140,14300 3135,14319 3125,14336 3116,14353 3102,14367 3085,14376 3069,14386 3050,14391 3031,14391 3011,14391 2992,14386 2976,14376 2959,14367 2945,14353 2936,14336 2926,14319 2921,14300 2921,14281 2921,14262 2926,14243 2936,14226 2945,14209 2959,14195 2976,14186 2992,14176 3011,14171 3031,14171 3050,14171 3069,14176 3085,14186 3102,14195 3116,14209 3125,14226 3135,14243 3140,14262 3140,14281 Z"/>
    </g>
   </g>
   <g class="com.sun.star.drawing.CustomShape">
    <g id="id35">
     <rect class="BoundingBox" stroke="none" fill="none" x="2815" y="14326" width="432" height="433"/>
     <path fill="rgb(255,255,255)" stroke="none" d="M 3030,14432 L 3140,14652 2921,14652 3030,14432 Z"/>
     <path fill="none" stroke="rgb(0,72,165)" stroke-width="212" stroke-linejoin="round" d="M 3030,14432 L 3140,14652 2921,14652 3030,14432 Z"/>
    </g>
   </g>
   <g class="com.sun.star.drawing.CustomShape">
    <g id="id36">
     <rect class="BoundingBox" stroke="none" fill="none" x="4986" y="13662" width="433" height="433"/>
     <path fill="rgb(255,255,255)" stroke="none" d="M 5312,13878 C 5312,13897 5307,13916 5297,13933 5288,13950 5274,13964 5257,13973 5240,13983 5221,13988 5202,13988 5183,13988 5164,13983 5147,13973 5130,13964 5116,13950 5107,13933 5097,13916 5092,13897 5092,13878 5092,13859 5097,13840 5107,13823 5116,13806 5130,13792 5147,13783 5164,13773 5183,13768 5202,13768 5221,13768 5240,13773 5257,13783 5274,13792 5288,13806 5297,13823 5307,13840 5312,13859 5312,13878 L 5312,13878 Z"/>
     <path fill="none" stroke="rgb(0,72,165)" stroke-width="212" stroke-linejoin="round" d="M 5312,13878 C 5312,13897 5307,13916 5297,13933 5288,13950 5274,13964 5257,13973 5240,13983 5221,13988 5202,13988 5183,13988 5164,13983 5147,13973 5130,13964 5116,13950 5107,13933 5097,13916 5092,13897 5092,13878 5092,13859 5097,13840 5107,13823 5116,13806 5130,13792 5147,13783 5164,13773 5183,13768 5202,13768 5221,13768 5240,13773 5257,13783 5274,13792 5288,13806 5297,13823 5307,13840 5312,13859 5312,13878 Z"/>
    </g>
   </g>
   <g class="com.sun.star.drawing.CustomShape">
    <g id="id37">
     <rect class="BoundingBox" stroke="none" fill="none" x="4986" y="13925" width="433" height="432"/>
     <path fill="rgb(255,255,255)" stroke="none" d="M 5202,14031 L 5312,14250 5092,14250 5202,14031 Z"/>
     <path fill="none" stroke="rgb(0,72,165)" stroke-width="212" stroke-linejoin="round" d="M 5202,14031 L 5312,14250 5092,14250 5202,14031 Z"/>
    </g>
   </g>
  </g>
  <g class="com.sun.star.drawing.CustomShape">
   <g id="id38">
    <rect class="BoundingBox" stroke="none" fill="none" x="5979" y="10823" width="4784" height="3805"/>
    <path fill="rgb(30,136,229)" stroke="none" d="M 6774,11545 L 6773,11567 6771,11589 6767,11611 6762,11632 6756,11651 6748,11671 6739,11691 6728,11709 6716,11727 6703,11743 6687,11760 6671,11774 6654,11788 6636,11800 6616,11812 6595,11823 6573,11832 6548,11841 6524,11848 6499,11853 6473,11858 6445,11861 6417,11862 6387,11864 6353,11862 6320,11860 6288,11855 6257,11850 6229,11842 6202,11832 6176,11821 6152,11808 6135,11797 6120,11786 6105,11773 6091,11761 6078,11747 6066,11732 6055,11716 6044,11700 6034,11683 6026,11667 6019,11649 6013,11633 6008,11616 6005,11601 6003,11584 6002,11567 6002,11557 6004,11548 6005,11543 6006,11538 6007,11533 6009,11529 6011,11525 6013,11521 6018,11512 6023,11504 6030,11497 6037,11490 6041,11487 6045,11485 6049,11481 6053,11479 6057,11477 6061,11475 6065,11473 6070,11472 6079,11470 6089,11468 6099,11468 6108,11468 6116,11469 6124,11471 6132,11474 6140,11477 6147,11480 6153,11486 6159,11491 6165,11497 6170,11503 6176,11510 6181,11518 6186,11526 6190,11535 6195,11545 6199,11555 6208,11576 6216,11595 6226,11613 6230,11621 6235,11628 6240,11636 6245,11642 6252,11648 6258,11654 6265,11661 6273,11666 6282,11671 6290,11675 6299,11679 6309,11683 6319,11686 6330,11689 6342,11691 6355,11693 6368,11694 6382,11694 6401,11693 6421,11692 6438,11689 6455,11684 6470,11679 6485,11673 6498,11665 6511,11656 6522,11647 6527,11642 6532,11637 6536,11632 6540,11626 6544,11621 6547,11615 6550,11610 6552,11604 6554,11597 6557,11592 6558,11586 6559,11580 6560,11573 6560,11566 6560,11556 6558,11546 6557,11536 6554,11532 6553,11528 6551,11523 6549,11520 6547,11516 6545,11511 6543,11507 6540,11504 6534,11497 6527,11491 6520,11485 6512,11478 6504,11472 6495,11468 6485,11463 6475,11459 6465,11455 6442,11447 6414,11439 6382,11431 6347,11422 6298,11409 6252,11395 6211,11380 6174,11363 6157,11355 6141,11345 6125,11335 6111,11324 6097,11312 6085,11299 6073,11286 6062,11271 6052,11256 6044,11239 6036,11223 6030,11204 6026,11185 6023,11166 6021,11145 6020,11123 6021,11102 6023,11083 6026,11063 6031,11043 6037,11026 6045,11007 6054,10991 6064,10974 6076,10959 6089,10944 6103,10930 6118,10917 6134,10905 6153,10894 6172,10884 6192,10875 6213,10866 6235,10859 6258,10854 6282,10849 6307,10846 6332,10843 6358,10841 6385,10841 6406,10841 6428,10842 6448,10844 6468,10846 6487,10849 6505,10853 6522,10858 6539,10863 6556,10869 6571,10876 6586,10883 6599,10890 6613,10898 6625,10907 6637,10915 6648,10924 6659,10934 6668,10944 6677,10954 6686,10964 6693,10974 6701,10984 6708,10996 6713,11006 6718,11017 6722,11027 6725,11038 6728,11049 6730,11059 6732,11068 6733,11079 6733,11089 6733,11099 6731,11109 6729,11118 6726,11127 6723,11137 6718,11145 6712,11153 6706,11161 6699,11169 6694,11172 6690,11175 6686,11178 6682,11181 6678,11183 6674,11185 6669,11187 6665,11189 6660,11190 6655,11192 6650,11193 6645,11194 6635,11194 6626,11194 6617,11193 6609,11190 6602,11188 6599,11187 6595,11186 6592,11184 6589,11182 6586,11181 6583,11179 6581,11176 6578,11174 6573,11169 6568,11163 6563,11156 6558,11149 6547,11132 6537,11114 6531,11101 6524,11090 6518,11079 6511,11068 6503,11059 6496,11050 6488,11041 6480,11034 6476,11031 6471,11028 6466,11025 6461,11022 6455,11020 6449,11018 6437,11013 6423,11010 6406,11008 6390,11006 6372,11006 6355,11006 6339,11008 6324,11010 6310,11013 6297,11018 6285,11023 6273,11029 6262,11036 6253,11043 6248,11048 6244,11052 6241,11056 6237,11060 6235,11064 6232,11068 6230,11073 6228,11078 6226,11082 6224,11087 6223,11091 6223,11096 6222,11100 6222,11106 6222,11112 6223,11118 6224,11123 6225,11129 6227,11135 6229,11140 6232,11145 6235,11149 6239,11153 6242,11157 6247,11161 6251,11166 6256,11170 6261,11174 6267,11178 6273,11181 6286,11187 6299,11194 6312,11199 6325,11203 6418,11229 6456,11238 6492,11247 6527,11259 6561,11270 6577,11276 6592,11283 6607,11290 6621,11296 6635,11304 6648,11312 6661,11320 6673,11328 6684,11338 6696,11347 6706,11356 6716,11368 6725,11379 6733,11390 6740,11403 6747,11416 6753,11430 6759,11444 6763,11460 6767,11475 6770,11492 6772,11508 6774,11526 6774,11545 Z M 6932,11731 L 6932,10972 6932,10956 6934,10942 6936,10929 6940,10915 6944,10904 6946,10897 6949,10892 6952,10887 6955,10883 6958,10878 6962,10874 6966,10869 6970,10865 6975,10862 6979,10859 6983,10856 6987,10853 6992,10851 6997,10849 7002,10847 7006,10845 7012,10844 7017,10843 7028,10841 7039,10841 7051,10841 7062,10843 7073,10845 7078,10847 7083,10849 7088,10851 7093,10853 7097,10856 7102,10859 7106,10862 7110,10865 7115,10869 7119,10874 7123,10878 7126,10883 7129,10887 7132,10892 7135,10897 7137,10904 7142,10915 7145,10929 7147,10942 7149,10956 7149,10972 7149,11731 7149,11747 7147,11762 7145,11775 7142,11788 7137,11800 7135,11806 7132,11811 7129,11816 7126,11821 7123,11825 7119,11829 7115,11833 7110,11838 7106,11841 7102,11844 7097,11847 7093,11850 7088,11853 7083,11855 7078,11857 7073,11858 7068,11860 7062,11861 7051,11862 7039,11864 7028,11862 7022,11862 7017,11861 7012,11860 7007,11858 7002,11857 6997,11855 6992,11853 6988,11850 6983,11847 6979,11844 6975,11841 6970,11838 6962,11829 6958,11825 6955,11821 6952,11816 6949,11811 6946,11806 6944,11800 6940,11788 6936,11775 6934,11762 6932,11747 6932,11731 Z M 7556,10972 L 7556,11660 7926,11660 7938,11660 7950,11662 7962,11664 7973,11667 7982,11670 7987,11672 7991,11675 7995,11677 8000,11680 8003,11683 8007,11686 8014,11694 8017,11697 8020,11701 8022,11704 8025,11708 8027,11712 8029,11716 8030,11721 8032,11725 8033,11730 8034,11734 8035,11739 8036,11743 8036,11754 8036,11764 8035,11769 8034,11773 8033,11779 8032,11783 8030,11787 8029,11791 8027,11795 8025,11799 8022,11803 8020,11807 8017,11811 8014,11814 8007,11821 8003,11824 8000,11827 7996,11830 7991,11832 7987,11835 7983,11837 7973,11841 7963,11844 7951,11845 7939,11847 7926,11847 7468,11847 7452,11847 7437,11845 7423,11843 7411,11839 7405,11837 7399,11835 7394,11831 7388,11829 7383,11826 7378,11822 7374,11819 7370,11815 7366,11811 7363,11807 7360,11801 7357,11796 7354,11791 7351,11786 7349,11780 7347,11773 7343,11760 7341,11747 7339,11731 7339,11714 7339,10972 7339,10956 7341,10942 7343,10929 7346,10916 7350,10904 7353,10898 7355,10893 7358,10888 7361,10884 7364,10879 7368,10875 7376,10866 7380,10863 7384,10860 7388,10857 7392,10854 7398,10852 7403,10849 7408,10847 7413,10846 7418,10844 7423,10843 7434,10842 7446,10841 7458,10841 7469,10843 7480,10845 7485,10847 7490,10849 7495,10851 7500,10853 7504,10856 7509,10859 7513,10862 7517,10865 7521,10869 7525,10874 7529,10878 7532,10883 7536,10887 7539,10892 7542,10897 7544,10904 7549,10915 7552,10929 7554,10942 7556,10956 7556,10972 Z M 8367,10972 L 8367,11296 8717,10902 8730,10887 8743,10875 8754,10864 8765,10856 8770,10852 8776,10849 8783,10847 8791,10845 8798,10843 8806,10842 8814,10841 8822,10841 8833,10841 8844,10843 8855,10845 8864,10848 8874,10852 8878,10854 8882,10857 8886,10860 8890,10862 8894,10866 8898,10869 8905,10877 8911,10885 8913,10889 8916,10892 8918,10897 8920,10902 8922,10906 8923,10910 8924,10915 8925,10919 8927,10929 8927,10939 8927,10945 8926,10951 8925,10956 8924,10963 8922,10969 8920,10975 8918,10980 8915,10986 8908,10998 8900,11009 8891,11022 8880,11033 8654,11251 8908,11626 8925,11649 8941,11670 8947,11679 8952,11689 8957,11698 8961,11706 8965,11714 8968,11723 8970,11731 8972,11738 8974,11747 8975,11755 8976,11762 8976,11770 8976,11780 8975,11784 8974,11788 8973,11793 8972,11797 8971,11801 8969,11806 8967,11810 8965,11813 8963,11817 8960,11821 8955,11828 8948,11836 8944,11839 8941,11842 8937,11845 8932,11848 8927,11850 8923,11852 8914,11856 8904,11859 8893,11861 8882,11864 8871,11864 8860,11864 8850,11862 8840,11860 8831,11858 8822,11856 8814,11852 8806,11849 8799,11844 8792,11839 8785,11833 8779,11827 8773,11822 8767,11815 8762,11808 8757,11800 8752,11793 8720,11738 8506,11392 8367,11537 8367,11731 8367,11747 8365,11762 8363,11775 8360,11789 8355,11800 8353,11806 8350,11812 8347,11817 8344,11821 8341,11826 8337,11830 8329,11838 8320,11845 8316,11848 8311,11850 8306,11853 8302,11855 8297,11857 8292,11858 8281,11861 8270,11862 8258,11864 8251,11864 8245,11862 8238,11861 8230,11859 8223,11857 8217,11855 8210,11852 8204,11849 8198,11845 8192,11841 8187,11836 8181,11830 8177,11825 8172,11819 8168,11813 8164,11807 8162,11801 8160,11796 8158,11791 8157,11785 8155,11780 8154,11773 8154,11767 8153,11761 8151,11689 8151,10972 8151,10956 8153,10942 8155,10929 8158,10916 8162,10904 8164,10898 8167,10893 8169,10888 8172,10884 8176,10879 8179,10875 8183,10871 8186,10866 8190,10863 8195,10860 8199,10857 8203,10854 8208,10852 8213,10849 8218,10847 8223,10846 8228,10844 8235,10843 8246,10842 8258,10841 8270,10841 8281,10843 8292,10845 8297,10847 8302,10849 8307,10851 8312,10853 8316,10856 8321,10859 8325,10862 8329,10865 8333,10869 8337,10874 8341,10878 8344,10883 8347,10887 8350,10892 8353,10897 8355,10904 8360,10915 8363,10929 8365,10942 8367,10956 8367,10972 Z M 6303,12808 L 6250,12808 6250,13104 6250,13121 6248,13135 6246,13150 6243,13162 6241,13168 6238,13174 6236,13180 6233,13185 6230,13190 6227,13195 6224,13199 6220,13203 6212,13211 6208,13215 6204,13218 6199,13221 6195,13223 6190,13226 6186,13228 6181,13230 6175,13231 6170,13233 6165,13234 6154,13235 6142,13236 6129,13235 6117,13234 6111,13233 6106,13231 6101,13230 6096,13228 6091,13226 6086,13223 6082,13220 6078,13217 6073,13214 6069,13211 6066,13206 6062,13202 6059,13198 6055,13193 6052,13189 6050,13184 6047,13177 6045,13172 6041,13161 6038,13147 6036,13134 6034,13119 6034,13104 6034,12363 6034,12346 6036,12330 6038,12316 6042,12303 6044,12296 6046,12290 6049,12285 6051,12280 6054,12275 6058,12269 6061,12265 6065,12261 6069,12257 6073,12254 6078,12250 6083,12247 6088,12245 6093,12241 6099,12239 6105,12237 6118,12233 6131,12231 6147,12229 6163,12229 6472,12229 6502,12229 6531,12231 6558,12233 6583,12235 6595,12237 6606,12239 6618,12241 6629,12245 6640,12248 6651,12252 6662,12256 6673,12261 6683,12265 6694,12270 6704,12277 6714,12283 6724,12290 6733,12298 6742,12307 6751,12316 6760,12325 6768,12336 6775,12346 6782,12357 6789,12369 6795,12380 6800,12392 6805,12404 6809,12416 6813,12429 6816,12441 6819,12455 6821,12467 6822,12481 6823,12494 6823,12508 6822,12535 6819,12561 6814,12586 6807,12609 6799,12632 6794,12642 6788,12651 6782,12662 6775,12671 6768,12680 6761,12689 6745,12705 6727,12720 6707,12733 6685,12745 6663,12755 6638,12763 6612,12771 6585,12777 6591,12779 6597,12781 6608,12786 6620,12792 6631,12800 6642,12809 6654,12819 6665,12831 6677,12844 6701,12872 6722,12901 6742,12930 6761,12960 6778,12990 6794,13019 6807,13047 6819,13073 6828,13097 6832,13107 6836,13116 6838,13125 6840,13132 6841,13139 6841,13141 6841,13144 6841,13151 6840,13156 6839,13162 6837,13167 6834,13173 6832,13179 6829,13185 6826,13190 6822,13195 6818,13200 6814,13205 6809,13210 6804,13214 6799,13218 6794,13221 6788,13224 6782,13227 6776,13229 6770,13231 6763,13233 6756,13234 6750,13235 6742,13236 6735,13236 6726,13236 6718,13235 6710,13234 6702,13232 6694,13229 6687,13226 6680,13223 6674,13219 6668,13215 6662,13210 6657,13205 6652,13200 6647,13195 6642,13190 6637,13184 6633,13177 6590,13106 6512,12960 6475,12909 6459,12888 6443,12869 6435,12861 6428,12852 6420,12845 6412,12839 6404,12834 6396,12829 6389,12824 6381,12820 6373,12817 6365,12815 6355,12812 6346,12811 6336,12810 6325,12809 6314,12808 6303,12808 Z M 6411,12402 L 6250,12402 6250,12641 6406,12641 6438,12640 6467,12638 6480,12637 6493,12635 6505,12633 6516,12630 6527,12627 6537,12624 6546,12619 6556,12614 6564,12610 6571,12605 6577,12599 6583,12592 6586,12589 6588,12585 6590,12582 6592,12578 6594,12574 6596,12571 6599,12561 6601,12552 6603,12542 6604,12531 6604,12520 6604,12511 6603,12502 6601,12494 6599,12486 6597,12479 6594,12471 6590,12464 6586,12457 6581,12451 6576,12444 6571,12438 6565,12433 6559,12428 6551,12424 6544,12420 6537,12415 6533,12413 6528,12412 6517,12409 6505,12407 6490,12405 6455,12403 6411,12402 Z M 7421,12213 L 7457,12215 7493,12218 7527,12223 7560,12229 7592,12238 7622,12249 7651,12262 7679,12277 7705,12293 7729,12312 7752,12332 7773,12352 7793,12376 7810,12401 7827,12427 7842,12455 7855,12484 7866,12515 7875,12547 7883,12580 7889,12614 7894,12649 7896,12686 7897,12724 7897,12752 7895,12780 7893,12806 7890,12833 7885,12858 7880,12882 7874,12907 7867,12931 7859,12954 7850,12977 7840,12998 7830,13019 7818,13039 7804,13057 7791,13076 7776,13094 7760,13110 7744,13126 7727,13141 7708,13155 7689,13168 7668,13180 7648,13191 7626,13200 7604,13209 7581,13216 7557,13222 7531,13227 7506,13231 7480,13234 7453,13235 7425,13236 7397,13235 7369,13234 7343,13231 7318,13227 7293,13222 7269,13216 7245,13207 7222,13199 7200,13190 7179,13179 7159,13167 7140,13154 7122,13140 7104,13125 7087,13109 7072,13093 7058,13075 7044,13056 7031,13038 7020,13017 7009,12996 6999,12975 6990,12953 6982,12929 6975,12905 6968,12880 6963,12855 6958,12830 6955,12804 6953,12777 6951,12750 6951,12722 6952,12694 6953,12666 6956,12639 6959,12613 6964,12587 6969,12562 6977,12538 6984,12514 6992,12491 7002,12468 7012,12446 7023,12426 7035,12406 7047,12387 7061,12370 7076,12352 7092,12336 7108,12320 7126,12306 7144,12292 7162,12280 7182,12268 7202,12258 7223,12249 7245,12240 7269,12233 7292,12227 7316,12222 7341,12219 7367,12216 7394,12215 7421,12213 Z M 7678,12722 L 7677,12697 7676,12672 7672,12649 7669,12627 7664,12605 7659,12584 7652,12564 7645,12546 7637,12528 7627,12511 7617,12495 7607,12481 7595,12467 7582,12455 7569,12443 7555,12433 7540,12424 7524,12416 7508,12410 7492,12405 7475,12401 7457,12398 7439,12397 7421,12396 7408,12396 7395,12397 7381,12399 7368,12401 7356,12404 7344,12407 7332,12411 7321,12416 7310,12422 7299,12428 7289,12434 7279,12441 7269,12450 7260,12458 7250,12467 7242,12476 7234,12487 7227,12498 7220,12510 7213,12522 7206,12535 7201,12550 7195,12564 7190,12580 7185,12596 7182,12612 7178,12630 7176,12647 7174,12665 7172,12684 7171,12702 7171,12722 7172,12761 7174,12780 7176,12798 7178,12816 7182,12834 7185,12850 7190,12867 7195,12882 7201,12897 7207,12911 7213,12925 7220,12938 7228,12950 7236,12962 7244,12972 7253,12983 7263,12992 7272,13000 7282,13009 7292,13016 7302,13022 7313,13028 7324,13034 7335,13039 7347,13043 7358,13046 7371,13049 7383,13051 7397,13053 7410,13054 7423,13054 7440,13053 7457,13052 7473,13049 7490,13046 7505,13041 7521,13035 7537,13027 7551,13019 7565,13010 7578,12998 7591,12987 7603,12973 7614,12959 7624,12943 7634,12927 7643,12908 7651,12889 7658,12869 7664,12847 7669,12824 7672,12801 7676,12776 7677,12749 7678,12722 Z M 8879,12902 L 8879,12914 8878,12927 8876,12939 8873,12953 8870,12965 8866,12979 8861,12993 8856,13007 8850,13020 8843,13035 8835,13048 8826,13063 8817,13076 8807,13089 8796,13103 8783,13116 8770,13130 8757,13142 8743,13154 8728,13165 8712,13175 8695,13185 8677,13194 8659,13203 8639,13211 8618,13218 8598,13223 8576,13228 8554,13231 8531,13234 8506,13235 8481,13236 8444,13235 8408,13233 8375,13228 8358,13225 8342,13222 8327,13218 8312,13214 8298,13209 8284,13203 8270,13197 8256,13190 8243,13183 8229,13175 8216,13167 8204,13158 8191,13148 8180,13138 8168,13128 8157,13116 8146,13104 8135,13092 8117,13068 8100,13042 8083,13015 8069,12987 8062,12972 8056,12958 8046,12928 8037,12897 8029,12865 8023,12832 8019,12797 8017,12762 8016,12726 8016,12697 8018,12668 8021,12640 8024,12613 8029,12586 8034,12561 8041,12537 8049,12513 8058,12490 8068,12467 8079,12446 8090,12426 8104,12406 8117,12386 8132,12369 8147,12351 8163,12335 8180,12319 8197,12306 8215,12292 8235,12280 8254,12268 8274,12258 8295,12249 8316,12240 8338,12233 8360,12227 8383,12222 8406,12219 8429,12216 8452,12215 8476,12213 8505,12215 8533,12217 8560,12221 8587,12226 8612,12233 8637,12241 8662,12251 8685,12262 8707,12275 8728,12288 8748,12301 8766,12316 8783,12332 8800,12348 8814,12365 8827,12382 8839,12400 8849,12417 8857,12435 8864,12453 8869,12469 8873,12486 8875,12502 8876,12519 8876,12528 8874,12538 8872,12547 8869,12555 8865,12563 8861,12572 8855,12580 8849,12587 8842,12595 8835,12601 8831,12603 8828,12606 8824,12608 8820,12610 8816,12611 8811,12613 8807,12614 8803,12615 8798,12616 8794,12617 8783,12617 8773,12617 8763,12616 8755,12614 8747,12612 8743,12611 8739,12609 8736,12607 8733,12606 8730,12604 8727,12602 8724,12599 8721,12597 8716,12591 8710,12585 8705,12578 8699,12571 8694,12561 8688,12552 8677,12531 8668,12515 8658,12499 8648,12485 8638,12471 8627,12459 8617,12447 8606,12438 8594,12429 8582,12421 8569,12414 8556,12408 8541,12404 8527,12400 8510,12398 8494,12396 8477,12396 8463,12396 8450,12397 8437,12399 8425,12401 8413,12404 8401,12408 8390,12412 8378,12417 8367,12424 8356,12430 8346,12437 8336,12444 8327,12453 8318,12462 8309,12472 8301,12483 8293,12494 8286,12505 8279,12518 8272,12531 8261,12558 8252,12588 8245,12621 8240,12656 8237,12693 8236,12733 8236,12760 8238,12786 8240,12811 8243,12834 8247,12855 8252,12876 8258,12896 8265,12914 8273,12932 8281,12948 8290,12962 8300,12977 8310,12989 8321,13000 8333,13011 8346,13020 8359,13028 8374,13036 8389,13041 8404,13046 8420,13049 8436,13052 8453,13054 8471,13054 8490,13053 8508,13052 8526,13049 8542,13044 8558,13039 8573,13031 8587,13024 8601,13015 8614,13005 8626,12993 8638,12980 8648,12965 8659,12950 8668,12932 8676,12913 8684,12894 8687,12885 8690,12877 8694,12869 8698,12862 8702,12853 8706,12846 8711,12839 8716,12832 8719,12829 8721,12825 8724,12822 8728,12819 8731,12817 8735,12815 8738,12813 8742,12811 8747,12809 8751,12808 8756,12807 8761,12806 8771,12804 8782,12804 8793,12804 8797,12805 8802,12806 8806,12807 8811,12808 8815,12810 8819,12811 8827,12815 8835,12820 8843,12826 8850,12833 8857,12840 8863,12847 8865,12851 8868,12855 8870,12860 8872,12865 8873,12869 8875,12873 8876,12878 8877,12882 8878,12888 8879,12892 8879,12902 Z M 9260,12345 L 9260,12669 9609,12275 9622,12260 9636,12248 9647,12237 9658,12229 9663,12225 9669,12222 9676,12220 9683,12218 9690,12216 9698,12215 9706,12213 9714,12213 9725,12213 9736,12216 9747,12218 9756,12221 9766,12225 9771,12227 9775,12230 9779,12233 9783,12235 9787,12239 9791,12242 9798,12250 9804,12258 9806,12262 9809,12265 9811,12270 9813,12275 9815,12279 9816,12283 9817,12288 9818,12292 9820,12301 9820,12312 9820,12318 9819,12324 9818,12329 9817,12336 9815,12342 9813,12348 9811,12353 9808,12359 9801,12371 9793,12382 9784,12395 9773,12406 9546,12624 9801,12999 9818,13022 9833,13043 9839,13052 9844,13061 9849,13071 9853,13079 9857,13087 9860,13096 9862,13104 9864,13111 9866,13119 9867,13128 9868,13135 9868,13143 9868,13153 9867,13157 9866,13161 9865,13166 9864,13170 9863,13174 9861,13179 9859,13183 9857,13186 9855,13190 9852,13194 9847,13201 9840,13209 9836,13212 9833,13215 9829,13218 9824,13221 9820,13223 9816,13225 9807,13229 9797,13232 9786,13234 9775,13236 9763,13236 9752,13236 9742,13235 9732,13233 9723,13231 9714,13229 9706,13225 9698,13222 9691,13217 9684,13212 9678,13206 9672,13200 9666,13195 9660,13188 9655,13181 9650,13173 9645,13166 9612,13111 9399,12765 9260,12910 9260,13104 9260,13119 9258,13135 9256,13148 9253,13162 9248,13173 9246,13179 9243,13185 9240,13190 9237,13194 9234,13199 9230,13203 9222,13211 9213,13218 9208,13221 9203,13223 9198,13226 9194,13228 9189,13230 9184,13231 9173,13234 9162,13235 9150,13236 9143,13236 9137,13235 9130,13234 9123,13232 9116,13230 9110,13228 9103,13225 9097,13222 9091,13218 9085,13214 9080,13209 9074,13203 9070,13198 9064,13192 9060,13186 9056,13180 9054,13174 9052,13169 9050,13164 9049,13158 9047,13153 9046,13146 9046,13140 9045,13134 9043,13061 9043,12345 9043,12329 9045,12315 9047,12301 9050,12289 9054,12277 9056,12271 9059,12266 9061,12261 9064,12257 9068,12252 9072,12248 9076,12244 9079,12239 9083,12236 9088,12233 9092,12230 9096,12227 9101,12225 9106,12222 9111,12220 9116,12219 9121,12217 9127,12216 9138,12215 9150,12213 9162,12213 9173,12216 9184,12218 9189,12220 9194,12222 9199,12224 9204,12226 9208,12229 9214,12232 9218,12235 9222,12238 9226,12242 9230,12247 9234,12251 9237,12256 9240,12260 9243,12265 9246,12270 9248,12277 9253,12288 9256,12301 9258,12315 9260,12329 9260,12345 Z M 6918,14188 L 6918,14372 6918,14382 6917,14391 6917,14399 6916,14408 6915,14415 6913,14422 6912,14429 6910,14436 6908,14442 6905,14448 6903,14454 6899,14459 6895,14465 6891,14470 6887,14475 6882,14480 6877,14485 6871,14489 6865,14495 6859,14500 6852,14504 6845,14508 6829,14517 6787,14540 6745,14559 6704,14574 6663,14588 6643,14593 6622,14597 6601,14601 6579,14604 6534,14608 6488,14609 6461,14608 6434,14607 6407,14604 6382,14601 6357,14596 6333,14590 6309,14583 6286,14574 6263,14565 6241,14555 6221,14543 6201,14532 6182,14518 6164,14504 6146,14489 6129,14473 6114,14455 6099,14438 6085,14418 6073,14398 6061,14378 6050,14356 6040,14333 6031,14310 6023,14286 6016,14262 6010,14236 6005,14210 6002,14183 5999,14155 5998,14127 5997,14098 5998,14070 5999,14042 6002,14014 6005,13988 6010,13962 6016,13936 6022,13912 6030,13888 6039,13864 6048,13841 6059,13819 6071,13799 6084,13779 6097,13759 6112,13742 6128,13724 6146,13708 6163,13692 6182,13679 6201,13665 6221,13653 6242,13641 6264,13631 6288,13622 6311,13613 6336,13606 6361,13600 6386,13595 6413,13592 6441,13589 6469,13587 6498,13586 6522,13586 6545,13589 6568,13591 6590,13594 6611,13597 6631,13602 6651,13607 6670,13613 6688,13621 6707,13628 6723,13635 6739,13643 6754,13653 6768,13662 6781,13671 6793,13682 6804,13692 6815,13702 6825,13714 6834,13724 6844,13736 6852,13747 6859,13758 6865,13770 6871,13781 6876,13793 6880,13803 6883,13814 6886,13825 6888,13834 6889,13844 6889,13854 6889,13864 6887,13874 6886,13878 6885,13884 6883,13888 6882,13893 6880,13897 6877,13901 6875,13906 6872,13911 6866,13919 6859,13926 6855,13930 6851,13933 6847,13936 6843,13940 6839,13942 6833,13944 6829,13946 6824,13948 6815,13951 6805,13953 6795,13955 6785,13955 6779,13955 6773,13954 6768,13953 6762,13952 6756,13951 6751,13949 6745,13947 6740,13944 6735,13941 6730,13937 6725,13934 6720,13930 6715,13926 6711,13922 6707,13917 6703,13912 6686,13886 6671,13863 6657,13844 6645,13829 6639,13823 6633,13815 6626,13809 6618,13803 6611,13798 6602,13793 6593,13787 6584,13782 6574,13778 6563,13774 6551,13771 6539,13768 6526,13767 6513,13765 6499,13764 6484,13764 6468,13764 6453,13765 6439,13767 6425,13769 6410,13772 6397,13776 6384,13780 6372,13785 6360,13791 6349,13798 6338,13805 6327,13812 6317,13820 6307,13830 6298,13839 6289,13849 6281,13860 6272,13872 6264,13884 6258,13897 6251,13911 6245,13924 6240,13939 6235,13954 6231,13970 6227,13986 6223,14003 6221,14020 6219,14038 6217,14056 6216,14074 6216,14093 6217,14133 6220,14170 6226,14206 6234,14238 6244,14268 6249,14282 6256,14296 6263,14309 6270,14322 6279,14333 6288,14344 6297,14355 6307,14365 6317,14374 6327,14383 6338,14390 6350,14397 6362,14403 6374,14410 6387,14415 6400,14419 6414,14423 6429,14426 6458,14430 6489,14431 6505,14431 6520,14430 6535,14429 6550,14427 6566,14424 6581,14421 6595,14418 6609,14414 6637,14404 6664,14394 6690,14382 6704,14375 6717,14368 6717,14234 6583,14234 6569,14234 6556,14233 6543,14232 6532,14229 6521,14226 6511,14223 6502,14219 6494,14215 6490,14213 6487,14210 6483,14207 6480,14204 6478,14200 6475,14196 6473,14192 6471,14188 6469,14184 6467,14180 6466,14175 6465,14169 6464,14164 6463,14159 6463,14148 6463,14138 6465,14130 6465,14126 6466,14122 6468,14118 6469,14113 6471,14109 6473,14106 6475,14102 6477,14099 6480,14095 6483,14092 6486,14089 6489,14086 6496,14079 6503,14075 6511,14070 6520,14067 6529,14064 6538,14063 6548,14061 6560,14061 6775,14061 6795,14062 6814,14063 6831,14066 6840,14067 6848,14069 6856,14071 6863,14074 6869,14078 6876,14082 6882,14088 6888,14093 6893,14099 6898,14106 6900,14110 6903,14113 6907,14122 6910,14131 6913,14141 6915,14152 6917,14163 6918,14176 6918,14188 Z M 7644,14481 L 7600,14363 7238,14363 7197,14478 7184,14512 7172,14541 7166,14553 7160,14564 7154,14573 7149,14580 7146,14584 7143,14588 7140,14591 7137,14593 7133,14596 7129,14598 7125,14600 7121,14602 7117,14604 7111,14605 7106,14606 7101,14607 7090,14609 7078,14609 7068,14609 7058,14607 7054,14606 7049,14605 7044,14603 7040,14602 7031,14597 7022,14592 7014,14586 7006,14578 6999,14571 6995,14567 6992,14563 6990,14559 6987,14555 6985,14550 6983,14546 6981,14541 6979,14537 6978,14532 6977,14528 6976,14522 6975,14518 6975,14508 6975,14498 6976,14491 6976,14486 6977,14481 6978,14476 6979,14470 6981,14465 6985,14453 6990,14439 7003,14403 7242,13778 7268,13713 7275,13694 7283,13677 7291,13662 7300,13648 7304,13641 7309,13635 7314,13629 7320,13624 7326,13619 7332,13613 7339,13608 7346,13604 7354,13600 7362,13597 7370,13594 7379,13591 7388,13589 7399,13587 7409,13586 7419,13586 7429,13586 7439,13587 7449,13589 7458,13591 7467,13594 7475,13597 7483,13600 7491,13604 7498,13608 7505,13613 7511,13619 7518,13624 7523,13629 7528,13635 7534,13641 7539,13648 7547,13661 7555,13673 7561,13687 7567,13699 7594,13771 7841,14398 7854,14432 7859,14448 7864,14462 7867,14475 7869,14487 7871,14498 7871,14507 7871,14512 7871,14516 7870,14521 7869,14526 7868,14531 7867,14535 7865,14540 7863,14544 7861,14548 7859,14553 7854,14561 7847,14569 7840,14577 7836,14582 7832,14585 7828,14589 7824,14592 7820,14594 7815,14597 7810,14599 7805,14601 7800,14603 7795,14605 7785,14607 7775,14609 7764,14609 7758,14609 7752,14608 7746,14608 7740,14607 7735,14605 7730,14604 7725,14602 7720,14600 7716,14598 7711,14595 7707,14592 7703,14589 7699,14586 7696,14582 7692,14578 7689,14574 7686,14570 7683,14565 7680,14560 7677,14555 7670,14541 7663,14527 7652,14499 7647,14488 7644,14481 Z M 7293,14190 L 7546,14190 7418,13818 7293,14190 Z M 8317,14421 L 8194,13834 8194,14485 8194,14500 8192,14514 8190,14527 8187,14539 8185,14544 8183,14549 8181,14555 8178,14560 8176,14565 8173,14569 8169,14573 8166,14577 8163,14582 8159,14585 8155,14589 8151,14592 8147,14594 8143,14597 8139,14599 8134,14601 8130,14603 8125,14605 8120,14606 8115,14607 8104,14609 8093,14609 8081,14609 8071,14607 8066,14606 8062,14605 8057,14603 8052,14602 8048,14600 8044,14597 8040,14595 8036,14592 8032,14589 8028,14586 8024,14583 8021,14578 8018,14574 8014,14570 8011,14566 8009,14561 8006,14556 8004,14550 8002,14545 8000,14540 7997,14528 7995,14514 7993,14501 7993,14485 7993,13723 7994,13706 7995,13690 7998,13677 8000,13669 8002,13663 8004,13658 8007,13652 8010,13647 8013,13642 8017,13638 8021,13634 8025,13630 8029,13627 8038,13621 8048,13616 8059,13611 8071,13608 8083,13605 8097,13604 8110,13602 8124,13602 8183,13602 8209,13603 8221,13604 8232,13605 8242,13606 8251,13608 8260,13610 8267,13613 8274,13616 8280,13621 8286,13625 8288,13627 8291,13629 8295,13635 8300,13640 8304,13647 8307,13654 8314,13670 8320,13690 8328,13713 8335,13741 8458,14259 8582,13741 8589,13713 8596,13689 8603,13669 8606,13660 8609,13653 8612,13645 8616,13639 8621,13634 8623,13631 8625,13629 8628,13626 8630,13624 8633,13622 8636,13620 8642,13616 8649,13613 8657,13611 8666,13608 8675,13606 8685,13605 8695,13604 8707,13603 8733,13602 8793,13602 8807,13602 8820,13604 8833,13606 8845,13608 8857,13612 8867,13616 8877,13622 8887,13628 8891,13631 8896,13635 8900,13639 8903,13643 8906,13649 8909,13653 8912,13659 8915,13664 8917,13670 8919,13677 8920,13684 8922,13691 8923,13707 8924,13723 8924,14485 8924,14500 8922,14514 8920,14527 8917,14539 8915,14544 8913,14549 8911,14555 8908,14560 8906,14565 8903,14569 8899,14573 8896,14577 8893,14582 8889,14585 8885,14589 8881,14592 8877,14594 8873,14597 8869,14599 8864,14601 8859,14603 8855,14605 8850,14606 8845,14607 8834,14609 8823,14609 8812,14609 8802,14607 8797,14606 8793,14605 8787,14603 8782,14601 8778,14599 8774,14597 8770,14594 8766,14592 8762,14589 8758,14585 8754,14582 8751,14577 8748,14573 8744,14569 8741,14565 8739,14560 8736,14555 8734,14549 8732,14544 8730,14539 8727,14527 8725,14514 8723,14500 8723,14485 8723,13834 8599,14438 8592,14466 8586,14489 8580,14510 8575,14527 8572,14534 8569,14541 8565,14548 8560,14556 8555,14563 8550,14570 8544,14577 8537,14584 8533,14587 8530,14590 8526,14593 8521,14595 8517,14597 8513,14599 8502,14603 8492,14606 8481,14607 8470,14609 8458,14609 8449,14609 8440,14608 8432,14607 8424,14605 8416,14603 8409,14600 8402,14597 8395,14593 8389,14589 8383,14584 8378,14579 8373,14574 8367,14569 8363,14564 8359,14558 8355,14551 8352,14545 8348,14538 8345,14532 8342,14525 8340,14518 8337,14511 8335,14504 8333,14497 8329,14481 8325,14463 8317,14421 Z M 9745,13779 L 9331,13779 9331,13989 9711,13989 9723,13989 9734,13990 9744,13992 9754,13995 9763,13999 9767,14001 9772,14003 9776,14005 9779,14008 9783,14010 9786,14013 9789,14016 9792,14019 9795,14022 9797,14027 9800,14030 9802,14033 9804,14037 9805,14041 9807,14045 9808,14049 9809,14053 9810,14058 9811,14062 9812,14066 9812,14075 9812,14085 9810,14094 9810,14098 9808,14102 9807,14106 9806,14110 9804,14115 9802,14118 9800,14122 9798,14125 9795,14129 9793,14132 9787,14138 9784,14141 9780,14145 9777,14147 9773,14150 9769,14152 9764,14154 9759,14155 9755,14157 9745,14160 9734,14162 9723,14163 9711,14163 9331,14163 9331,14411 9759,14411 9772,14411 9784,14412 9795,14414 9804,14417 9809,14418 9814,14420 9818,14422 9822,14424 9826,14427 9830,14429 9834,14432 9837,14436 9840,14439 9843,14442 9846,14446 9849,14449 9851,14453 9853,14457 9855,14461 9857,14466 9859,14470 9860,14474 9861,14478 9862,14483 9864,14492 9864,14503 9864,14512 9862,14521 9861,14526 9860,14531 9859,14535 9857,14539 9855,14543 9853,14546 9851,14550 9849,14555 9846,14558 9843,14562 9840,14565 9837,14568 9834,14571 9830,14574 9826,14576 9822,14579 9818,14582 9814,14584 9809,14586 9804,14587 9795,14590 9784,14592 9772,14593 9759,14593 9244,14593 9228,14593 9213,14591 9198,14589 9186,14585 9180,14583 9174,14580 9169,14577 9164,14575 9159,14572 9154,14568 9150,14565 9146,14561 9142,14557 9139,14553 9136,14547 9133,14542 9130,14537 9127,14532 9125,14526 9123,14519 9119,14506 9117,14491 9115,14476 9115,14459 9115,13736 9115,13724 9116,13714 9117,13703 9119,13694 9121,13685 9123,13677 9126,13668 9129,13660 9133,13653 9137,13645 9141,13639 9146,13634 9152,13628 9157,13624 9164,13620 9171,13615 9179,13612 9187,13609 9195,13607 9204,13605 9214,13604 9224,13603 9234,13602 9244,13602 9745,13602 9757,13602 9769,13603 9780,13605 9790,13608 9799,13611 9803,13613 9807,13615 9811,13619 9815,13621 9819,13624 9822,13627 9828,13633 9834,13640 9836,13643 9838,13648 9840,13651 9842,13655 9844,13659 9845,13663 9846,13667 9847,13671 9848,13676 9849,13681 9849,13690 9849,13699 9847,13709 9846,13714 9845,13718 9844,13722 9843,13726 9841,13730 9839,13733 9837,13738 9834,13741 9832,13745 9829,13748 9826,13751 9823,13754 9820,13757 9816,13759 9812,13762 9808,13765 9804,13767 9800,13769 9791,13773 9781,13775 9770,13777 9757,13779 9745,13779 Z M 10744,14291 L 10743,14313 10741,14335 10737,14357 10732,14378 10726,14397 10718,14417 10709,14437 10698,14455 10686,14473 10673,14489 10658,14506 10642,14520 10625,14534 10607,14546 10586,14558 10565,14569 10543,14578 10519,14587 10495,14594 10470,14599 10443,14604 10415,14607 10387,14608 10358,14609 10323,14608 10290,14606 10258,14601 10228,14596 10200,14588 10172,14578 10146,14567 10122,14554 10106,14543 10091,14532 10076,14519 10062,14507 10049,14492 10036,14478 10025,14462 10014,14446 10004,14429 9996,14413 9989,14395 9983,14379 9978,14362 9975,14346 9973,14330 9972,14313 9972,14303 9974,14294 9975,14288 9976,14284 9977,14279 9979,14275 9981,14271 9983,14267 9988,14258 9993,14250 10000,14243 10007,14236 10011,14233 10015,14230 10019,14227 10023,14225 10027,14223 10031,14221 10035,14219 10040,14218 10050,14216 10060,14214 10070,14214 10079,14214 10087,14215 10095,14217 10103,14220 10110,14223 10117,14226 10123,14232 10129,14237 10135,14243 10140,14249 10146,14256 10151,14264 10156,14272 10160,14281 10165,14291 10169,14301 10178,14322 10186,14341 10197,14359 10201,14367 10206,14374 10211,14382 10216,14388 10223,14394 10229,14400 10236,14407 10244,14412 10252,14417 10260,14421 10269,14425 10279,14429 10289,14432 10300,14434 10312,14437 10325,14439 10339,14440 10353,14440 10372,14439 10391,14438 10408,14434 10425,14430 10440,14425 10455,14419 10469,14411 10482,14402 10493,14393 10498,14388 10503,14383 10507,14378 10511,14372 10515,14367 10518,14361 10521,14356 10523,14350 10525,14343 10527,14338 10528,14332 10529,14326 10530,14319 10530,14312 10530,14302 10528,14292 10527,14282 10525,14278 10524,14274 10522,14269 10520,14266 10518,14262 10516,14257 10514,14253 10511,14250 10505,14243 10498,14237 10491,14230 10483,14224 10475,14218 10465,14214 10455,14209 10445,14205 10435,14200 10412,14193 10385,14185 10353,14177 10317,14168 10268,14155 10223,14141 10181,14126 10144,14109 10127,14101 10111,14091 10096,14081 10082,14070 10068,14058 10056,14045 10043,14032 10032,14017 10022,14002 10014,13985 10006,13969 10000,13950 9996,13931 9993,13912 9991,13891 9990,13869 9991,13848 9993,13829 9996,13809 10001,13789 10007,13772 10015,13753 10024,13737 10034,13720 10046,13704 10060,13690 10074,13676 10089,13663 10105,13651 10123,13640 10142,13630 10162,13621 10183,13612 10206,13605 10229,13600 10252,13595 10277,13592 10302,13589 10329,13586 10356,13586 10377,13586 10398,13587 10418,13590 10438,13592 10457,13595 10476,13599 10493,13604 10510,13609 10526,13615 10541,13622 10556,13629 10569,13636 10583,13644 10595,13653 10608,13661 10619,13670 10630,13680 10639,13690 10648,13700 10657,13710 10664,13720 10671,13730 10678,13742 10683,13752 10688,13762 10692,13773 10695,13784 10698,13795 10700,13805 10702,13814 10703,13825 10703,13835 10703,13845 10701,13855 10699,13864 10696,13873 10693,13883 10688,13891 10682,13899 10676,13907 10669,13915 10665,13918 10661,13921 10657,13924 10653,13927 10649,13929 10645,13931 10640,13933 10636,13935 10631,13936 10626,13937 10621,13939 10616,13940 10605,13940 10596,13940 10587,13939 10579,13936 10572,13934 10569,13933 10565,13932 10562,13930 10559,13928 10556,13927 10553,13925 10551,13922 10548,13920 10543,13915 10538,13908 10533,13902 10528,13895 10518,13878 10508,13860 10502,13847 10495,13836 10489,13825 10482,13814 10474,13805 10467,13796 10458,13787 10450,13780 10446,13777 10441,13774 10436,13771 10431,13768 10425,13766 10419,13764 10407,13759 10393,13756 10377,13754 10361,13752 10343,13752 10325,13752 10309,13754 10294,13756 10280,13759 10267,13764 10255,13769 10244,13775 10233,13782 10224,13789 10219,13794 10215,13798 10212,13802 10208,13806 10206,13810 10203,13814 10201,13819 10199,13824 10197,13828 10195,13833 10194,13837 10194,13842 10193,13846 10193,13852 10193,13858 10194,13864 10195,13869 10196,13875 10198,13881 10200,13886 10203,13891 10206,13895 10210,13899 10213,13903 10218,13907 10222,13912 10227,13916 10232,13920 10238,13924 10244,13927 10256,13933 10269,13940 10282,13945 10295,13949 10388,13975 10426,13984 10462,13993 10498,14005 10531,14016 10547,14022 10562,14029 10577,14036 10591,14042 10605,14050 10619,14058 10632,14066 10644,14074 10655,14083 10666,14093 10676,14102 10686,14113 10695,14125 10703,14136 10710,14149 10717,14162 10723,14176 10729,14190 10733,14206 10737,14221 10740,14238 10742,14254 10744,14272 10744,14291 Z"/>
    <path fill="none" stroke="rgb(255,255,255)" stroke-width="35" stroke-linejoin="miter" d="M 6774,11545 L 6773,11567 6771,11589 6767,11611 6762,11632 6756,11651 6748,11671 6739,11691 6728,11709 6716,11727 6703,11743 6687,11760 6671,11774 6654,11788 6636,11800 6616,11812 6595,11823 6573,11832 6548,11841 6524,11848 6499,11853 6473,11858 6445,11861 6417,11862 6387,11864 6353,11862 6320,11860 6288,11855 6257,11850 6229,11842 6202,11832 6176,11821 6152,11808 6135,11797 6120,11786 6105,11773 6091,11761 6078,11747 6066,11732 6055,11716 6044,11700 6034,11683 6026,11667 6019,11649 6013,11633 6008,11616 6005,11601 6003,11584 6002,11567 6002,11557 6004,11548 6005,11543 6006,11538 6007,11533 6009,11529 6011,11525 6013,11521 6018,11512 6023,11504 6030,11497 6037,11490 6041,11487 6045,11485 6049,11481 6053,11479 6057,11477 6061,11475 6065,11473 6070,11472 6079,11470 6089,11468 6099,11468 6108,11468 6116,11469 6124,11471 6132,11474 6140,11477 6147,11480 6153,11486 6159,11491 6165,11497 6170,11503 6176,11510 6181,11518 6186,11526 6190,11535 6195,11545 6199,11555 6208,11576 6216,11595 6226,11613 6230,11621 6235,11628 6240,11636 6245,11642 6252,11648 6258,11654 6265,11661 6273,11666 6282,11671 6290,11675 6299,11679 6309,11683 6319,11686 6330,11689 6342,11691 6355,11693 6368,11694 6382,11694 6401,11693 6421,11692 6438,11689 6455,11684 6470,11679 6485,11673 6498,11665 6511,11656 6522,11647 6527,11642 6532,11637 6536,11632 6540,11626 6544,11621 6547,11615 6550,11610 6552,11604 6554,11597 6557,11592 6558,11586 6559,11580 6560,11573 6560,11566 6560,11556 6558,11546 6557,11536 6554,11532 6553,11528 6551,11523 6549,11520 6547,11516 6545,11511 6543,11507 6540,11504 6534,11497 6527,11491 6520,11485 6512,11478 6504,11472 6495,11468 6485,11463 6475,11459 6465,11455 6442,11447 6414,11439 6382,11431 6347,11422 6298,11409 6252,11395 6211,11380 6174,11363 6157,11355 6141,11345 6125,11335 6111,11324 6097,11312 6085,11299 6073,11286 6062,11271 6052,11256 6044,11239 6036,11223 6030,11204 6026,11185 6023,11166 6021,11145 6020,11123 6021,11102 6023,11083 6026,11063 6031,11043 6037,11026 6045,11007 6054,10991 6064,10974 6076,10959 6089,10944 6103,10930 6118,10917 6134,10905 6153,10894 6172,10884 6192,10875 6213,10866 6235,10859 6258,10854 6282,10849 6307,10846 6332,10843 6358,10841 6385,10841 6406,10841 6428,10842 6448,10844 6468,10846 6487,10849 6505,10853 6522,10858 6539,10863 6556,10869 6571,10876 6586,10883 6599,10890 6613,10898 6625,10907 6637,10915 6648,10924 6659,10934 6668,10944 6677,10954 6686,10964 6693,10974 6701,10984 6708,10996 6713,11006 6718,11017 6722,11027 6725,11038 6728,11049 6730,11059 6732,11068 6733,11079 6733,11089 6733,11099 6731,11109 6729,11118 6726,11127 6723,11137 6718,11145 6712,11153 6706,11161 6699,11169 6694,11172 6690,11175 6686,11178 6682,11181 6678,11183 6674,11185 6669,11187 6665,11189 6660,11190 6655,11192 6650,11193 6645,11194 6635,11194 6626,11194 6617,11193 6609,11190 6602,11188 6599,11187 6595,11186 6592,11184 6589,11182 6586,11181 6583,11179 6581,11176 6578,11174 6573,11169 6568,11163 6563,11156 6558,11149 6547,11132 6537,11114 6531,11101 6524,11090 6518,11079 6511,11068 6503,11059 6496,11050 6488,11041 6480,11034 6476,11031 6471,11028 6466,11025 6461,11022 6455,11020 6449,11018 6437,11013 6423,11010 6406,11008 6390,11006 6372,11006 6355,11006 6339,11008 6324,11010 6310,11013 6297,11018 6285,11023 6273,11029 6262,11036 6253,11043 6248,11048 6244,11052 6241,11056 6237,11060 6235,11064 6232,11068 6230,11073 6228,11078 6226,11082 6224,11087 6223,11091 6223,11096 6222,11100 6222,11106 6222,11112 6223,11118 6224,11123 6225,11129 6227,11135 6229,11140 6232,11145 6235,11149 6239,11153 6242,11157 6247,11161 6251,11166 6256,11170 6261,11174 6267,11178 6273,11181 6286,11187 6299,11194 6312,11199 6325,11203 6418,11229 6456,11238 6492,11247 6527,11259 6561,11270 6577,11276 6592,11283 6607,11290 6621,11296 6635,11304 6648,11312 6661,11320 6673,11328 6684,11338 6696,11347 6706,11356 6716,11368 6725,11379 6733,11390 6740,11403 6747,11416 6753,11430 6759,11444 6763,11460 6767,11475 6770,11492 6772,11508 6774,11526 6774,11545 Z"/>
    <path fill="none" stroke="rgb(255,255,255)" stroke-width="35" stroke-linejoin="miter" d="M 6932,11731 L 6932,10972 6932,10956 6934,10942 6936,10929 6940,10915 6944,10904 6946,10897 6949,10892 6952,10887 6955,10883 6958,10878 6962,10874 6966,10869 6970,10865 6975,10862 6979,10859 6983,10856 6987,10853 6992,10851 6997,10849 7002,10847 7006,10845 7012,10844 7017,10843 7028,10841 7039,10841 7051,10841 7062,10843 7073,10845 7078,10847 7083,10849 7088,10851 7093,10853 7097,10856 7102,10859 7106,10862 7110,10865 7115,10869 7119,10874 7123,10878 7126,10883 7129,10887 7132,10892 7135,10897 7137,10904 7142,10915 7145,10929 7147,10942 7149,10956 7149,10972 7149,11731 7149,11747 7147,11762 7145,11775 7142,11788 7137,11800 7135,11806 7132,11811 7129,11816 7126,11821 7123,11825 7119,11829 7115,11833 7110,11838 7106,11841 7102,11844 7097,11847 7093,11850 7088,11853 7083,11855 7078,11857 7073,11858 7068,11860 7062,11861 7051,11862 7039,11864 7028,11862 7022,11862 7017,11861 7012,11860 7007,11858 7002,11857 6997,11855 6992,11853 6988,11850 6983,11847 6979,11844 6975,11841 6970,11838 6962,11829 6958,11825 6955,11821 6952,11816 6949,11811 6946,11806 6944,11800 6940,11788 6936,11775 6934,11762 6932,11747 6932,11731 Z"/>
    <path fill="none" stroke="rgb(255,255,255)" stroke-width="35" stroke-linejoin="miter" d="M 7556,10972 L 7556,11660 7926,11660 7938,11660 7950,11662 7962,11664 7973,11667 7982,11670 7987,11672 7991,11675 7995,11677 8000,11680 8003,11683 8007,11686 8014,11694 8017,11697 8020,11701 8022,11704 8025,11708 8027,11712 8029,11716 8030,11721 8032,11725 8033,11730 8034,11734 8035,11739 8036,11743 8036,11754 8036,11764 8035,11769 8034,11773 8033,11779 8032,11783 8030,11787 8029,11791 8027,11795 8025,11799 8022,11803 8020,11807 8017,11811 8014,11814 8007,11821 8003,11824 8000,11827 7996,11830 7991,11832 7987,11835 7983,11837 7973,11841 7963,11844 7951,11845 7939,11847 7926,11847 7468,11847 7452,11847 7437,11845 7423,11843 7411,11839 7405,11837 7399,11835 7394,11831 7388,11829 7383,11826 7378,11822 7374,11819 7370,11815 7366,11811 7363,11807 7360,11801 7357,11796 7354,11791 7351,11786 7349,11780 7347,11773 7343,11760 7341,11747 7339,11731 7339,11714 7339,10972 7339,10956 7341,10942 7343,10929 7346,10916 7350,10904 7353,10898 7355,10893 7358,10888 7361,10884 7364,10879 7368,10875 7376,10866 7380,10863 7384,10860 7388,10857 7392,10854 7398,10852 7403,10849 7408,10847 7413,10846 7418,10844 7423,10843 7434,10842 7446,10841 7458,10841 7469,10843 7480,10845 7485,10847 7490,10849 7495,10851 7500,10853 7504,10856 7509,10859 7513,10862 7517,10865 7521,10869 7525,10874 7529,10878 7532,10883 7536,10887 7539,10892 7542,10897 7544,10904 7549,10915 7552,10929 7554,10942 7556,10956 7556,10972 Z"/>
    <path fill="none" stroke="rgb(255,255,255)" stroke-width="35" stroke-linejoin="miter" d="M 8367,10972 L 8367,11296 8717,10902 8730,10887 8743,10875 8754,10864 8765,10856 8770,10852 8776,10849 8783,10847 8791,10845 8798,10843 8806,10842 8814,10841 8822,10841 8833,10841 8844,10843 8855,10845 8864,10848 8874,10852 8878,10854 8882,10857 8886,10860 8890,10862 8894,10866 8898,10869 8905,10877 8911,10885 8913,10889 8916,10892 8918,10897 8920,10902 8922,10906 8923,10910 8924,10915 8925,10919 8927,10929 8927,10939 8927,10945 8926,10951 8925,10956 8924,10963 8922,10969 8920,10975 8918,10980 8915,10986 8908,10998 8900,11009 8891,11022 8880,11033 8654,11251 8908,11626 8925,11649 8941,11670 8947,11679 8952,11689 8957,11698 8961,11706 8965,11714 8968,11723 8970,11731 8972,11738 8974,11747 8975,11755 8976,11762 8976,11770 8976,11780 8975,11784 8974,11788 8973,11793 8972,11797 8971,11801 8969,11806 8967,11810 8965,11813 8963,11817 8960,11821 8955,11828 8948,11836 8944,11839 8941,11842 8937,11845 8932,11848 8927,11850 8923,11852 8914,11856 8904,11859 8893,11861 8882,11864 8871,11864 8860,11864 8850,11862 8840,11860 8831,11858 8822,11856 8814,11852 8806,11849 8799,11844 8792,11839 8785,11833 8779,11827 8773,11822 8767,11815 8762,11808 8757,11800 8752,11793 8720,11738 8506,11392 8367,11537 8367,11731 8367,11747 8365,11762 8363,11775 8360,11789 8355,11800 8353,11806 8350,11812 8347,11817 8344,11821 8341,11826 8337,11830 8329,11838 8320,11845 8316,11848 8311,11850 8306,11853 8302,11855 8297,11857 8292,11858 8281,11861 8270,11862 8258,11864 8251,11864 8245,11862 8238,11861 8230,11859 8223,11857 8217,11855 8210,11852 8204,11849 8198,11845 8192,11841 8187,11836 8181,11830 8177,11825 8172,11819 8168,11813 8164,11807 8162,11801 8160,11796 8158,11791 8157,11785 8155,11780 8154,11773 8154,11767 8153,11761 8151,11689 8151,10972 8151,10956 8153,10942 8155,10929 8158,10916 8162,10904 8164,10898 8167,10893 8169,10888 8172,10884 8176,10879 8179,10875 8183,10871 8186,10866 8190,10863 8195,10860 8199,10857 8203,10854 8208,10852 8213,10849 8218,10847 8223,10846 8228,10844 8235,10843 8246,10842 8258,10841 8270,10841 8281,10843 8292,10845 8297,10847 8302,10849 8307,10851 8312,10853 8316,10856 8321,10859 8325,10862 8329,10865 8333,10869 8337,10874 8341,10878 8344,10883 8347,10887 8350,10892 8353,10897 8355,10904 8360,10915 8363,10929 8365,10942 8367,10956 8367,10972 Z"/>
    <path fill="none" stroke="rgb(255,255,255)" stroke-width="35" stroke-linejoin="miter" d="M 6303,12808 L 6250,12808 6250,13104 6250,13121 6248,13135 6246,13150 6243,13162 6241,13168 6238,13174 6236,13180 6233,13185 6230,13190 6227,13195 6224,13199 6220,13203 6212,13211 6208,13215 6204,13218 6199,13221 6195,13223 6190,13226 6186,13228 6181,13230 6175,13231 6170,13233 6165,13234 6154,13235 6142,13236 6129,13235 6117,13234 6111,13233 6106,13231 6101,13230 6096,13228 6091,13226 6086,13223 6082,13220 6078,13217 6073,13214 6069,13211 6066,13206 6062,13202 6059,13198 6055,13193 6052,13189 6050,13184 6047,13177 6045,13172 6041,13161 6038,13147 6036,13134 6034,13119 6034,13104 6034,12363 6034,12346 6036,12330 6038,12316 6042,12303 6044,12296 6046,12290 6049,12285 6051,12280 6054,12275 6058,12269 6061,12265 6065,12261 6069,12257 6073,12254 6078,12250 6083,12247 6088,12245 6093,12241 6099,12239 6105,12237 6118,12233 6131,12231 6147,12229 6163,12229 6472,12229 6502,12229 6531,12231 6558,12233 6583,12235 6595,12237 6606,12239 6618,12241 6629,12245 6640,12248 6651,12252 6662,12256 6673,12261 6683,12265 6694,12270 6704,12277 6714,12283 6724,12290 6733,12298 6742,12307 6751,12316 6760,12325 6768,12336 6775,12346 6782,12357 6789,12369 6795,12380 6800,12392 6805,12404 6809,12416 6813,12429 6816,12441 6819,12455 6821,12467 6822,12481 6823,12494 6823,12508 6822,12535 6819,12561 6814,12586 6807,12609 6799,12632 6794,12642 6788,12651 6782,12662 6775,12671 6768,12680 6761,12689 6745,12705 6727,12720 6707,12733 6685,12745 6663,12755 6638,12763 6612,12771 6585,12777 6591,12779 6597,12781 6608,12786 6620,12792 6631,12800 6642,12809 6654,12819 6665,12831 6677,12844 6701,12872 6722,12901 6742,12930 6761,12960 6778,12990 6794,13019 6807,13047 6819,13073 6828,13097 6832,13107 6836,13116 6838,13125 6840,13132 6841,13139 6841,13141 6841,13144 6841,13151 6840,13156 6839,13162 6837,13167 6834,13173 6832,13179 6829,13185 6826,13190 6822,13195 6818,13200 6814,13205 6809,13210 6804,13214 6799,13218 6794,13221 6788,13224 6782,13227 6776,13229 6770,13231 6763,13233 6756,13234 6750,13235 6742,13236 6735,13236 6726,13236 6718,13235 6710,13234 6702,13232 6694,13229 6687,13226 6680,13223 6674,13219 6668,13215 6662,13210 6657,13205 6652,13200 6647,13195 6642,13190 6637,13184 6633,13177 6590,13106 6512,12960 6475,12909 6459,12888 6443,12869 6435,12861 6428,12852 6420,12845 6412,12839 6404,12834 6396,12829 6389,12824 6381,12820 6373,12817 6365,12815 6355,12812 6346,12811 6336,12810 6325,12809 6314,12808 6303,12808 Z"/>
    <path fill="none" stroke="rgb(255,255,255)" stroke-width="35" stroke-linejoin="miter" d="M 6411,12402 L 6250,12402 6250,12641 6406,12641 6438,12640 6467,12638 6480,12637 6493,12635 6505,12633 6516,12630 6527,12627 6537,12624 6546,12619 6556,12614 6564,12610 6571,12605 6577,12599 6583,12592 6586,12589 6588,12585 6590,12582 6592,12578 6594,12574 6596,12571 6599,12561 6601,12552 6603,12542 6604,12531 6604,12520 6604,12511 6603,12502 6601,12494 6599,12486 6597,12479 6594,12471 6590,12464 6586,12457 6581,12451 6576,12444 6571,12438 6565,12433 6559,12428 6551,12424 6544,12420 6537,12415 6533,12413 6528,12412 6517,12409 6505,12407 6490,12405 6455,12403 6411,12402 Z"/>
    <path fill="none" stroke="rgb(255,255,255)" stroke-width="35" stroke-linejoin="miter" d="M 7421,12213 L 7457,12215 7493,12218 7527,12223 7560,12229 7592,12238 7622,12249 7651,12262 7679,12277 7705,12293 7729,12312 7752,12332 7773,12352 7793,12376 7810,12401 7827,12427 7842,12455 7855,12484 7866,12515 7875,12547 7883,12580 7889,12614 7894,12649 7896,12686 7897,12724 7897,12752 7895,12780 7893,12806 7890,12833 7885,12858 7880,12882 7874,12907 7867,12931 7859,12954 7850,12977 7840,12998 7830,13019 7818,13039 7804,13057 7791,13076 7776,13094 7760,13110 7744,13126 7727,13141 7708,13155 7689,13168 7668,13180 7648,13191 7626,13200 7604,13209 7581,13216 7557,13222 7531,13227 7506,13231 7480,13234 7453,13235 7425,13236 7397,13235 7369,13234 7343,13231 7318,13227 7293,13222 7269,13216 7245,13207 7222,13199 7200,13190 7179,13179 7159,13167 7140,13154 7122,13140 7104,13125 7087,13109 7072,13093 7058,13075 7044,13056 7031,13038 7020,13017 7009,12996 6999,12975 6990,12953 6982,12929 6975,12905 6968,12880 6963,12855 6958,12830 6955,12804 6953,12777 6951,12750 6951,12722 6952,12694 6953,12666 6956,12639 6959,12613 6964,12587 6969,12562 6977,12538 6984,12514 6992,12491 7002,12468 7012,12446 7023,12426 7035,12406 7047,12387 7061,12370 7076,12352 7092,12336 7108,12320 7126,12306 7144,12292 7162,12280 7182,12268 7202,12258 7223,12249 7245,12240 7269,12233 7292,12227 7316,12222 7341,12219 7367,12216 7394,12215 7421,12213 Z"/>
    <path fill="none" stroke="rgb(255,255,255)" stroke-width="35" stroke-linejoin="miter" d="M 7678,12722 L 7677,12697 7676,12672 7672,12649 7669,12627 7664,12605 7659,12584 7652,12564 7645,12546 7637,12528 7627,12511 7617,12495 7607,12481 7595,12467 7582,12455 7569,12443 7555,12433 7540,12424 7524,12416 7508,12410 7492,12405 7475,12401 7457,12398 7439,12397 7421,12396 7408,12396 7395,12397 7381,12399 7368,12401 7356,12404 7344,12407 7332,12411 7321,12416 7310,12422 7299,12428 7289,12434 7279,12441 7269,12450 7260,12458 7250,12467 7242,12476 7234,12487 7227,12498 7220,12510 7213,12522 7206,12535 7201,12550 7195,12564 7190,12580 7185,12596 7182,12612 7178,12630 7176,12647 7174,12665 7172,12684 7171,12702 7171,12722 7172,12761 7174,12780 7176,12798 7178,12816 7182,12834 7185,12850 7190,12867 7195,12882 7201,12897 7207,12911 7213,12925 7220,12938 7228,12950 7236,12962 7244,12972 7253,12983 7263,12992 7272,13000 7282,13009 7292,13016 7302,13022 7313,13028 7324,13034 7335,13039 7347,13043 7358,13046 7371,13049 7383,13051 7397,13053 7410,13054 7423,13054 7440,13053 7457,13052 7473,13049 7490,13046 7505,13041 7521,13035 7537,13027 7551,13019 7565,13010 7578,12998 7591,12987 7603,12973 7614,12959 7624,12943 7634,12927 7643,12908 7651,12889 7658,12869 7664,12847 7669,12824 7672,12801 7676,12776 7677,12749 7678,12722 Z"/>
    <path fill="none" stroke="rgb(255,255,255)" stroke-width="35" stroke-linejoin="miter" d="M 8879,12902 L 8879,12914 8878,12927 8876,12939 8873,12953 8870,12965 8866,12979 8861,12993 8856,13007 8850,13020 8843,13035 8835,13048 8826,13063 8817,13076 8807,13089 8796,13103 8783,13116 8770,13130 8757,13142 8743,13154 8728,13165 8712,13175 8695,13185 8677,13194 8659,13203 8639,13211 8618,13218 8598,13223 8576,13228 8554,13231 8531,13234 8506,13235 8481,13236 8444,13235 8408,13233 8375,13228 8358,13225 8342,13222 8327,13218 8312,13214 8298,13209 8284,13203 8270,13197 8256,13190 8243,13183 8229,13175 8216,13167 8204,13158 8191,13148 8180,13138 8168,13128 8157,13116 8146,13104 8135,13092 8117,13068 8100,13042 8083,13015 8069,12987 8062,12972 8056,12958 8046,12928 8037,12897 8029,12865 8023,12832 8019,12797 8017,12762 8016,12726 8016,12697 8018,12668 8021,12640 8024,12613 8029,12586 8034,12561 8041,12537 8049,12513 8058,12490 8068,12467 8079,12446 8090,12426 8104,12406 8117,12386 8132,12369 8147,12351 8163,12335 8180,12319 8197,12306 8215,12292 8235,12280 8254,12268 8274,12258 8295,12249 8316,12240 8338,12233 8360,12227 8383,12222 8406,12219 8429,12216 8452,12215 8476,12213 8505,12215 8533,12217 8560,12221 8587,12226 8612,12233 8637,12241 8662,12251 8685,12262 8707,12275 8728,12288 8748,12301 8766,12316 8783,12332 8800,12348 8814,12365 8827,12382 8839,12400 8849,12417 8857,12435 8864,12453 8869,12469 8873,12486 8875,12502 8876,12519 8876,12528 8874,12538 8872,12547 8869,12555 8865,12563 8861,12572 8855,12580 8849,12587 8842,12595 8835,12601 8831,12603 8828,12606 8824,12608 8820,12610 8816,12611 8811,12613 8807,12614 8803,12615 8798,12616 8794,12617 8783,12617 8773,12617 8763,12616 8755,12614 8747,12612 8743,12611 8739,12609 8736,12607 8733,12606 8730,12604 8727,12602 8724,12599 8721,12597 8716,12591 8710,12585 8705,12578 8699,12571 8694,12561 8688,12552 8677,12531 8668,12515 8658,12499 8648,12485 8638,12471 8627,12459 8617,12447 8606,12438 8594,12429 8582,12421 8569,12414 8556,12408 8541,12404 8527,12400 8510,12398 8494,12396 8477,12396 8463,12396 8450,12397 8437,12399 8425,12401 8413,12404 8401,12408 8390,12412 8378,12417 8367,12424 8356,12430 8346,12437 8336,12444 8327,12453 8318,12462 8309,12472 8301,12483 8293,12494 8286,12505 8279,12518 8272,12531 8261,12558 8252,12588 8245,12621 8240,12656 8237,12693 8236,12733 8236,12760 8238,12786 8240,12811 8243,12834 8247,12855 8252,12876 8258,12896 8265,12914 8273,12932 8281,12948 8290,12962 8300,12977 8310,12989 8321,13000 8333,13011 8346,13020 8359,13028 8374,13036 8389,13041 8404,13046 8420,13049 8436,13052 8453,13054 8471,13054 8490,13053 8508,13052 8526,13049 8542,13044 8558,13039 8573,13031 8587,13024 8601,13015 8614,13005 8626,12993 8638,12980 8648,12965 8659,12950 8668,12932 8676,12913 8684,12894 8687,12885 8690,12877 8694,12869 8698,12862 8702,12853 8706,12846 8711,12839 8716,12832 8719,12829 8721,12825 8724,12822 8728,12819 8731,12817 8735,12815 8738,12813 8742,12811 8747,12809 8751,12808 8756,12807 8761,12806 8771,12804 8782,12804 8793,12804 8797,12805 8802,12806 8806,12807 8811,12808 8815,12810 8819,12811 8827,12815 8835,12820 8843,12826 8850,12833 8857,12840 8863,12847 8865,12851 8868,12855 8870,12860 8872,12865 8873,12869 8875,12873 8876,12878 8877,12882 8878,12888 8879,12892 8879,12902 Z"/>
    <path fill="none" stroke="rgb(255,255,255)" stroke-width="35" stroke-linejoin="miter" d="M 9260,12345 L 9260,12669 9609,12275 9622,12260 9636,12248 9647,12237 9658,12229 9663,12225 9669,12222 9676,12220 9683,12218 9690,12216 9698,12215 9706,12213 9714,12213 9725,12213 9736,12216 9747,12218 9756,12221 9766,12225 9771,12227 9775,12230 9779,12233 9783,12235 9787,12239 9791,12242 9798,12250 9804,12258 9806,12262 9809,12265 9811,12270 9813,12275 9815,12279 9816,12283 9817,12288 9818,12292 9820,12301 9820,12312 9820,12318 9819,12324 9818,12329 9817,12336 9815,12342 9813,12348 9811,12353 9808,12359 9801,12371 9793,12382 9784,12395 9773,12406 9546,12624 9801,12999 9818,13022 9833,13043 9839,13052 9844,13061 9849,13071 9853,13079 9857,13087 9860,13096 9862,13104 9864,13111 9866,13119 9867,13128 9868,13135 9868,13143 9868,13153 9867,13157 9866,13161 9865,13166 9864,13170 9863,13174 9861,13179 9859,13183 9857,13186 9855,13190 9852,13194 9847,13201 9840,13209 9836,13212 9833,13215 9829,13218 9824,13221 9820,13223 9816,13225 9807,13229 9797,13232 9786,13234 9775,13236 9763,13236 9752,13236 9742,13235 9732,13233 9723,13231 9714,13229 9706,13225 9698,13222 9691,13217 9684,13212 9678,13206 9672,13200 9666,13195 9660,13188 9655,13181 9650,13173 9645,13166 9612,13111 9399,12765 9260,12910 9260,13104 9260,13119 9258,13135 9256,13148 9253,13162 9248,13173 9246,13179 9243,13185 9240,13190 9237,13194 9234,13199 9230,13203 9222,13211 9213,13218 9208,13221 9203,13223 9198,13226 9194,13228 9189,13230 9184,13231 9173,13234 9162,13235 9150,13236 9143,13236 9137,13235 9130,13234 9123,13232 9116,13230 9110,13228 9103,13225 9097,13222 9091,13218 9085,13214 9080,13209 9074,13203 9070,13198 9064,13192 9060,13186 9056,13180 9054,13174 9052,13169 9050,13164 9049,13158 9047,13153 9046,13146 9046,13140 9045,13134 9043,13061 9043,12345 9043,12329 9045,12315 9047,12301 9050,12289 9054,12277 9056,12271 9059,12266 9061,12261 9064,12257 9068,12252 9072,12248 9076,12244 9079,12239 9083,12236 9088,12233 9092,12230 9096,12227 9101,12225 9106,12222 9111,12220 9116,12219 9121,12217 9127,12216 9138,12215 9150,12213 9162,12213 9173,12216 9184,12218 9189,12220 9194,12222 9199,12224 9204,12226 9208,12229 9214,12232 9218,12235 9222,12238 9226,12242 9230,12247 9234,12251 9237,12256 9240,12260 9243,12265 9246,12270 9248,12277 9253,12288 9256,12301 9258,12315 9260,12329 9260,12345 Z"/>
    <path fill="none" stroke="rgb(255,255,255)" stroke-width="35" stroke-linejoin="miter" d="M 6918,14188 L 6918,14372 6918,14382 6917,14391 6917,14399 6916,14408 6915,14415 6913,14422 6912,14429 6910,14436 6908,14442 6905,14448 6903,14454 6899,14459 6895,14465 6891,14470 6887,14475 6882,14480 6877,14485 6871,14489 6865,14495 6859,14500 6852,14504 6845,14508 6829,14517 6787,14540 6745,14559 6704,14574 6663,14588 6643,14593 6622,14597 6601,14601 6579,14604 6534,14608 6488,14609 6461,14608 6434,14607 6407,14604 6382,14601 6357,14596 6333,14590 6309,14583 6286,14574 6263,14565 6241,14555 6221,14543 6201,14532 6182,14518 6164,14504 6146,14489 6129,14473 6114,14455 6099,14438 6085,14418 6073,14398 6061,14378 6050,14356 6040,14333 6031,14310 6023,14286 6016,14262 6010,14236 6005,14210 6002,14183 5999,14155 5998,14127 5997,14098 5998,14070 5999,14042 6002,14014 6005,13988 6010,13962 6016,13936 6022,13912 6030,13888 6039,13864 6048,13841 6059,13819 6071,13799 6084,13779 6097,13759 6112,13742 6128,13724 6146,13708 6163,13692 6182,13679 6201,13665 6221,13653 6242,13641 6264,13631 6288,13622 6311,13613 6336,13606 6361,13600 6386,13595 6413,13592 6441,13589 6469,13587 6498,13586 6522,13586 6545,13589 6568,13591 6590,13594 6611,13597 6631,13602 6651,13607 6670,13613 6688,13621 6707,13628 6723,13635 6739,13643 6754,13653 6768,13662 6781,13671 6793,13682 6804,13692 6815,13702 6825,13714 6834,13724 6844,13736 6852,13747 6859,13758 6865,13770 6871,13781 6876,13793 6880,13803 6883,13814 6886,13825 6888,13834 6889,13844 6889,13854 6889,13864 6887,13874 6886,13878 6885,13884 6883,13888 6882,13893 6880,13897 6877,13901 6875,13906 6872,13911 6866,13919 6859,13926 6855,13930 6851,13933 6847,13936 6843,13940 6839,13942 6833,13944 6829,13946 6824,13948 6815,13951 6805,13953 6795,13955 6785,13955 6779,13955 6773,13954 6768,13953 6762,13952 6756,13951 6751,13949 6745,13947 6740,13944 6735,13941 6730,13937 6725,13934 6720,13930 6715,13926 6711,13922 6707,13917 6703,13912 6686,13886 6671,13863 6657,13844 6645,13829 6639,13823 6633,13815 6626,13809 6618,13803 6611,13798 6602,13793 6593,13787 6584,13782 6574,13778 6563,13774 6551,13771 6539,13768 6526,13767 6513,13765 6499,13764 6484,13764 6468,13764 6453,13765 6439,13767 6425,13769 6410,13772 6397,13776 6384,13780 6372,13785 6360,13791 6349,13798 6338,13805 6327,13812 6317,13820 6307,13830 6298,13839 6289,13849 6281,13860 6272,13872 6264,13884 6258,13897 6251,13911 6245,13924 6240,13939 6235,13954 6231,13970 6227,13986 6223,14003 6221,14020 6219,14038 6217,14056 6216,14074 6216,14093 6217,14133 6220,14170 6226,14206 6234,14238 6244,14268 6249,14282 6256,14296 6263,14309 6270,14322 6279,14333 6288,14344 6297,14355 6307,14365 6317,14374 6327,14383 6338,14390 6350,14397 6362,14403 6374,14410 6387,14415 6400,14419 6414,14423 6429,14426 6458,14430 6489,14431 6505,14431 6520,14430 6535,14429 6550,14427 6566,14424 6581,14421 6595,14418 6609,14414 6637,14404 6664,14394 6690,14382 6704,14375 6717,14368 6717,14234 6583,14234 6569,14234 6556,14233 6543,14232 6532,14229 6521,14226 6511,14223 6502,14219 6494,14215 6490,14213 6487,14210 6483,14207 6480,14204 6478,14200 6475,14196 6473,14192 6471,14188 6469,14184 6467,14180 6466,14175 6465,14169 6464,14164 6463,14159 6463,14148 6463,14138 6465,14130 6465,14126 6466,14122 6468,14118 6469,14113 6471,14109 6473,14106 6475,14102 6477,14099 6480,14095 6483,14092 6486,14089 6489,14086 6496,14079 6503,14075 6511,14070 6520,14067 6529,14064 6538,14063 6548,14061 6560,14061 6775,14061 6795,14062 6814,14063 6831,14066 6840,14067 6848,14069 6856,14071 6863,14074 6869,14078 6876,14082 6882,14088 6888,14093 6893,14099 6898,14106 6900,14110 6903,14113 6907,14122 6910,14131 6913,14141 6915,14152 6917,14163 6918,14176 6918,14188 Z"/>
    <path fill="none" stroke="rgb(255,255,255)" stroke-width="35" stroke-linejoin="miter" d="M 7644,14481 L 7600,14363 7238,14363 7197,14478 7184,14512 7172,14541 7166,14553 7160,14564 7154,14573 7149,14580 7146,14584 7143,14588 7140,14591 7137,14593 7133,14596 7129,14598 7125,14600 7121,14602 7117,14604 7111,14605 7106,14606 7101,14607 7090,14609 7078,14609 7068,14609 7058,14607 7054,14606 7049,14605 7044,14603 7040,14602 7031,14597 7022,14592 7014,14586 7006,14578 6999,14571 6995,14567 6992,14563 6990,14559 6987,14555 6985,14550 6983,14546 6981,14541 6979,14537 6978,14532 6977,14528 6976,14522 6975,14518 6975,14508 6975,14498 6976,14491 6976,14486 6977,14481 6978,14476 6979,14470 6981,14465 6985,14453 6990,14439 7003,14403 7242,13778 7268,13713 7275,13694 7283,13677 7291,13662 7300,13648 7304,13641 7309,13635 7314,13629 7320,13624 7326,13619 7332,13613 7339,13608 7346,13604 7354,13600 7362,13597 7370,13594 7379,13591 7388,13589 7399,13587 7409,13586 7419,13586 7429,13586 7439,13587 7449,13589 7458,13591 7467,13594 7475,13597 7483,13600 7491,13604 7498,13608 7505,13613 7511,13619 7518,13624 7523,13629 7528,13635 7534,13641 7539,13648 7547,13661 7555,13673 7561,13687 7567,13699 7594,13771 7841,14398 7854,14432 7859,14448 7864,14462 7867,14475 7869,14487 7871,14498 7871,14507 7871,14512 7871,14516 7870,14521 7869,14526 7868,14531 7867,14535 7865,14540 7863,14544 7861,14548 7859,14553 7854,14561 7847,14569 7840,14577 7836,14582 7832,14585 7828,14589 7824,14592 7820,14594 7815,14597 7810,14599 7805,14601 7800,14603 7795,14605 7785,14607 7775,14609 7764,14609 7758,14609 7752,14608 7746,14608 7740,14607 7735,14605 7730,14604 7725,14602 7720,14600 7716,14598 7711,14595 7707,14592 7703,14589 7699,14586 7696,14582 7692,14578 7689,14574 7686,14570 7683,14565 7680,14560 7677,14555 7670,14541 7663,14527 7652,14499 7647,14488 7644,14481 Z"/>
    <path fill="none" stroke="rgb(255,255,255)" stroke-width="35" stroke-linejoin="miter" d="M 7293,14190 L 7546,14190 7418,13818 7293,14190 Z"/>
    <path fill="none" stroke="rgb(255,255,255)" stroke-width="35" stroke-linejoin="miter" d="M 8317,14421 L 8194,13834 8194,14485 8194,14500 8192,14514 8190,14527 8187,14539 8185,14544 8183,14549 8181,14555 8178,14560 8176,14565 8173,14569 8169,14573 8166,14577 8163,14582 8159,14585 8155,14589 8151,14592 8147,14594 8143,14597 8139,14599 8134,14601 8130,14603 8125,14605 8120,14606 8115,14607 8104,14609 8093,14609 8081,14609 8071,14607 8066,14606 8062,14605 8057,14603 8052,14602 8048,14600 8044,14597 8040,14595 8036,14592 8032,14589 8028,14586 8024,14583 8021,14578 8018,14574 8014,14570 8011,14566 8009,14561 8006,14556 8004,14550 8002,14545 8000,14540 7997,14528 7995,14514 7993,14501 7993,14485 7993,13723 7994,13706 7995,13690 7998,13677 8000,13669 8002,13663 8004,13658 8007,13652 8010,13647 8013,13642 8017,13638 8021,13634 8025,13630 8029,13627 8038,13621 8048,13616 8059,13611 8071,13608 8083,13605 8097,13604 8110,13602 8124,13602 8183,13602 8209,13603 8221,13604 8232,13605 8242,13606 8251,13608 8260,13610 8267,13613 8274,13616 8280,13621 8286,13625 8288,13627 8291,13629 8295,13635 8300,13640 8304,13647 8307,13654 8314,13670 8320,13690 8328,13713 8335,13741 8458,14259 8582,13741 8589,13713 8596,13689 8603,13669 8606,13660 8609,13653 8612,13645 8616,13639 8621,13634 8623,13631 8625,13629 8628,13626 8630,13624 8633,13622 8636,13620 8642,13616 8649,13613 8657,13611 8666,13608 8675,13606 8685,13605 8695,13604 8707,13603 8733,13602 8793,13602 8807,13602 8820,13604 8833,13606 8845,13608 8857,13612 8867,13616 8877,13622 8887,13628 8891,13631 8896,13635 8900,13639 8903,13643 8906,13649 8909,13653 8912,13659 8915,13664 8917,13670 8919,13677 8920,13684 8922,13691 8923,13707 8924,13723 8924,14485 8924,14500 8922,14514 8920,14527 8917,14539 8915,14544 8913,14549 8911,14555 8908,14560 8906,14565 8903,14569 8899,14573 8896,14577 8893,14582 8889,14585 8885,14589 8881,14592 8877,14594 8873,14597 8869,14599 8864,14601 8859,14603 8855,14605 8850,14606 8845,14607 8834,14609 8823,14609 8812,14609 8802,14607 8797,14606 8793,14605 8787,14603 8782,14601 8778,14599 8774,14597 8770,14594 8766,14592 8762,14589 8758,14585 8754,14582 8751,14577 8748,14573 8744,14569 8741,14565 8739,14560 8736,14555 8734,14549 8732,14544 8730,14539 8727,14527 8725,14514 8723,14500 8723,14485 8723,13834 8599,14438 8592,14466 8586,14489 8580,14510 8575,14527 8572,14534 8569,14541 8565,14548 8560,14556 8555,14563 8550,14570 8544,14577 8537,14584 8533,14587 8530,14590 8526,14593 8521,14595 8517,14597 8513,14599 8502,14603 8492,14606 8481,14607 8470,14609 8458,14609 8449,14609 8440,14608 8432,14607 8424,14605 8416,14603 8409,14600 8402,14597 8395,14593 8389,14589 8383,14584 8378,14579 8373,14574 8367,14569 8363,14564 8359,14558 8355,14551 8352,14545 8348,14538 8345,14532 8342,14525 8340,14518 8337,14511 8335,14504 8333,14497 8329,14481 8325,14463 8317,14421 Z"/>
    <path fill="none" stroke="rgb(255,255,255)" stroke-width="35" stroke-linejoin="miter" d="M 9745,13779 L 9331,13779 9331,13989 9711,13989 9723,13989 9734,13990 9744,13992 9754,13995 9763,13999 9767,14001 9772,14003 9776,14005 9779,14008 9783,14010 9786,14013 9789,14016 9792,14019 9795,14022 9797,14027 9800,14030 9802,14033 9804,14037 9805,14041 9807,14045 9808,14049 9809,14053 9810,14058 9811,14062 9812,14066 9812,14075 9812,14085 9810,14094 9810,14098 9808,14102 9807,14106 9806,14110 9804,14115 9802,14118 9800,14122 9798,14125 9795,14129 9793,14132 9787,14138 9784,14141 9780,14145 9777,14147 9773,14150 9769,14152 9764,14154 9759,14155 9755,14157 9745,14160 9734,14162 9723,14163 9711,14163 9331,14163 9331,14411 9759,14411 9772,14411 9784,14412 9795,14414 9804,14417 9809,14418 9814,14420 9818,14422 9822,14424 9826,14427 9830,14429 9834,14432 9837,14436 9840,14439 9843,14442 9846,14446 9849,14449 9851,14453 9853,14457 9855,14461 9857,14466 9859,14470 9860,14474 9861,14478 9862,14483 9864,14492 9864,14503 9864,14512 9862,14521 9861,14526 9860,14531 9859,14535 9857,14539 9855,14543 9853,14546 9851,14550 9849,14555 9846,14558 9843,14562 9840,14565 9837,14568 9834,14571 9830,14574 9826,14576 9822,14579 9818,14582 9814,14584 9809,14586 9804,14587 9795,14590 9784,14592 9772,14593 9759,14593 9244,14593 9228,14593 9213,14591 9198,14589 9186,14585 9180,14583 9174,14580 9169,14577 9164,14575 9159,14572 9154,14568 9150,14565 9146,14561 9142,14557 9139,14553 9136,14547 9133,14542 9130,14537 9127,14532 9125,14526 9123,14519 9119,14506 9117,14491 9115,14476 9115,14459 9115,13736 9115,13724 9116,13714 9117,13703 9119,13694 9121,13685 9123,13677 9126,13668 9129,13660 9133,13653 9137,13645 9141,13639 9146,13634 9152,13628 9157,13624 9164,13620 9171,13615 9179,13612 9187,13609 9195,13607 9204,13605 9214,13604 9224,13603 9234,13602 9244,13602 9745,13602 9757,13602 9769,13603 9780,13605 9790,13608 9799,13611 9803,13613 9807,13615 9811,13619 9815,13621 9819,13624 9822,13627 9828,13633 9834,13640 9836,13643 9838,13648 9840,13651 9842,13655 9844,13659 9845,13663 9846,13667 9847,13671 9848,13676 9849,13681 9849,13690 9849,13699 9847,13709 9846,13714 9845,13718 9844,13722 9843,13726 9841,13730 9839,13733 9837,13738 9834,13741 9832,13745 9829,13748 9826,13751 9823,13754 9820,13757 9816,13759 9812,13762 9808,13765 9804,13767 9800,13769 9791,13773 9781,13775 9770,13777 9757,13779 9745,13779 Z"/>
    <path fill="none" stroke="rgb(255,255,255)" stroke-width="35" stroke-linejoin="miter" d="M 10744,14291 L 10743,14313 10741,14335 10737,14357 10732,14378 10726,14397 10718,14417 10709,14437 10698,14455 10686,14473 10673,14489 10658,14506 10642,14520 10625,14534 10607,14546 10586,14558 10565,14569 10543,14578 10519,14587 10495,14594 10470,14599 10443,14604 10415,14607 10387,14608 10358,14609 10323,14608 10290,14606 10258,14601 10228,14596 10200,14588 10172,14578 10146,14567 10122,14554 10106,14543 10091,14532 10076,14519 10062,14507 10049,14492 10036,14478 10025,14462 10014,14446 10004,14429 9996,14413 9989,14395 9983,14379 9978,14362 9975,14346 9973,14330 9972,14313 9972,14303 9974,14294 9975,14288 9976,14284 9977,14279 9979,14275 9981,14271 9983,14267 9988,14258 9993,14250 10000,14243 10007,14236 10011,14233 10015,14230 10019,14227 10023,14225 10027,14223 10031,14221 10035,14219 10040,14218 10050,14216 10060,14214 10070,14214 10079,14214 10087,14215 10095,14217 10103,14220 10110,14223 10117,14226 10123,14232 10129,14237 10135,14243 10140,14249 10146,14256 10151,14264 10156,14272 10160,14281 10165,14291 10169,14301 10178,14322 10186,14341 10197,14359 10201,14367 10206,14374 10211,14382 10216,14388 10223,14394 10229,14400 10236,14407 10244,14412 10252,14417 10260,14421 10269,14425 10279,14429 10289,14432 10300,14434 10312,14437 10325,14439 10339,14440 10353,14440 10372,14439 10391,14438 10408,14434 10425,14430 10440,14425 10455,14419 10469,14411 10482,14402 10493,14393 10498,14388 10503,14383 10507,14378 10511,14372 10515,14367 10518,14361 10521,14356 10523,14350 10525,14343 10527,14338 10528,14332 10529,14326 10530,14319 10530,14312 10530,14302 10528,14292 10527,14282 10525,14278 10524,14274 10522,14269 10520,14266 10518,14262 10516,14257 10514,14253 10511,14250 10505,14243 10498,14237 10491,14230 10483,14224 10475,14218 10465,14214 10455,14209 10445,14205 10435,14200 10412,14193 10385,14185 10353,14177 10317,14168 10268,14155 10223,14141 10181,14126 10144,14109 10127,14101 10111,14091 10096,14081 10082,14070 10068,14058 10056,14045 10043,14032 10032,14017 10022,14002 10014,13985 10006,13969 10000,13950 9996,13931 9993,13912 9991,13891 9990,13869 9991,13848 9993,13829 9996,13809 10001,13789 10007,13772 10015,13753 10024,13737 10034,13720 10046,13704 10060,13690 10074,13676 10089,13663 10105,13651 10123,13640 10142,13630 10162,13621 10183,13612 10206,13605 10229,13600 10252,13595 10277,13592 10302,13589 10329,13586 10356,13586 10377,13586 10398,13587 10418,13590 10438,13592 10457,13595 10476,13599 10493,13604 10510,13609 10526,13615 10541,13622 10556,13629 10569,13636 10583,13644 10595,13653 10608,13661 10619,13670 10630,13680 10639,13690 10648,13700 10657,13710 10664,13720 10671,13730 10678,13742 10683,13752 10688,13762 10692,13773 10695,13784 10698,13795 10700,13805 10702,13814 10703,13825 10703,13835 10703,13845 10701,13855 10699,13864 10696,13873 10693,13883 10688,13891 10682,13899 10676,13907 10669,13915 10665,13918 10661,13921 10657,13924 10653,13927 10649,13929 10645,13931 10640,13933 10636,13935 10631,13936 10626,13937 10621,13939 10616,13940 10605,13940 10596,13940 10587,13939 10579,13936 10572,13934 10569,13933 10565,13932 10562,13930 10559,13928 10556,13927 10553,13925 10551,13922 10548,13920 10543,13915 10538,13908 10533,13902 10528,13895 10518,13878 10508,13860 10502,13847 10495,13836 10489,13825 10482,13814 10474,13805 10467,13796 10458,13787 10450,13780 10446,13777 10441,13774 10436,13771 10431,13768 10425,13766 10419,13764 10407,13759 10393,13756 10377,13754 10361,13752 10343,13752 10325,13752 10309,13754 10294,13756 10280,13759 10267,13764 10255,13769 10244,13775 10233,13782 10224,13789 10219,13794 10215,13798 10212,13802 10208,13806 10206,13810 10203,13814 10201,13819 10199,13824 10197,13828 10195,13833 10194,13837 10194,13842 10193,13846 10193,13852 10193,13858 10194,13864 10195,13869 10196,13875 10198,13881 10200,13886 10203,13891 10206,13895 10210,13899 10213,13903 10218,13907 10222,13912 10227,13916 10232,13920 10238,13924 10244,13927 10256,13933 10269,13940 10282,13945 10295,13949 10388,13975 10426,13984 10462,13993 10498,14005 10531,14016 10547,14022 10562,14029 10577,14036 10591,14042 10605,14050 10619,14058 10632,14066 10644,14074 10655,14083 10666,14093 10676,14102 10686,14113 10695,14125 10703,14136 10710,14149 10717,14162 10723,14176 10729,14190 10733,14206 10737,14221 10740,14238 10742,14254 10744,14272 10744,14291 Z"/>
   </g>
  </g>
 </g>
</svg>