<?xml version="1.0" encoding="UTF-8"?>
<!DOCTYPE svg PUBLIC "-//W3C//DTD SVG 1.1//EN" "http://www.w3.org/Graphics/SVG/1.1/DTD/svg11.dtd">
<svg version="1.2" width="187.13mm" height="47.64mm" viewBox="1455 19096 18713 4764" preserveAspectRatio="xMidYMid" fill-rule="evenodd" stroke-width="28.222" stroke-linejoin="round" xmlns="http://www.w3.org/2000/svg" xmlns:ooo="http://xml.openoffice.org/svg/export" xmlns:xlink="http://www.w3.org/1999/xlink" xmlns:presentation="http://sun.com/xmlns/staroffice/presentation" xmlns:smil="http://www.w3.org/2001/SMIL20/" xmlns:anim="urn:oasis:names:tc:opendocument:xmlns:animation:1.0" xml:space="preserve">
 <defs class="EmbeddedBulletChars">
  <g id="bullet-char-template-57356" transform="scale(0.00048828125,-0.00048828125)">
   <path d="M 580,1141 L 1163,571 580,0 -4,571 580,1141 Z"/>
  </g>
  <g id="bullet-char-template-57354" transform="scale(0.00048828125,-0.00048828125)">
   <path d="M 8,1128 L 1137,1128 1137,0 8,0 8,1128 Z"/>
  </g>
  <g id="bullet-char-template-10146" transform="scale(0.00048828125,-0.00048828125)">
   <path d="M 174,0 L 602,739 174,1481 1456,739 174,0 Z M 1358,739 L 309,1346 659,739 1358,739 Z"/>
  </g>
  <g id="bullet-char-template-10132" transform="scale(0.00048828125,-0.00048828125)">
   <path d="M 2015,739 L 1276,0 717,0 1260,543 174,543 174,936 1260,936 717,1481 1274,1481 2015,739 Z"/>
  </g>
  <g id="bullet-char-template-10007" transform="scale(0.00048828125,-0.00048828125)">
   <path d="M 0,-2 C -7,14 -16,27 -25,37 L 356,567 C 262,823 215,952 215,954 215,979 228,992 255,992 264,992 276,990 289,987 310,991 331,999 354,1012 L 381,999 492,748 772,1049 836,1024 860,1049 C 881,1039 901,1025 922,1006 886,937 835,863 770,784 769,783 710,716 594,584 L 774,223 C 774,196 753,168 711,139 L 727,119 C 717,90 699,76 672,76 641,76 570,178 457,381 L 164,-76 C 142,-110 111,-127 72,-127 30,-127 9,-110 8,-76 1,-67 -2,-52 -2,-32 -2,-23 -1,-13 0,-2 Z"/>
  </g>
  <g id="bullet-char-template-10004" transform="scale(0.00048828125,-0.00048828125)">
   <path d="M 285,-33 C 182,-33 111,30 74,156 52,228 41,333 41,471 41,549 55,616 82,672 116,743 169,778 240,778 293,778 328,747 346,684 L 369,508 C 377,444 397,411 428,410 L 1163,1116 C 1174,1127 1196,1133 1229,1133 1271,1133 1292,1118 1292,1087 L 1292,965 C 1292,929 1282,901 1262,881 L 442,47 C 390,-6 338,-33 285,-33 Z"/>
  </g>
  <g id="bullet-char-template-9679" transform="scale(0.00048828125,-0.00048828125)">
   <path d="M 813,0 C 632,0 489,54 383,161 276,268 223,411 223,592 223,773 276,916 383,1023 489,1130 632,1184 813,1184 992,1184 1136,1130 1245,1023 1353,916 1407,772 1407,592 1407,412 1353,268 1245,161 1136,54 992,0 813,0 Z"/>
  </g>
  <g id="bullet-char-template-8226" transform="scale(0.00048828125,-0.00048828125)">
   <path d="M 346,457 C 273,457 209,483 155,535 101,586 74,649 74,723 74,796 101,859 155,911 209,963 273,989 346,989 419,989 480,963 531,910 582,859 608,796 608,723 608,648 583,586 532,535 482,483 420,457 346,457 Z"/>
  </g>
  <g id="bullet-char-template-8211" transform="scale(0.00048828125,-0.00048828125)">
   <path d="M -4,459 L 1135,459 1135,606 -4,606 -4,459 Z"/>
  </g>
  <g id="bullet-char-template-61548" transform="scale(0.00048828125,-0.00048828125)">
   <path d="M 173,740 C 173,903 231,1043 346,1159 462,1274 601,1332 765,1332 928,1332 1067,1274 1183,1159 1299,1043 1357,903 1357,740 1357,577 1299,437 1183,322 1067,206 928,148 765,148 601,148 462,206 346,322 231,437 173,577 173,740 Z"/>
  </g>
 </defs>
 <g class="Page">
  <g class="com.sun.star.drawing.CustomShape">
   <g id="id3">
    <rect class="BoundingBox" stroke="none" fill="none" x="1455" y="19096" width="18713" height="4764"/>
    <path fill="rgb(255,255,255)" stroke="none" d="M 10811,23859 L 1455,23859 1455,19096 20167,19096 20167,23859 10811,23859 Z"/>
   </g>
  </g>
  <g class="Group">
   <g class="com.sun.star.drawing.PolyPolygonShape">
    <g id="id4">
     <rect class="BoundingBox" stroke="none" fill="none" x="2052" y="20016" width="1291" height="1533"/>
     <path fill="rgb(0,72,165)" stroke="none" d="M 2369,20017 L 2725,20167 3341,20685 3025,21547 2053,20730 2369,20017 Z"/>
     <path fill="none" stroke="rgb(0,72,165)" d="M 2369,20017 L 2725,20167 3341,20685 3025,21547 2053,20730 2369,20017 Z"/>
    </g>
   </g>
   <g class="com.sun.star.drawing.PolyPolygonShape">
    <g id="id5">
     <rect class="BoundingBox" stroke="none" fill="none" x="2052" y="20729" width="975" height="2055"/>
     <path fill="rgb(0,72,165)" stroke="none" d="M 2053,20730 L 3025,21547 3025,22782 2562,22034 2053,22001 2053,20730 Z"/>
     <path fill="none" stroke="rgb(0,72,165)" d="M 2053,20730 L 3025,21547 3025,22782 2562,22034 2053,22001 2053,20730 Z"/>
    </g>
   </g>
   <g class="com.sun.star.drawing.PolyPolygonShape">
    <g id="id6">
     <rect class="BoundingBox" stroke="none" fill="none" x="2368" y="19579" width="1451" height="590"/>
     <path fill="rgb(30,136,229)" stroke="none" d="M 2369,20017 L 2806,19732 3817,19580 3679,20017 2725,20167 2369,20017 Z"/>
     <path fill="none" stroke="rgb(0,72,165)" d="M 2369,20017 L 2806,19732 3817,19580 3679,20017 2725,20167 2369,20017 Z"/>
    </g>
   </g>
   <g class="com.sun.star.drawing.PolyPolygonShape">
    <g id="id7">
     <rect class="BoundingBox" stroke="none" fill="none" x="3678" y="19579" width="659" height="670"/>
     <path fill="rgb(255,255,255)" stroke="none" d="M 3817,19580 L 4335,20247 3679,20017 3817,19580 Z"/>
     <path fill="none" stroke="rgb(0,72,165)" d="M 3817,19580 L 4335,20247 3679,20017 3817,19580 Z"/>
    </g>
   </g>
   <g class="com.sun.star.drawing.PolyPolygonShape">
    <g id="id8">
     <rect class="BoundingBox" stroke="none" fill="none" x="2724" y="20016" width="1613" height="671"/>
     <path fill="rgb(255,255,255)" stroke="none" d="M 2725,20167 L 3679,20017 4335,20248 3340,20685 2725,20167 Z"/>
     <path fill="none" stroke="rgb(0,72,165)" d="M 2725,20167 L 3679,20017 4335,20248 3340,20685 2725,20167 Z"/>
    </g>
   </g>
   <g class="com.sun.star.drawing.PolyPolygonShape">
    <g id="id9">
     <rect class="BoundingBox" stroke="none" fill="none" x="3339" y="20247" width="1653" height="440"/>
     <path fill="rgb(30,136,229)" stroke="none" d="M 3340,20685 L 4335,20248 4990,20370 3340,20685 Z"/>
     <path fill="none" stroke="rgb(0,72,165)" d="M 3340,20685 L 4335,20248 4990,20370 3340,20685 Z"/>
    </g>
   </g>
   <g class="com.sun.star.drawing.PolyPolygonShape">
    <g id="id10">
     <rect class="BoundingBox" stroke="none" fill="none" x="3023" y="20368" width="2188" height="1180"/>
     <path fill="rgb(255,255,255)" stroke="none" d="M 3024,21546 L 3340,20684 4990,20369 5209,21109 3024,21546 Z"/>
     <path fill="none" stroke="rgb(0,72,165)" d="M 3024,21546 L 3340,20684 4990,20369 5209,21109 3024,21546 Z"/>
    </g>
   </g>
   <g class="com.sun.star.drawing.PolyPolygonShape">
    <g id="id11">
     <rect class="BoundingBox" stroke="none" fill="none" x="3023" y="21109" width="2188" height="1625"/>
     <path fill="rgb(255,255,255)" stroke="none" d="M 3024,22732 L 3024,21547 5209,21110 5209,22295 4990,22202 3975,22120 3024,22732 Z"/>
     <path fill="none" stroke="rgb(0,72,165)" d="M 3024,22732 L 3024,21547 5209,21110 5209,22295 4990,22202 3975,22120 3024,22732 Z"/>
    </g>
   </g>
   <g class="com.sun.star.drawing.LineShape">
    <g id="id12">
     <rect class="BoundingBox" stroke="none" fill="none" x="2917" y="21004" width="2399" height="650"/>
     <path fill="none" stroke="rgb(255,255,255)" stroke-width="212" stroke-linejoin="round" stroke-linecap="round" d="M 5209,21110 L 3024,21547"/>
    </g>
   </g>
   <g class="com.sun.star.drawing.LineShape">
    <g id="id13">
     <rect class="BoundingBox" stroke="none" fill="none" x="2619" y="19911" width="1167" height="363"/>
     <path fill="none" stroke="rgb(0,72,165)" stroke-width="212" stroke-linejoin="round" stroke-linecap="round" d="M 2725,20167 L 3679,20017"/>
    </g>
   </g>
   <g class="com.sun.star.drawing.LineShape">
    <g id="id14">
     <rect class="BoundingBox" stroke="none" fill="none" x="3234" y="20142" width="1231" height="650"/>
     <path fill="none" stroke="rgb(0,72,165)" stroke-width="212" stroke-linejoin="round" stroke-linecap="round" d="M 3340,20685 L 4358,20248"/>
    </g>
   </g>
   <g class="com.sun.star.drawing.LineShape">
    <g id="id15">
     <rect class="BoundingBox" stroke="none" fill="none" x="3711" y="19474" width="731" height="881"/>
     <path fill="none" stroke="rgb(0,72,165)" stroke-width="212" stroke-linejoin="round" stroke-linecap="round" d="M 3817,19580 L 4335,20248"/>
    </g>
   </g>
   <g class="com.sun.star.drawing.LineShape">
    <g id="id16">
     <rect class="BoundingBox" stroke="none" fill="none" x="2619" y="20061" width="828" height="730"/>
     <path fill="none" stroke="rgb(0,72,165)" stroke-width="212" stroke-linejoin="round" stroke-linecap="round" d="M 2725,20167 L 3340,20684"/>
    </g>
   </g>
   <g class="com.sun.star.drawing.LineShape">
    <g id="id17">
     <rect class="BoundingBox" stroke="none" fill="none" x="4253" y="20142" width="845" height="335"/>
     <path fill="none" stroke="rgb(0,72,165)" stroke-width="212" stroke-linejoin="round" stroke-linecap="round" d="M 4359,20248 L 4991,20370"/>
    </g>
   </g>
   <g class="com.sun.star.drawing.LineShape">
    <g id="id18">
     <rect class="BoundingBox" stroke="none" fill="none" x="3234" y="20263" width="1863" height="528"/>
     <path fill="none" stroke="rgb(0,72,165)" stroke-width="212" stroke-linejoin="round" stroke-linecap="round" d="M 3340,20684 L 4990,20369"/>
    </g>
   </g>
   <g class="com.sun.star.drawing.LineShape">
    <g id="id19">
     <rect class="BoundingBox" stroke="none" fill="none" x="4885" y="20263" width="432" height="953"/>
     <path fill="none" stroke="rgb(0,72,165)" stroke-width="212" stroke-linejoin="round" stroke-linecap="round" d="M 4991,20369 L 5210,21109"/>
    </g>
   </g>
   <g class="com.sun.star.drawing.LineShape">
    <g id="id20">
     <rect class="BoundingBox" stroke="none" fill="none" x="2918" y="20578" width="529" height="1075"/>
     <path fill="none" stroke="rgb(0,72,165)" stroke-width="212" stroke-linejoin="round" stroke-linecap="round" d="M 3340,20684 L 3024,21546"/>
    </g>
   </g>
   <g class="com.sun.star.drawing.LineShape">
    <g id="id21">
     <rect class="BoundingBox" stroke="none" fill="none" x="2700" y="19474" width="1225" height="365"/>
     <path fill="none" stroke="rgb(0,72,165)" stroke-width="212" stroke-linejoin="round" stroke-linecap="round" d="M 3818,19580 L 2806,19732"/>
    </g>
   </g>
   <g class="com.sun.star.drawing.LineShape">
    <g id="id22">
     <rect class="BoundingBox" stroke="none" fill="none" x="1947" y="19911" width="529" height="926"/>
     <path fill="none" stroke="rgb(0,72,165)" stroke-width="212" stroke-linejoin="round" stroke-linecap="round" d="M 2369,20017 L 2053,20730"/>
    </g>
   </g>
   <g class="com.sun.star.drawing.LineShape">
    <g id="id23">
     <rect class="BoundingBox" stroke="none" fill="none" x="1947" y="20624" width="1185" height="1030"/>
     <path fill="none" stroke="rgb(0,72,165)" stroke-width="212" stroke-linejoin="round" stroke-linecap="round" d="M 2053,20730 L 3025,21547"/>
    </g>
   </g>
   <g class="com.sun.star.drawing.LineShape">
    <g id="id24">
     <rect class="BoundingBox" stroke="none" fill="none" x="2263" y="19911" width="569" height="363"/>
     <path fill="none" stroke="rgb(0,72,165)" stroke-width="212" stroke-linejoin="round" stroke-linecap="round" d="M 2369,20017 L 2725,20167"/>
    </g>
   </g>
   <g class="com.sun.star.drawing.LineShape">
    <g id="id25">
     <rect class="BoundingBox" stroke="none" fill="none" x="2263" y="19626" width="650" height="498"/>
     <path fill="none" stroke="rgb(0,72,165)" stroke-width="212" stroke-linejoin="round" stroke-linecap="round" d="M 2806,19732 L 2369,20017"/>
    </g>
   </g>
   <g class="com.sun.star.drawing.LineShape">
    <g id="id26">
     <rect class="BoundingBox" stroke="none" fill="none" x="3574" y="19474" width="351" height="650"/>
     <path fill="none" stroke="rgb(0,72,165)" stroke-width="212" stroke-linejoin="round" stroke-linecap="round" d="M 3680,20017 L 3818,19580"/>
    </g>
   </g>
   <g class="com.sun.star.drawing.LineShape">
    <g id="id27">
     <rect class="BoundingBox" stroke="none" fill="none" x="3574" y="19911" width="869" height="444"/>
     <path fill="none" stroke="rgb(0,72,165)" stroke-width="212" stroke-linejoin="round" stroke-linecap="round" d="M 3680,20017 L 4336,20248"/>
    </g>
   </g>
   <g class="com.sun.star.drawing.LineShape">
    <g id="id28">
     <rect class="BoundingBox" stroke="none" fill="none" x="1947" y="20624" width="213" height="1904"/>
     <path fill="none" stroke="rgb(0,72,165)" stroke-width="212" stroke-linejoin="round" stroke-linecap="round" d="M 2053,20730 L 2053,22421"/>
    </g>
   </g>
   <g class="com.sun.star.drawing.LineShape">
    <g id="id29">
     <rect class="BoundingBox" stroke="none" fill="none" x="2918" y="21441" width="213" height="1742"/>
     <path fill="none" stroke="rgb(0,72,165)" stroke-width="212" stroke-linejoin="round" stroke-linecap="round" d="M 3024,21547 L 3024,23076"/>
    </g>
   </g>
   <g class="com.sun.star.drawing.LineShape">
    <g id="id30">
     <rect class="BoundingBox" stroke="none" fill="none" x="5103" y="21004" width="213" height="1742"/>
     <path fill="none" stroke="rgb(0,72,165)" stroke-width="212" stroke-linejoin="round" stroke-linecap="round" d="M 5209,21110 L 5209,22639"/>
    </g>
   </g>
   <g class="com.sun.star.drawing.OpenBezierShape">
    <g id="id31">
     <rect class="BoundingBox" stroke="none" fill="none" x="1946" y="21867" width="3371" height="972"/>
     <path fill="none" stroke="rgb(0,72,165)" stroke-width="212" stroke-linejoin="round" stroke-linecap="round" d="M 2053,22077 C 2587,21639 3025,22732 3025,22732 3680,22076 4554,21973 5210,22295"/>
    </g>
   </g>
   <g class="com.sun.star.drawing.CustomShape">
    <g id="id32">
     <rect class="BoundingBox" stroke="none" fill="none" x="1835" y="22043" width="433" height="434"/>
     <path fill="rgb(255,255,255)" stroke="none" d="M 2161,22260 C 2161,22279 2156,22298 2146,22315 2137,22332 2123,22346 2106,22355 2089,22365 2070,22370 2051,22370 2032,22370 2013,22365 1996,22355 1979,22346 1965,22332 1956,22315 1946,22298 1941,22279 1941,22260 1941,22241 1946,22222 1956,22205 1965,22188 1979,22174 1996,22165 2013,22155 2032,22150 2051,22150 2070,22150 2089,22155 2106,22165 2123,22174 2137,22188 2146,22205 2156,22222 2161,22241 2161,22260 L 2161,22260 Z"/>
     <path fill="none" stroke="rgb(0,72,165)" stroke-width="212" stroke-linejoin="round" d="M 2161,22260 C 2161,22279 2156,22298 2146,22315 2137,22332 2123,22346 2106,22355 2089,22365 2070,22370 2051,22370 2032,22370 2013,22365 1996,22355 1979,22346 1965,22332 1956,22315 1946,22298 1941,22279 1941,22260 1941,22241 1946,22222 1956,22205 1965,22188 1979,22174 1996,22165 2013,22155 2032,22150 2051,22150 2070,22150 2089,22155 2106,22165 2123,22174 2137,22188 2146,22205 2156,22222 2161,22241 2161,22260 Z"/>
    </g>
   </g>
   <g class="com.sun.star.drawing.CustomShape">
    <g id="id33">
     <rect class="BoundingBox" stroke="none" fill="none" x="1835" y="22304" width="433" height="434"/>
     <path fill="rgb(255,255,255)" stroke="none" d="M 2051,22411 L 2161,22631 1941,22631 2051,22411 Z"/>
     <path fill="none" stroke="rgb(0,72,165)" stroke-width="212" stroke-linejoin="round" d="M 2051,22411 L 2161,22631 1941,22631 2051,22411 Z"/>
    </g>
   </g>
   <g class="com.sun.star.drawing.CustomShape">
    <g id="id34">
     <rect class="BoundingBox" stroke="none" fill="none" x="2815" y="22665" width="432" height="433"/>
     <path fill="rgb(255,255,255)" stroke="none" d="M 3140,22881 C 3140,22900 3135,22919 3125,22936 3116,22953 3102,22967 3085,22976 3069,22986 3050,22991 3031,22991 3011,22991 2992,22986 2976,22976 2959,22967 2945,22953 2936,22936 2926,22919 2921,22900 2921,22881 2921,22862 2926,22843 2936,22826 2945,22809 2959,22795 2976,22786 2992,22776 3011,22771 3031,22771 3050,22771 3069,22776 3085,22786 3102,22795 3116,22809 3125,22826 3135,22843 3140,22862 3140,22881 L 3140,22881 Z"/>
     <path fill="none" stroke="rgb(0,72,165)" stroke-width="212" stroke-linejoin="round" d="M 3140,22881 C 3140,22900 3135,22919 3125,22936 3116,22953 3102,22967 3085,22976 3069,22986 3050,22991 3031,22991 3011,22991 2992,22986 2976,22976 2959,22967 2945,22953 2936,22936 2926,22919 2921,22900 2921,22881 2921,22862 2926,22843 2936,22826 2945,22809 2959,22795 2976,22786 2992,22776 3011,22771 3031,22771 3050,22771 3069,22776 3085,22786 3102,22795 3116,22809 3125,22826 3135,22843 3140,22862 3140,22881 Z"/>
    </g>
   </g>
   <g class="com.sun.star.drawing.CustomShape">
    <g id="id35">
     <rect class="BoundingBox" stroke="none" fill="none" x="2815" y="22926" width="432" height="433"/>
     <path fill="rgb(255,255,255)" stroke="none" d="M 3030,23032 L 3140,23252 2921,23252 3030,23032 Z"/>
     <path fill="none" stroke="rgb(0,72,165)" stroke-width="212" stroke-linejoin="round" d="M 3030,23032 L 3140,23252 2921,23252 3030,23032 Z"/>
    </g>
   </g>
   <g class="com.sun.star.drawing.CustomShape">
    <g id="id36">
     <rect class="BoundingBox" stroke="none" fill="none" x="4986" y="22262" width="433" height="433"/>
     <path fill="rgb(255,255,255)" stroke="none" d="M 5312,22478 C 5312,22497 5307,22516 5297,22533 5288,22550 5274,22564 5257,22573 5240,22583 5221,22588 5202,22588 5183,22588 5164,22583 5147,22573 5130,22564 5116,22550 5107,22533 5097,22516 5092,22497 5092,22478 5092,22459 5097,22440 5107,22423 5116,22406 5130,22392 5147,22383 5164,22373 5183,22368 5202,22368 5221,22368 5240,22373 5257,22383 5274,22392 5288,22406 5297,22423 5307,22440 5312,22459 5312,22478 L 5312,22478 Z"/>
     <path fill="none" stroke="rgb(0,72,165)" stroke-width="212" stroke-linejoin="round" d="M 5312,22478 C 5312,22497 5307,22516 5297,22533 5288,22550 5274,22564 5257,22573 5240,22583 5221,22588 5202,22588 5183,22588 5164,22583 5147,22573 5130,22564 5116,22550 5107,22533 5097,22516 5092,22497 5092,22478 5092,22459 5097,22440 5107,22423 5116,22406 5130,22392 5147,22383 5164,22373 5183,22368 5202,22368 5221,22368 5240,22373 5257,22383 5274,22392 5288,22406 5297,22423 5307,22440 5312,22459 5312,22478 Z"/>
    </g>
   </g>
   <g class="com.sun.star.drawing.CustomShape">
    <g id="id37">
     <rect class="BoundingBox" stroke="none" fill="none" x="4986" y="22525" width="433" height="432"/>
     <path fill="rgb(255,255,255)" stroke="none" d="M 5202,22631 L 5312,22850 5092,22850 5202,22631 Z"/>
     <path fill="none" stroke="rgb(0,72,165)" stroke-width="212" stroke-linejoin="round" d="M 5202,22631 L 5312,22850 5092,22850 5202,22631 Z"/>
    </g>
   </g>
  </g>
  <g class="com.sun.star.drawing.CustomShape">
   <g id="id38">
    <rect class="BoundingBox" stroke="none" fill="none" x="5969" y="20802" width="13707" height="1171"/>
    <path fill="rgb(30,136,229)" stroke="none" d="M 6838,21596 L 6837,21621 6835,21645 6831,21669 6826,21691 6819,21714 6810,21735 6800,21756 6788,21777 6775,21796 6760,21815 6744,21831 6726,21848 6707,21863 6687,21876 6665,21890 6642,21901 6618,21911 6593,21921 6566,21928 6539,21934 6510,21939 6480,21942 6449,21944 6417,21945 6379,21944 6343,21941 6308,21937 6275,21930 6244,21922 6214,21911 6186,21899 6160,21885 6142,21873 6126,21861 6109,21848 6094,21833 6080,21818 6066,21801 6054,21785 6042,21766 6031,21748 6022,21729 6014,21711 6008,21693 6003,21675 5999,21657 5997,21639 5996,21621 5997,21610 5997,21605 5998,21600 5999,21594 6001,21589 6002,21584 6004,21580 6008,21571 6014,21561 6020,21553 6027,21545 6035,21538 6043,21531 6047,21528 6052,21525 6057,21522 6061,21520 6066,21518 6071,21517 6076,21515 6082,21514 6093,21513 6104,21512 6113,21512 6123,21514 6131,21516 6135,21517 6139,21518 6143,21520 6147,21522 6154,21526 6161,21532 6168,21538 6174,21544 6181,21551 6186,21559 6192,21568 6197,21576 6203,21586 6207,21595 6212,21607 6221,21630 6231,21652 6242,21672 6247,21680 6252,21688 6258,21696 6264,21704 6270,21710 6277,21717 6285,21723 6293,21729 6302,21734 6311,21740 6321,21745 6331,21748 6343,21752 6355,21754 6368,21756 6382,21758 6396,21759 6412,21759 6433,21758 6453,21757 6472,21754 6490,21749 6507,21744 6523,21736 6537,21728 6551,21719 6563,21709 6569,21704 6574,21697 6579,21692 6583,21686 6587,21680 6591,21674 6594,21668 6596,21661 6599,21654 6601,21648 6602,21641 6603,21634 6604,21626 6604,21619 6604,21608 6602,21598 6600,21587 6597,21578 6595,21573 6593,21569 6591,21564 6588,21559 6585,21555 6583,21551 6579,21548 6576,21544 6569,21537 6561,21531 6553,21524 6544,21518 6534,21513 6524,21508 6513,21503 6502,21499 6476,21490 6446,21482 6373,21464 6319,21449 6270,21434 6225,21417 6205,21409 6185,21400 6166,21391 6149,21379 6132,21368 6116,21356 6101,21342 6087,21329 6074,21313 6062,21298 6051,21281 6042,21264 6034,21245 6027,21226 6022,21205 6019,21184 6017,21161 6016,21137 6017,21115 6019,21093 6023,21071 6028,21051 6035,21031 6043,21012 6053,20993 6064,20975 6077,20957 6091,20942 6106,20926 6123,20912 6141,20900 6160,20887 6181,20877 6203,20867 6226,20857 6250,20850 6275,20844 6301,20838 6328,20834 6356,20831 6385,20830 6415,20829 6439,20829 6461,20830 6483,20832 6505,20835 6525,20838 6545,20842 6564,20847 6582,20853 6599,20859 6616,20867 6632,20874 6647,20882 6662,20891 6676,20901 6689,20910 6701,20920 6712,20930 6723,20942 6733,20952 6742,20963 6751,20975 6758,20986 6765,20997 6771,21009 6776,21020 6781,21031 6785,21044 6788,21055 6790,21066 6792,21078 6793,21088 6793,21099 6793,21111 6791,21121 6789,21131 6786,21141 6781,21151 6776,21160 6770,21169 6763,21179 6755,21187 6751,21191 6747,21194 6743,21197 6738,21200 6734,21202 6729,21205 6724,21207 6719,21208 6714,21210 6709,21211 6704,21212 6698,21212 6687,21214 6677,21214 6667,21212 6658,21210 6650,21208 6646,21207 6643,21205 6639,21204 6636,21202 6633,21200 6630,21198 6627,21196 6624,21193 6619,21187 6613,21181 6608,21174 6603,21166 6597,21158 6592,21150 6586,21140 6581,21130 6574,21116 6566,21102 6559,21090 6551,21079 6543,21067 6534,21058 6526,21049 6517,21041 6512,21036 6507,21033 6502,21030 6496,21027 6490,21024 6484,21022 6470,21018 6455,21014 6439,21012 6421,21010 6401,21010 6382,21011 6365,21012 6348,21015 6333,21018 6318,21023 6305,21028 6293,21035 6281,21043 6271,21051 6262,21059 6258,21064 6254,21068 6251,21072 6248,21078 6245,21082 6243,21087 6241,21092 6240,21097 6239,21102 6238,21107 6237,21113 6237,21118 6237,21124 6238,21130 6239,21136 6240,21142 6242,21149 6245,21154 6248,21159 6251,21164 6255,21169 6259,21173 6264,21179 6269,21183 6274,21187 6280,21191 6286,21195 6293,21199 6307,21206 6321,21212 6335,21219 6349,21224 6366,21229 6389,21235 6450,21252 6491,21262 6531,21273 6569,21285 6606,21297 6623,21303 6640,21310 6657,21317 6672,21326 6687,21334 6701,21342 6715,21351 6728,21361 6740,21370 6752,21380 6763,21392 6774,21403 6784,21415 6793,21428 6801,21441 6809,21455 6816,21470 6822,21486 6827,21503 6831,21520 6834,21538 6836,21557 6838,21576 6838,21596 Z M 7012,21800 L 7012,20972 7013,20955 7014,20939 7017,20924 7020,20910 7025,20897 7028,20891 7031,20886 7034,20880 7037,20875 7041,20871 7045,20866 7049,20861 7053,20857 7058,20853 7062,20849 7067,20846 7072,20843 7077,20841 7082,20838 7088,20836 7093,20834 7099,20833 7105,20831 7117,20830 7129,20829 7142,20830 7155,20831 7161,20833 7167,20834 7172,20836 7178,20838 7183,20841 7188,20843 7193,20846 7198,20849 7203,20853 7207,20857 7212,20861 7216,20866 7220,20871 7224,20875 7227,20880 7230,20886 7233,20891 7236,20897 7241,20910 7244,20924 7247,20939 7248,20955 7249,20972 7249,21800 7248,21818 7247,21833 7244,21849 7241,21863 7236,21875 7233,21882 7230,21888 7227,21893 7224,21898 7220,21903 7216,21908 7212,21913 7207,21917 7203,21921 7198,21925 7193,21928 7188,21931 7183,21934 7178,21936 7172,21938 7167,21940 7161,21941 7155,21943 7142,21944 7129,21945 7117,21944 7105,21943 7099,21941 7093,21940 7088,21938 7083,21936 7077,21934 7072,21931 7067,21928 7063,21925 7058,21921 7054,21917 7045,21908 7041,21903 7037,21898 7034,21893 7031,21888 7028,21882 7025,21875 7020,21863 7017,21849 7014,21833 7013,21818 7012,21800 Z M 7692,20972 L 7692,21723 8097,21723 8111,21723 8124,21725 8136,21727 8147,21730 8158,21734 8163,21736 8168,21740 8172,21742 8177,21745 8181,21749 8185,21752 8189,21756 8192,21759 8196,21763 8199,21767 8201,21771 8204,21776 8206,21781 8208,21785 8210,21790 8212,21794 8213,21799 8214,21804 8216,21815 8216,21826 8216,21837 8214,21848 8213,21853 8212,21858 8210,21862 8208,21867 8206,21871 8204,21876 8201,21881 8198,21885 8195,21889 8192,21893 8189,21896 8185,21900 8181,21903 8177,21906 8173,21909 8168,21913 8163,21915 8158,21918 8148,21921 8136,21924 8124,21926 8111,21928 8097,21928 7597,21928 7579,21927 7563,21926 7547,21923 7533,21920 7527,21917 7520,21915 7514,21911 7509,21908 7503,21905 7498,21901 7493,21897 7489,21893 7485,21889 7481,21884 7477,21879 7474,21872 7471,21867 7468,21861 7466,21854 7463,21848 7460,21833 7457,21817 7456,21800 7455,21782 7455,20972 7455,20955 7457,20939 7459,20924 7463,20911 7467,20897 7470,20891 7473,20886 7476,20881 7479,20875 7483,20871 7487,20866 7491,20861 7495,20857 7500,20853 7504,20849 7509,20846 7514,20843 7519,20840 7524,20838 7530,20836 7535,20834 7541,20833 7547,20831 7559,20830 7572,20829 7585,20830 7598,20831 7604,20833 7610,20834 7615,20836 7621,20838 7626,20841 7631,20843 7636,20846 7641,20849 7646,20853 7650,20857 7655,20861 7659,20866 7663,20871 7667,20875 7670,20880 7673,20886 7676,20891 7679,20897 7684,20910 7687,20924 7690,20939 7691,20955 7692,20972 Z M 8578,20973 L 8578,21326 8959,20894 8974,20879 8987,20866 9000,20854 9006,20849 9012,20845 9015,20843 9018,20841 9025,20838 9032,20835 9039,20833 9047,20831 9056,20830 9065,20829 9075,20829 9087,20829 9099,20831 9110,20833 9121,20836 9126,20838 9131,20840 9135,20843 9140,20846 9144,20849 9149,20852 9157,20859 9165,20868 9171,20876 9174,20880 9177,20885 9179,20889 9181,20894 9183,20899 9185,20904 9186,20909 9187,20914 9188,20919 9189,20924 9189,20936 9189,20942 9188,20949 9187,20955 9186,20961 9184,20969 9182,20975 9179,20982 9176,20988 9169,21001 9160,21014 9150,21027 9138,21040 8891,21275 9169,21685 9188,21710 9203,21733 9210,21744 9216,21754 9221,21764 9226,21774 9230,21783 9233,21791 9236,21800 9238,21810 9240,21818 9241,21826 9242,21835 9242,21844 9242,21854 9241,21859 9240,21864 9239,21868 9238,21873 9236,21878 9234,21883 9232,21887 9230,21891 9227,21895 9225,21899 9218,21907 9211,21916 9207,21919 9203,21923 9198,21926 9194,21929 9184,21934 9174,21938 9164,21941 9152,21943 9140,21945 9128,21945 9116,21945 9105,21944 9094,21942 9084,21940 9075,21937 9066,21933 9057,21929 9049,21924 9042,21919 9035,21913 9028,21906 9021,21899 9015,21892 9009,21885 9003,21876 8998,21868 8963,21809 8731,21432 8578,21590 8578,21800 8577,21818 8576,21834 8573,21850 8570,21864 8567,21870 8565,21876 8562,21883 8559,21889 8556,21894 8552,21899 8548,21904 8544,21908 8540,21913 8535,21917 8531,21921 8526,21925 8521,21928 8516,21931 8511,21934 8506,21936 8500,21938 8495,21940 8489,21941 8483,21943 8471,21944 8458,21945 8451,21945 8443,21944 8436,21943 8428,21941 8421,21939 8414,21936 8407,21933 8400,21929 8393,21925 8387,21920 8381,21915 8375,21909 8370,21903 8365,21897 8360,21890 8356,21883 8353,21878 8351,21871 8349,21865 8347,21860 8346,21853 8345,21847 8344,21840 8343,21833 8342,21818 8341,21799 8341,21754 8341,20972 8341,20955 8343,20939 8345,20924 8349,20911 8353,20897 8356,20891 8358,20886 8361,20881 8365,20875 8368,20871 8372,20866 8376,20861 8380,20857 8385,20853 8389,20849 8394,20846 8399,20843 8404,20840 8409,20838 8415,20836 8421,20834 8426,20833 8432,20831 8445,20830 8458,20829 8471,20830 8484,20831 8490,20833 8496,20834 8501,20836 8507,20838 8512,20841 8517,20843 8522,20846 8527,20849 8532,20853 8536,20857 8541,20861 8545,20866 8549,20871 8553,20875 8556,20880 8559,20886 8562,20891 8565,20897 8570,20911 8573,20924 8576,20940 8577,20955 8578,20973 Z M 10077,21478 L 10019,21478 10019,21800 10018,21818 10017,21834 10014,21850 10011,21864 10006,21876 10003,21883 10000,21889 9997,21894 9994,21899 9990,21904 9986,21909 9977,21918 9973,21922 9968,21925 9964,21928 9959,21931 9954,21934 9948,21936 9943,21938 9937,21940 9932,21942 9926,21943 9914,21944 9901,21945 9887,21944 9874,21943 9868,21941 9862,21940 9856,21938 9851,21936 9845,21933 9840,21931 9835,21928 9830,21924 9826,21921 9821,21917 9817,21913 9813,21907 9809,21902 9806,21897 9802,21892 9799,21887 9797,21881 9794,21874 9790,21862 9786,21848 9784,21833 9782,21817 9782,21800 9782,20992 9783,20974 9784,20957 9787,20942 9790,20927 9793,20920 9795,20914 9798,20908 9801,20903 9804,20896 9808,20891 9812,20886 9816,20882 9820,20878 9825,20874 9830,20870 9836,20867 9841,20864 9847,20860 9854,20858 9860,20855 9874,20852 9890,20849 9906,20848 9924,20847 10261,20847 10294,20847 10326,20848 10355,20850 10382,20853 10395,20855 10408,20857 10420,20860 10433,20864 10445,20868 10458,20872 10470,20877 10482,20882 10493,20887 10504,20893 10514,20900 10525,20907 10535,20914 10545,20923 10556,20931 10566,20942 10575,20952 10584,20963 10593,20975 10600,20986 10607,20998 10614,21011 10620,21024 10625,21037 10630,21051 10634,21064 10637,21079 10640,21093 10642,21106 10644,21121 10645,21136 10645,21151 10644,21181 10641,21209 10635,21236 10628,21262 10618,21286 10613,21297 10607,21308 10600,21319 10593,21329 10585,21339 10577,21348 10559,21366 10539,21382 10517,21397 10494,21409 10470,21420 10443,21430 10415,21438 10385,21444 10391,21446 10397,21448 10410,21453 10422,21461 10435,21469 10448,21478 10461,21489 10473,21502 10486,21516 10511,21547 10534,21578 10557,21611 10578,21644 10597,21677 10613,21708 10628,21738 10640,21766 10650,21792 10657,21814 10660,21823 10662,21831 10663,21838 10663,21841 10663,21845 10663,21851 10662,21857 10661,21863 10659,21869 10657,21875 10655,21882 10652,21888 10648,21894 10644,21900 10640,21905 10635,21910 10630,21916 10625,21921 10619,21925 10613,21928 10607,21932 10601,21935 10594,21938 10587,21940 10580,21942 10573,21943 10565,21944 10557,21945 10549,21945 10538,21945 10529,21944 10520,21942 10511,21941 10503,21938 10495,21935 10488,21931 10481,21927 10469,21917 10463,21911 10457,21905 10452,21900 10447,21894 10442,21887 10437,21881 10389,21802 10304,21641 10264,21588 10246,21566 10229,21545 10221,21536 10212,21528 10204,21519 10196,21513 10187,21507 10179,21501 10170,21497 10162,21493 10153,21489 10144,21486 10134,21484 10124,21482 10113,21480 10102,21479 10090,21478 10077,21478 Z M 10195,21036 L 10019,21036 10019,21296 10190,21296 10225,21295 10256,21293 10271,21291 10285,21289 10298,21287 10310,21284 10322,21280 10332,21276 10342,21272 10352,21267 10360,21262 10368,21257 10375,21251 10378,21246 10381,21243 10384,21239 10386,21236 10391,21228 10395,21219 10399,21209 10401,21199 10403,21188 10405,21176 10405,21164 10405,21155 10404,21146 10402,21136 10400,21127 10398,21119 10394,21111 10391,21102 10386,21095 10381,21088 10375,21081 10369,21075 10363,21069 10356,21064 10348,21059 10340,21055 10332,21051 10328,21049 10323,21048 10311,21045 10297,21043 10281,21041 10242,21037 10195,21036 Z M 11296,20829 L 11336,20830 11374,20833 11411,20838 11447,20846 11482,20855 11515,20868 11547,20881 11577,20897 11606,20916 11632,20936 11657,20957 11680,20980 11702,21005 11721,21031 11739,21060 11755,21091 11769,21123 11781,21157 11792,21192 11800,21228 11807,21265 11811,21304 11814,21344 11815,21385 11814,21416 11813,21446 11810,21475 11807,21504 11802,21532 11796,21559 11790,21586 11782,21612 11773,21638 11764,21661 11753,21685 11741,21708 11728,21729 11714,21751 11699,21770 11683,21790 11666,21809 11648,21826 11629,21841 11609,21857 11588,21870 11566,21883 11544,21895 11520,21905 11496,21915 11470,21923 11443,21930 11416,21935 11388,21940 11360,21943 11330,21944 11300,21945 11269,21944 11240,21943 11211,21939 11183,21935 11156,21930 11129,21923 11104,21914 11079,21904 11055,21894 11032,21882 11010,21869 10990,21855 10970,21840 10951,21824 10933,21808 10916,21789 10900,21769 10885,21750 10871,21728 10858,21707 10846,21683 10836,21659 10826,21635 10817,21609 10809,21582 10803,21555 10797,21529 10792,21501 10789,21472 10786,21443 10785,21413 10784,21383 10785,21352 10786,21323 10789,21294 10793,21265 10798,21237 10804,21209 10811,21183 10819,21157 10828,21131 10838,21107 10849,21084 10861,21061 10874,21040 10888,21019 10903,20998 10919,20980 10936,20962 10954,20945 10973,20929 10993,20915 11014,20902 11035,20889 11058,20878 11081,20868 11105,20858 11130,20851 11156,20844 11182,20839 11210,20834 11238,20831 11266,20830 11296,20829 Z M 11576,21383 L 11575,21356 11574,21330 11571,21304 11567,21279 11562,21256 11556,21233 11549,21211 11541,21191 11532,21171 11522,21153 11511,21135 11499,21120 11487,21104 11473,21091 11458,21080 11442,21068 11426,21059 11409,21051 11392,21044 11374,21037 11355,21033 11336,21030 11316,21028 11296,21027 11281,21027 11267,21028 11253,21030 11239,21032 11225,21035 11212,21040 11200,21045 11187,21050 11175,21056 11163,21062 11152,21069 11141,21078 11130,21086 11120,21095 11110,21105 11101,21116 11092,21127 11084,21139 11076,21152 11069,21165 11062,21180 11055,21195 11049,21211 11044,21228 11039,21245 11035,21263 11031,21282 11028,21301 11026,21321 11024,21341 11023,21362 11023,21383 11024,21427 11026,21447 11028,21467 11031,21486 11035,21506 11039,21524 11044,21542 11050,21559 11056,21576 11063,21591 11070,21606 11078,21620 11086,21634 11095,21646 11104,21657 11114,21669 11124,21678 11134,21687 11144,21696 11155,21705 11166,21712 11178,21718 11190,21724 11202,21729 11215,21734 11228,21738 11242,21741 11255,21744 11269,21746 11283,21747 11298,21747 11317,21746 11335,21745 11353,21742 11371,21738 11388,21732 11404,21725 11420,21718 11436,21709 11451,21698 11467,21687 11481,21674 11494,21659 11506,21643 11518,21625 11528,21607 11538,21587 11547,21566 11554,21544 11561,21520 11566,21496 11571,21469 11574,21442 11575,21413 11576,21383 Z M 12886,21580 L 12886,21593 12884,21607 12883,21621 12880,21635 12876,21649 12872,21664 12867,21679 12861,21694 12854,21710 12847,21725 12838,21741 12829,21755 12818,21770 12807,21785 12795,21800 12782,21815 12768,21829 12753,21843 12738,21855 12721,21867 12703,21879 12685,21890 12665,21900 12645,21909 12624,21918 12602,21925 12579,21931 12556,21936 12531,21940 12506,21943 12480,21944 12453,21945 12412,21944 12373,21941 12354,21939 12336,21936 12318,21933 12301,21929 12284,21925 12268,21920 12252,21915 12236,21908 12221,21902 12206,21895 12191,21887 12177,21879 12163,21869 12149,21859 12136,21848 12122,21835 12109,21822 12096,21806 12083,21791 12071,21774 12062,21764 12053,21754 12044,21743 12035,21730 12026,21718 12018,21704 12010,21689 12003,21674 11996,21658 11989,21642 11978,21609 11968,21575 11960,21540 11954,21504 11949,21467 11946,21428 11945,21389 11946,21357 11947,21325 11950,21295 11954,21265 11960,21236 11966,21208 11973,21182 11982,21156 11992,21131 12002,21106 12014,21083 12026,21060 12040,21039 12055,21018 12070,20998 12087,20980 12105,20962 12123,20945 12142,20929 12162,20915 12183,20902 12204,20889 12226,20878 12249,20868 12272,20858 12296,20851 12320,20844 12345,20839 12371,20834 12396,20831 12421,20830 12447,20829 12479,20830 12510,20832 12539,20836 12568,20842 12596,20849 12623,20858 12650,20869 12675,20881 12699,20894 12722,20909 12743,20924 12763,20940 12782,20957 12799,20975 12815,20992 12829,21012 12842,21031 12853,21050 12862,21069 12870,21088 12875,21106 12880,21125 12882,21144 12883,21161 12883,21171 12881,21182 12879,21192 12876,21201 12872,21210 12867,21220 12861,21228 12854,21236 12846,21243 12839,21251 12835,21254 12830,21256 12826,21259 12822,21261 12817,21263 12812,21264 12808,21266 12803,21267 12798,21268 12793,21268 12782,21269 12771,21269 12761,21268 12751,21266 12742,21264 12738,21263 12734,21261 12730,21259 12727,21257 12723,21255 12720,21253 12717,21251 12714,21247 12708,21241 12702,21234 12696,21227 12690,21218 12684,21208 12678,21198 12665,21174 12655,21157 12645,21139 12634,21124 12623,21110 12612,21096 12600,21084 12588,21072 12575,21063 12562,21055 12548,21048 12533,21042 12518,21036 12502,21032 12485,21029 12467,21028 12449,21027 12434,21027 12420,21028 12406,21030 12392,21033 12379,21036 12365,21041 12352,21046 12340,21051 12328,21057 12317,21064 12306,21072 12295,21081 12285,21090 12275,21100 12265,21111 12256,21122 12247,21134 12239,21147 12232,21160 12225,21174 12212,21204 12202,21237 12194,21273 12189,21311 12185,21351 12184,21395 12185,21425 12186,21452 12189,21479 12192,21505 12197,21530 12202,21552 12209,21573 12216,21593 12224,21612 12233,21629 12243,21646 12254,21661 12265,21675 12278,21687 12291,21698 12305,21709 12320,21718 12335,21725 12351,21731 12369,21738 12386,21742 12404,21745 12423,21746 12442,21747 12463,21746 12482,21744 12501,21741 12520,21736 12537,21730 12553,21723 12569,21715 12584,21705 12598,21693 12611,21681 12624,21666 12635,21650 12646,21634 12656,21615 12665,21594 12673,21573 12676,21564 12680,21554 12684,21545 12688,21536 12692,21528 12697,21519 12703,21511 12708,21504 12711,21500 12714,21497 12717,21494 12721,21490 12725,21487 12729,21485 12733,21483 12737,21481 12742,21479 12747,21477 12752,21476 12757,21475 12769,21473 12781,21473 12792,21473 12802,21475 12812,21477 12816,21479 12821,21480 12826,21482 12830,21484 12834,21487 12839,21490 12847,21497 12855,21504 12862,21512 12869,21520 12871,21524 12874,21530 12876,21534 12878,21539 12880,21543 12882,21548 12883,21553 12884,21558 12886,21569 12886,21580 Z M 13304,20973 L 13304,21326 13684,20894 13699,20879 13712,20866 13725,20854 13731,20849 13737,20845 13740,20843 13743,20841 13750,20838 13757,20835 13764,20833 13772,20831 13781,20830 13790,20829 13800,20829 13812,20829 13824,20831 13835,20833 13846,20836 13851,20838 13856,20840 13860,20843 13865,20846 13869,20849 13874,20852 13882,20859 13890,20868 13896,20876 13899,20880 13902,20885 13904,20889 13906,20894 13908,20899 13910,20904 13911,20909 13912,20914 13913,20919 13914,20924 13914,20936 13914,20942 13913,20949 13912,20955 13911,20961 13909,20969 13907,20975 13904,20982 13901,20988 13894,21001 13885,21014 13875,21027 13863,21040 13616,21275 13894,21685 13913,21710 13928,21733 13935,21744 13941,21754 13946,21764 13951,21774 13955,21783 13958,21791 13961,21800 13963,21810 13965,21818 13966,21826 13967,21835 13967,21844 13967,21854 13966,21859 13965,21864 13964,21868 13963,21873 13961,21878 13959,21883 13957,21887 13955,21891 13952,21895 13950,21899 13943,21907 13936,21916 13932,21919 13928,21923 13923,21926 13919,21929 13909,21934 13899,21938 13889,21941 13877,21943 13865,21945 13853,21945 13841,21945 13830,21944 13819,21942 13809,21940 13800,21937 13791,21933 13782,21929 13774,21924 13767,21919 13760,21913 13753,21906 13746,21899 13740,21892 13734,21885 13728,21876 13723,21868 13688,21809 13456,21432 13304,21590 13304,21800 13303,21818 13302,21834 13299,21850 13296,21864 13293,21870 13291,21876 13288,21883 13285,21889 13282,21894 13277,21899 13273,21904 13269,21908 13265,21913 13260,21917 13256,21921 13251,21925 13246,21928 13241,21931 13236,21934 13231,21936 13225,21938 13220,21940 13214,21941 13208,21943 13196,21944 13183,21945 13176,21945 13168,21944 13161,21943 13153,21941 13146,21939 13139,21936 13132,21933 13125,21929 13118,21925 13112,21920 13106,21915 13100,21909 13095,21903 13090,21897 13085,21890 13081,21883 13078,21878 13076,21871 13074,21865 13072,21860 13071,21853 13070,21847 13069,21840 13068,21833 13067,21818 13066,21799 13066,21754 13066,20972 13066,20955 13068,20939 13070,20924 13074,20911 13078,20897 13081,20891 13083,20886 13086,20881 13090,20875 13093,20871 13097,20866 13101,20861 13105,20857 13110,20853 13114,20849 13119,20846 13124,20843 13129,20840 13134,20838 13140,20836 13146,20834 13151,20833 13157,20831 13170,20830 13183,20829 13196,20830 13209,20831 13215,20833 13221,20834 13226,20836 13232,20838 13237,20841 13242,20843 13247,20846 13252,20849 13257,20853 13261,20857 13266,20861 13270,20866 13274,20871 13279,20875 13282,20880 13285,20886 13288,20891 13291,20897 13296,20911 13299,20924 13302,20940 13303,20955 13304,20973 Z M 15472,21485 L 15472,21686 15471,21707 15471,21716 15470,21725 15468,21733 15467,21742 15465,21749 15463,21756 15461,21763 15458,21769 15455,21776 15451,21782 15447,21788 15442,21793 15437,21799 15432,21804 15426,21810 15420,21815 15407,21825 15392,21835 15376,21845 15329,21869 15284,21890 15238,21907 15216,21916 15194,21922 15172,21927 15149,21932 15126,21936 15103,21939 15053,21944 15003,21945 14973,21944 14944,21943 14915,21940 14887,21936 14860,21931 14834,21924 14808,21917 14783,21907 14758,21897 14735,21886 14712,21873 14690,21860 14670,21846 14650,21830 14631,21813 14613,21795 14596,21777 14580,21757 14565,21736 14551,21714 14538,21692 14526,21669 14515,21644 14505,21618 14496,21591 14489,21565 14482,21537 14477,21508 14472,21479 14469,21449 14468,21418 14467,21386 14468,21356 14469,21325 14472,21296 14476,21266 14481,21238 14487,21210 14494,21184 14503,21157 14513,21131 14524,21106 14535,21083 14548,21060 14562,21039 14578,21018 14594,20998 14611,20980 14629,20962 14649,20945 14669,20929 14690,20915 14712,20902 14735,20889 14759,20878 14784,20868 14810,20858 14837,20851 14864,20844 14892,20839 14921,20834 14951,20831 14982,20830 15014,20829 15040,20829 15065,20831 15090,20833 15114,20836 15137,20840 15160,20845 15181,20850 15202,20857 15222,20865 15241,20873 15259,20882 15276,20891 15293,20901 15308,20911 15323,20921 15336,20932 15349,20944 15360,20955 15371,20966 15381,20979 15391,20991 15399,21004 15407,21016 15414,21028 15420,21041 15426,21053 15430,21065 15434,21077 15437,21088 15439,21098 15441,21110 15441,21120 15440,21131 15440,21136 15439,21142 15438,21148 15436,21153 15434,21158 15432,21163 15430,21168 15428,21172 15425,21177 15422,21182 15415,21191 15407,21199 15398,21206 15390,21214 15380,21219 15371,21224 15366,21226 15361,21227 15350,21230 15339,21231 15328,21232 15321,21232 15315,21231 15308,21230 15302,21229 15296,21227 15290,21225 15284,21223 15278,21220 15272,21217 15267,21212 15261,21208 15256,21204 15251,21200 15247,21195 15242,21189 15238,21184 15220,21156 15203,21131 15188,21110 15175,21093 15169,21086 15162,21079 15154,21071 15146,21065 15137,21059 15128,21053 15118,21048 15108,21043 15096,21037 15084,21033 15072,21030 15058,21027 15045,21025 15030,21023 15015,21022 14999,21022 14982,21022 14965,21023 14949,21025 14934,21028 14918,21031 14904,21035 14890,21041 14876,21046 14863,21052 14850,21059 14838,21067 14827,21076 14815,21085 14805,21094 14795,21104 14785,21116 14776,21127 14767,21140 14759,21153 14752,21167 14745,21182 14738,21197 14732,21214 14727,21230 14722,21247 14718,21265 14714,21284 14711,21302 14709,21321 14707,21340 14706,21360 14706,21380 14707,21425 14711,21466 14717,21504 14726,21540 14737,21573 14743,21588 14751,21604 14758,21617 14767,21631 14775,21644 14785,21656 14795,21668 14806,21679 14817,21688 14828,21697 14840,21707 14853,21714 14866,21721 14879,21727 14893,21732 14907,21738 14922,21742 14938,21745 14970,21750 15004,21751 15021,21751 15038,21750 15055,21748 15071,21747 15088,21744 15105,21741 15120,21736 15136,21732 15166,21722 15196,21711 15225,21697 15253,21683 15253,21536 15108,21536 15092,21536 15077,21535 15064,21533 15051,21531 15039,21528 15028,21524 15018,21520 15009,21515 15005,21512 15001,21509 14997,21506 14994,21503 14990,21499 14988,21495 14985,21490 14983,21486 14981,21481 14979,21476 14977,21471 14976,21466 14975,21461 14975,21454 14974,21442 14974,21432 14975,21427 14976,21423 14977,21417 14978,21413 14980,21408 14982,21404 14984,21400 14986,21396 14988,21392 14991,21388 14994,21383 14997,21380 15004,21373 15008,21370 15012,21367 15016,21364 15020,21362 15024,21359 15028,21357 15038,21352 15048,21350 15058,21348 15069,21346 15081,21346 15317,21346 15339,21347 15359,21348 15378,21351 15396,21356 15404,21358 15412,21362 15419,21365 15427,21370 15433,21375 15439,21381 15445,21389 15451,21396 15454,21400 15456,21404 15458,21408 15460,21413 15464,21424 15467,21434 15469,21445 15471,21458 15472,21471 15472,21485 Z M 16264,21804 L 16217,21677 15822,21677 15777,21801 15762,21839 15749,21870 15742,21884 15736,21895 15730,21905 15724,21915 15721,21919 15718,21922 15715,21925 15711,21928 15707,21931 15703,21933 15698,21936 15694,21938 15689,21939 15684,21941 15673,21943 15661,21945 15648,21945 15637,21944 15626,21943 15616,21940 15605,21937 15596,21932 15586,21926 15577,21920 15568,21911 15560,21903 15556,21899 15553,21894 15550,21890 15547,21885 15545,21881 15542,21875 15540,21870 15539,21865 15537,21861 15536,21856 15535,21851 15535,21845 15534,21834 15534,21828 15534,21822 15535,21816 15536,21811 15537,21804 15538,21798 15539,21793 15541,21787 15565,21720 15826,21037 15853,20966 15861,20947 15870,20928 15879,20911 15883,20903 15888,20895 15893,20888 15898,20881 15904,20875 15910,20869 15917,20862 15924,20857 15931,20852 15939,20847 15947,20843 15956,20839 15965,20836 15975,20833 15985,20831 15996,20830 16007,20829 16019,20829 16031,20829 16042,20830 16053,20831 16063,20833 16073,20836 16082,20839 16091,20843 16099,20847 16107,20852 16114,20857 16121,20862 16128,20869 16134,20875 16140,20882 16145,20888 16150,20895 16159,20910 16168,20923 16175,20938 16178,20945 16181,20952 16210,21029 16480,21715 16494,21752 16499,21769 16504,21785 16507,21798 16510,21811 16511,21822 16512,21832 16512,21837 16511,21843 16511,21848 16510,21853 16509,21858 16507,21863 16506,21868 16504,21873 16501,21879 16499,21883 16493,21892 16486,21901 16478,21910 16469,21919 16460,21926 16455,21929 16450,21932 16445,21934 16440,21937 16435,21939 16430,21940 16425,21942 16419,21943 16408,21944 16396,21945 16389,21945 16382,21944 16376,21944 16370,21943 16364,21941 16358,21940 16352,21937 16347,21935 16342,21932 16338,21929 16333,21926 16329,21923 16325,21920 16321,21916 16317,21911 16314,21907 16311,21902 16307,21897 16304,21892 16300,21885 16293,21870 16286,21854 16279,21837 16273,21824 16268,21813 16264,21804 Z M 15881,21487 L 16157,21487 16018,21083 15881,21487 Z M 17001,21739 L 16866,21099 16866,21810 16866,21826 16864,21840 16862,21855 16859,21868 16854,21880 16852,21886 16849,21891 16846,21896 16843,21901 16840,21906 16836,21910 16832,21915 16828,21919 16824,21923 16820,21926 16815,21929 16811,21932 16806,21934 16801,21937 16796,21939 16791,21940 16785,21942 16780,21943 16768,21944 16756,21945 16744,21944 16733,21943 16727,21942 16722,21940 16717,21939 16712,21937 16707,21935 16702,21932 16697,21929 16693,21926 16688,21923 16684,21920 16676,21911 16672,21907 16669,21902 16666,21897 16663,21892 16660,21887 16658,21882 16654,21869 16650,21856 16648,21841 16646,21826 16646,21810 16646,20978 16647,20959 16649,20943 16650,20936 16652,20928 16654,20921 16656,20914 16659,20908 16662,20903 16665,20896 16669,20891 16672,20887 16677,20882 16681,20879 16686,20875 16696,20869 16707,20862 16719,20858 16732,20854 16745,20851 16759,20849 16774,20847 16790,20847 16854,20847 16882,20848 16895,20849 16907,20850 16918,20852 16929,20854 16938,20856 16946,20859 16953,20862 16960,20867 16966,20872 16972,20877 16977,20882 16982,20888 16986,20895 16990,20903 16993,20911 16997,20920 17004,20942 17012,20969 17020,20998 17154,21563 17288,20998 17296,20969 17304,20942 17312,20920 17315,20911 17319,20903 17323,20895 17327,20888 17332,20882 17337,20876 17343,20872 17349,20867 17356,20862 17363,20859 17371,20856 17380,20854 17390,20852 17401,20850 17413,20849 17426,20848 17454,20847 17518,20847 17534,20847 17549,20849 17563,20851 17576,20854 17589,20858 17600,20862 17612,20869 17622,20875 17627,20879 17631,20882 17636,20887 17640,20891 17643,20896 17647,20903 17649,20908 17652,20914 17654,20921 17656,20928 17658,20936 17660,20943 17661,20959 17662,20978 17662,21810 17662,21826 17660,21840 17658,21855 17655,21868 17650,21880 17648,21886 17645,21891 17642,21896 17639,21901 17636,21906 17632,21910 17628,21915 17624,21919 17620,21923 17616,21926 17611,21929 17607,21932 17602,21934 17597,21937 17592,21939 17586,21940 17581,21942 17575,21943 17563,21944 17551,21945 17539,21944 17528,21943 17523,21942 17518,21940 17512,21939 17508,21937 17503,21934 17498,21932 17494,21929 17489,21926 17485,21923 17481,21919 17477,21915 17473,21910 17469,21906 17466,21901 17462,21896 17459,21891 17457,21886 17454,21881 17452,21874 17450,21868 17446,21855 17444,21840 17442,21826 17442,21810 17442,21099 17308,21757 17293,21814 17287,21836 17281,21855 17278,21863 17274,21871 17270,21880 17265,21887 17260,21895 17253,21902 17247,21909 17239,21917 17235,21920 17231,21924 17227,21927 17222,21929 17218,21932 17213,21934 17203,21938 17192,21941 17180,21943 17168,21945 17155,21945 17145,21945 17135,21944 17126,21942 17117,21941 17108,21938 17100,21935 17092,21931 17085,21927 17078,21922 17072,21918 17066,21913 17060,21906 17055,21901 17050,21895 17046,21889 17042,21882 17038,21874 17035,21867 17031,21860 17028,21853 17025,21846 17023,21837 17020,21830 17018,21822 17014,21804 17010,21786 17001,21739 Z M 18557,21041 L 18106,21041 18106,21269 18520,21269 18533,21269 18545,21271 18557,21272 18567,21275 18577,21279 18581,21281 18586,21284 18590,21286 18594,21289 18597,21292 18601,21295 18608,21302 18610,21305 18613,21309 18616,21312 18618,21316 18620,21321 18622,21325 18624,21329 18625,21334 18626,21338 18627,21343 18629,21352 18629,21363 18629,21373 18627,21383 18625,21393 18624,21398 18622,21402 18620,21406 18618,21410 18616,21414 18614,21418 18611,21423 18608,21426 18605,21430 18602,21433 18599,21436 18595,21439 18591,21442 18587,21444 18582,21447 18578,21449 18573,21451 18568,21453 18557,21455 18545,21458 18533,21460 18520,21460 18106,21460 18106,21729 18573,21729 18586,21729 18599,21731 18611,21733 18622,21736 18632,21741 18636,21743 18641,21745 18645,21748 18649,21751 18653,21754 18657,21757 18661,21760 18664,21764 18667,21767 18670,21771 18672,21776 18675,21780 18677,21784 18679,21789 18681,21793 18682,21798 18683,21802 18684,21808 18686,21818 18686,21829 18686,21839 18684,21850 18683,21855 18682,21859 18681,21864 18679,21868 18677,21873 18675,21878 18672,21882 18670,21886 18667,21889 18664,21893 18661,21897 18657,21900 18653,21903 18649,21906 18645,21909 18641,21913 18636,21915 18632,21917 18622,21921 18611,21924 18599,21926 18586,21928 18573,21928 18011,21928 17993,21927 17976,21926 17961,21923 17947,21920 17940,21917 17934,21915 17928,21911 17922,21908 17917,21905 17912,21901 17907,21897 17903,21893 17899,21889 17895,21884 17892,21879 17888,21872 17885,21867 17882,21861 17880,21854 17878,21848 17874,21833 17871,21817 17870,21800 17869,21782 17869,20992 17869,20980 17870,20969 17871,20957 17873,20947 17875,20937 17877,20927 17880,20918 17884,20910 17888,20902 17893,20894 17898,20888 17903,20882 17909,20876 17916,20871 17923,20867 17931,20862 17939,20858 17948,20855 17957,20853 17967,20851 17977,20849 17988,20848 17999,20847 18011,20847 18557,20847 18570,20847 18583,20849 18595,20851 18606,20854 18616,20857 18621,20859 18625,20862 18629,20865 18633,20868 18637,20871 18641,20874 18644,20877 18648,20881 18651,20884 18654,20888 18656,20892 18659,20896 18661,20901 18663,20905 18664,20909 18666,20913 18667,20918 18668,20923 18669,20927 18670,20932 18670,20943 18670,20954 18668,20964 18667,20969 18666,20974 18664,20979 18663,20983 18661,20987 18659,20991 18656,20995 18654,20999 18651,21004 18648,21007 18644,21011 18641,21014 18637,21017 18633,21020 18629,21023 18625,21025 18621,21028 18616,21030 18606,21033 18595,21036 18583,21039 18570,21041 18557,21041 Z M 19648,21596 L 19647,21621 19645,21645 19641,21669 19636,21691 19629,21714 19620,21735 19610,21756 19598,21777 19585,21796 19570,21815 19554,21831 19536,21848 19517,21863 19497,21876 19475,21890 19452,21901 19428,21911 19403,21921 19376,21928 19349,21934 19320,21939 19290,21942 19259,21944 19227,21945 19189,21944 19153,21941 19118,21937 19085,21930 19054,21922 19024,21911 18996,21899 18970,21885 18952,21873 18936,21861 18919,21848 18904,21833 18890,21818 18876,21801 18864,21785 18852,21766 18841,21748 18832,21729 18824,21711 18818,21693 18813,21675 18809,21657 18807,21639 18806,21621 18807,21610 18807,21605 18808,21600 18809,21594 18811,21589 18812,21584 18814,21580 18818,21571 18824,21561 18830,21553 18837,21545 18845,21538 18853,21531 18857,21528 18862,21525 18867,21522 18871,21520 18876,21518 18881,21517 18886,21515 18892,21514 18903,21513 18914,21512 18923,21512 18933,21514 18941,21516 18945,21517 18949,21518 18953,21520 18957,21522 18964,21526 18971,21532 18978,21538 18984,21544 18991,21551 18996,21559 19002,21568 19007,21576 19013,21586 19017,21595 19022,21607 19031,21630 19041,21652 19052,21672 19057,21680 19062,21688 19068,21696 19074,21704 19080,21710 19087,21717 19095,21723 19103,21729 19112,21734 19121,21740 19131,21745 19141,21748 19153,21752 19165,21754 19178,21756 19192,21758 19206,21759 19222,21759 19243,21758 19263,21757 19282,21754 19300,21749 19317,21744 19333,21736 19347,21728 19361,21719 19373,21709 19379,21704 19384,21697 19389,21692 19393,21686 19397,21680 19401,21674 19404,21668 19406,21661 19409,21654 19411,21648 19412,21641 19413,21634 19414,21626 19414,21619 19414,21608 19412,21598 19410,21587 19407,21578 19405,21573 19403,21569 19401,21564 19398,21559 19395,21555 19393,21551 19389,21548 19386,21544 19379,21537 19371,21531 19363,21524 19354,21518 19344,21513 19334,21508 19323,21503 19312,21499 19286,21490 19256,21482 19183,21464 19129,21449 19080,21434 19035,21417 19015,21409 18995,21400 18976,21391 18959,21379 18942,21368 18926,21356 18911,21342 18897,21329 18884,21313 18872,21298 18861,21281 18852,21264 18844,21245 18837,21226 18832,21205 18829,21184 18827,21161 18826,21137 18827,21115 18829,21093 18833,21071 18838,21051 18845,21031 18853,21012 18863,20993 18874,20975 18887,20957 18901,20942 18916,20926 18933,20912 18951,20900 18970,20887 18991,20877 19013,20867 19036,20857 19060,20850 19085,20844 19111,20838 19138,20834 19166,20831 19195,20830 19225,20829 19249,20829 19271,20830 19293,20832 19315,20835 19335,20838 19355,20842 19374,20847 19392,20853 19409,20859 19426,20867 19442,20874 19457,20882 19472,20891 19486,20901 19499,20910 19511,20920 19522,20930 19533,20942 19543,20952 19552,20963 19561,20975 19568,20986 19575,20997 19581,21009 19586,21020 19591,21031 19595,21044 19598,21055 19600,21066 19602,21078 19603,21088 19603,21099 19603,21111 19601,21121 19599,21131 19596,21141 19591,21151 19586,21160 19580,21169 19573,21179 19565,21187 19561,21191 19557,21194 19553,21197 19548,21200 19544,21202 19539,21205 19534,21207 19529,21208 19524,21210 19519,21211 19514,21212 19508,21212 19497,21214 19487,21214 19477,21212 19468,21210 19460,21208 19456,21207 19453,21205 19449,21204 19446,21202 19443,21200 19440,21198 19437,21196 19434,21193 19429,21187 19423,21181 19418,21174 19413,21166 19407,21158 19402,21150 19396,21140 19391,21130 19384,21116 19376,21102 19369,21090 19361,21079 19353,21067 19344,21058 19336,21049 19327,21041 19322,21036 19317,21033 19312,21030 19306,21027 19300,21024 19294,21022 19280,21018 19265,21014 19249,21012 19231,21010 19211,21010 19192,21011 19175,21012 19158,21015 19143,21018 19128,21023 19115,21028 19103,21035 19091,21043 19081,21051 19072,21059 19068,21064 19064,21068 19061,21072 19058,21078 19055,21082 19053,21087 19051,21092 19050,21097 19049,21102 19048,21107 19047,21113 19047,21118 19047,21124 19048,21130 19049,21136 19050,21142 19052,21149 19055,21154 19058,21159 19061,21164 19065,21169 19069,21173 19074,21179 19079,21183 19084,21187 19090,21191 19096,21195 19103,21199 19117,21206 19131,21212 19145,21219 19159,21224 19176,21229 19199,21235 19260,21252 19301,21262 19341,21273 19379,21285 19416,21297 19433,21303 19450,21310 19467,21317 19482,21326 19497,21334 19511,21342 19525,21351 19538,21361 19550,21370 19562,21380 19573,21392 19584,21403 19594,21415 19603,21428 19611,21441 19619,21455 19626,21470 19632,21486 19637,21503 19641,21520 19644,21538 19646,21557 19648,21576 19648,21596 Z"/>
    <path fill="none" stroke="rgb(255,255,255)" stroke-width="53" stroke-linejoin="miter" d="M 6838,21596 L 6837,21621 6835,21645 6831,21669 6826,21691 6819,21714 6810,21735 6800,21756 6788,21777 6775,21796 6760,21815 6744,21831 6726,21848 6707,21863 6687,21876 6665,21890 6642,21901 6618,21911 6593,21921 6566,21928 6539,21934 6510,21939 6480,21942 6449,21944 6417,21945 6379,21944 6343,21941 6308,21937 6275,21930 6244,21922 6214,21911 6186,21899 6160,21885 6142,21873 6126,21861 6109,21848 6094,21833 6080,21818 6066,21801 6054,21785 6042,21766 6031,21748 6022,21729 6014,21711 6008,21693 6003,21675 5999,21657 5997,21639 5996,21621 5997,21610 5997,21605 5998,21600 5999,21594 6001,21589 6002,21584 6004,21580 6008,21571 6014,21561 6020,21553 6027,21545 6035,21538 6043,21531 6047,21528 6052,21525 6057,21522 6061,21520 6066,21518 6071,21517 6076,21515 6082,21514 6093,21513 6104,21512 6113,21512 6123,21514 6131,21516 6135,21517 6139,21518 6143,21520 6147,21522 6154,21526 6161,21532 6168,21538 6174,21544 6181,21551 6186,21559 6192,21568 6197,21576 6203,21586 6207,21595 6212,21607 6221,21630 6231,21652 6242,21672 6247,21680 6252,21688 6258,21696 6264,21704 6270,21710 6277,21717 6285,21723 6293,21729 6302,21734 6311,21740 6321,21745 6331,21748 6343,21752 6355,21754 6368,21756 6382,21758 6396,21759 6412,21759 6433,21758 6453,21757 6472,21754 6490,21749 6507,21744 6523,21736 6537,21728 6551,21719 6563,21709 6569,21704 6574,21697 6579,21692 6583,21686 6587,21680 6591,21674 6594,21668 6596,21661 6599,21654 6601,21648 6602,21641 6603,21634 6604,21626 6604,21619 6604,21608 6602,21598 6600,21587 6597,21578 6595,21573 6593,21569 6591,21564 6588,21559 6585,21555 6583,21551 6579,21548 6576,21544 6569,21537 6561,21531 6553,21524 6544,21518 6534,21513 6524,21508 6513,21503 6502,21499 6476,21490 6446,21482 6373,21464 6319,21449 6270,21434 6225,21417 6205,21409 6185,21400 6166,21391 6149,21379 6132,21368 6116,21356 6101,21342 6087,21329 6074,21313 6062,21298 6051,21281 6042,21264 6034,21245 6027,21226 6022,21205 6019,21184 6017,21161 6016,21137 6017,21115 6019,21093 6023,21071 6028,21051 6035,21031 6043,21012 6053,20993 6064,20975 6077,20957 6091,20942 6106,20926 6123,20912 6141,20900 6160,20887 6181,20877 6203,20867 6226,20857 6250,20850 6275,20844 6301,20838 6328,20834 6356,20831 6385,20830 6415,20829 6439,20829 6461,20830 6483,20832 6505,20835 6525,20838 6545,20842 6564,20847 6582,20853 6599,20859 6616,20867 6632,20874 6647,20882 6662,20891 6676,20901 6689,20910 6701,20920 6712,20930 6723,20942 6733,20952 6742,20963 6751,20975 6758,20986 6765,20997 6771,21009 6776,21020 6781,21031 6785,21044 6788,21055 6790,21066 6792,21078 6793,21088 6793,21099 6793,21111 6791,21121 6789,21131 6786,21141 6781,21151 6776,21160 6770,21169 6763,21179 6755,21187 6751,21191 6747,21194 6743,21197 6738,21200 6734,21202 6729,21205 6724,21207 6719,21208 6714,21210 6709,21211 6704,21212 6698,21212 6687,21214 6677,21214 6667,21212 6658,21210 6650,21208 6646,21207 6643,21205 6639,21204 6636,21202 6633,21200 6630,21198 6627,21196 6624,21193 6619,21187 6613,21181 6608,21174 6603,21166 6597,21158 6592,21150 6586,21140 6581,21130 6574,21116 6566,21102 6559,21090 6551,21079 6543,21067 6534,21058 6526,21049 6517,21041 6512,21036 6507,21033 6502,21030 6496,21027 6490,21024 6484,21022 6470,21018 6455,21014 6439,21012 6421,21010 6401,21010 6382,21011 6365,21012 6348,21015 6333,21018 6318,21023 6305,21028 6293,21035 6281,21043 6271,21051 6262,21059 6258,21064 6254,21068 6251,21072 6248,21078 6245,21082 6243,21087 6241,21092 6240,21097 6239,21102 6238,21107 6237,21113 6237,21118 6237,21124 6238,21130 6239,21136 6240,21142 6242,21149 6245,21154 6248,21159 6251,21164 6255,21169 6259,21173 6264,21179 6269,21183 6274,21187 6280,21191 6286,21195 6293,21199 6307,21206 6321,21212 6335,21219 6349,21224 6366,21229 6389,21235 6450,21252 6491,21262 6531,21273 6569,21285 6606,21297 6623,21303 6640,21310 6657,21317 6672,21326 6687,21334 6701,21342 6715,21351 6728,21361 6740,21370 6752,21380 6763,21392 6774,21403 6784,21415 6793,21428 6801,21441 6809,21455 6816,21470 6822,21486 6827,21503 6831,21520 6834,21538 6836,21557 6838,21576 6838,21596 Z"/>
    <path fill="none" stroke="rgb(255,255,255)" stroke-width="53" stroke-linejoin="miter" d="M 7012,21800 L 7012,20972 7013,20955 7014,20939 7017,20924 7020,20910 7025,20897 7028,20891 7031,20886 7034,20880 7037,20875 7041,20871 7045,20866 7049,20861 7053,20857 7058,20853 7062,20849 7067,20846 7072,20843 7077,20841 7082,20838 7088,20836 7093,20834 7099,20833 7105,20831 7117,20830 7129,20829 7142,20830 7155,20831 7161,20833 7167,20834 7172,20836 7178,20838 7183,20841 7188,20843 7193,20846 7198,20849 7203,20853 7207,20857 7212,20861 7216,20866 7220,20871 7224,20875 7227,20880 7230,20886 7233,20891 7236,20897 7241,20910 7244,20924 7247,20939 7248,20955 7249,20972 7249,21800 7248,21818 7247,21833 7244,21849 7241,21863 7236,21875 7233,21882 7230,21888 7227,21893 7224,21898 7220,21903 7216,21908 7212,21913 7207,21917 7203,21921 7198,21925 7193,21928 7188,21931 7183,21934 7178,21936 7172,21938 7167,21940 7161,21941 7155,21943 7142,21944 7129,21945 7117,21944 7105,21943 7099,21941 7093,21940 7088,21938 7083,21936 7077,21934 7072,21931 7067,21928 7063,21925 7058,21921 7054,21917 7045,21908 7041,21903 7037,21898 7034,21893 7031,21888 7028,21882 7025,21875 7020,21863 7017,21849 7014,21833 7013,21818 7012,21800 Z"/>
    <path fill="none" stroke="rgb(255,255,255)" stroke-width="53" stroke-linejoin="miter" d="M 7692,20972 L 7692,21723 8097,21723 8111,21723 8124,21725 8136,21727 8147,21730 8158,21734 8163,21736 8168,21740 8172,21742 8177,21745 8181,21749 8185,21752 8189,21756 8192,21759 8196,21763 8199,21767 8201,21771 8204,21776 8206,21781 8208,21785 8210,21790 8212,21794 8213,21799 8214,21804 8216,21815 8216,21826 8216,21837 8214,21848 8213,21853 8212,21858 8210,21862 8208,21867 8206,21871 8204,21876 8201,21881 8198,21885 8195,21889 8192,21893 8189,21896 8185,21900 8181,21903 8177,21906 8173,21909 8168,21913 8163,21915 8158,21918 8148,21921 8136,21924 8124,21926 8111,21928 8097,21928 7597,21928 7579,21927 7563,21926 7547,21923 7533,21920 7527,21917 7520,21915 7514,21911 7509,21908 7503,21905 7498,21901 7493,21897 7489,21893 7485,21889 7481,21884 7477,21879 7474,21872 7471,21867 7468,21861 7466,21854 7463,21848 7460,21833 7457,21817 7456,21800 7455,21782 7455,20972 7455,20955 7457,20939 7459,20924 7463,20911 7467,20897 7470,20891 7473,20886 7476,20881 7479,20875 7483,20871 7487,20866 7491,20861 7495,20857 7500,20853 7504,20849 7509,20846 7514,20843 7519,20840 7524,20838 7530,20836 7535,20834 7541,20833 7547,20831 7559,20830 7572,20829 7585,20830 7598,20831 7604,20833 7610,20834 7615,20836 7621,20838 7626,20841 7631,20843 7636,20846 7641,20849 7646,20853 7650,20857 7655,20861 7659,20866 7663,20871 7667,20875 7670,20880 7673,20886 7676,20891 7679,20897 7684,20910 7687,20924 7690,20939 7691,20955 7692,20972 Z"/>
    <path fill="none" stroke="rgb(255,255,255)" stroke-width="53" stroke-linejoin="miter" d="M 8578,20973 L 8578,21326 8959,20894 8974,20879 8987,20866 9000,20854 9006,20849 9012,20845 9015,20843 9018,20841 9025,20838 9032,20835 9039,20833 9047,20831 9056,20830 9065,20829 9075,20829 9087,20829 9099,20831 9110,20833 9121,20836 9126,20838 9131,20840 9135,20843 9140,20846 9144,20849 9149,20852 9157,20859 9165,20868 9171,20876 9174,20880 9177,20885 9179,20889 9181,20894 9183,20899 9185,20904 9186,20909 9187,20914 9188,20919 9189,20924 9189,20936 9189,20942 9188,20949 9187,20955 9186,20961 9184,20969 9182,20975 9179,20982 9176,20988 9169,21001 9160,21014 9150,21027 9138,21040 8891,21275 9169,21685 9188,21710 9203,21733 9210,21744 9216,21754 9221,21764 9226,21774 9230,21783 9233,21791 9236,21800 9238,21810 9240,21818 9241,21826 9242,21835 9242,21844 9242,21854 9241,21859 9240,21864 9239,21868 9238,21873 9236,21878 9234,21883 9232,21887 9230,21891 9227,21895 9225,21899 9218,21907 9211,21916 9207,21919 9203,21923 9198,21926 9194,21929 9184,21934 9174,21938 9164,21941 9152,21943 9140,21945 9128,21945 9116,21945 9105,21944 9094,21942 9084,21940 9075,21937 9066,21933 9057,21929 9049,21924 9042,21919 9035,21913 9028,21906 9021,21899 9015,21892 9009,21885 9003,21876 8998,21868 8963,21809 8731,21432 8578,21590 8578,21800 8577,21818 8576,21834 8573,21850 8570,21864 8567,21870 8565,21876 8562,21883 8559,21889 8556,21894 8552,21899 8548,21904 8544,21908 8540,21913 8535,21917 8531,21921 8526,21925 8521,21928 8516,21931 8511,21934 8506,21936 8500,21938 8495,21940 8489,21941 8483,21943 8471,21944 8458,21945 8451,21945 8443,21944 8436,21943 8428,21941 8421,21939 8414,21936 8407,21933 8400,21929 8393,21925 8387,21920 8381,21915 8375,21909 8370,21903 8365,21897 8360,21890 8356,21883 8353,21878 8351,21871 8349,21865 8347,21860 8346,21853 8345,21847 8344,21840 8343,21833 8342,21818 8341,21799 8341,21754 8341,20972 8341,20955 8343,20939 8345,20924 8349,20911 8353,20897 8356,20891 8358,20886 8361,20881 8365,20875 8368,20871 8372,20866 8376,20861 8380,20857 8385,20853 8389,20849 8394,20846 8399,20843 8404,20840 8409,20838 8415,20836 8421,20834 8426,20833 8432,20831 8445,20830 8458,20829 8471,20830 8484,20831 8490,20833 8496,20834 8501,20836 8507,20838 8512,20841 8517,20843 8522,20846 8527,20849 8532,20853 8536,20857 8541,20861 8545,20866 8549,20871 8553,20875 8556,20880 8559,20886 8562,20891 8565,20897 8570,20911 8573,20924 8576,20940 8577,20955 8578,20973 Z"/>
    <path fill="none" stroke="rgb(255,255,255)" stroke-width="53" stroke-linejoin="miter" d="M 10077,21478 L 10019,21478 10019,21800 10018,21818 10017,21834 10014,21850 10011,21864 10006,21876 10003,21883 10000,21889 9997,21894 9994,21899 9990,21904 9986,21909 9977,21918 9973,21922 9968,21925 9964,21928 9959,21931 9954,21934 9948,21936 9943,21938 9937,21940 9932,21942 9926,21943 9914,21944 9901,21945 9887,21944 9874,21943 9868,21941 9862,21940 9856,21938 9851,21936 9845,21933 9840,21931 9835,21928 9830,21924 9826,21921 9821,21917 9817,21913 9813,21907 9809,21902 9806,21897 9802,21892 9799,21887 9797,21881 9794,21874 9790,21862 9786,21848 9784,21833 9782,21817 9782,21800 9782,20992 9783,20974 9784,20957 9787,20942 9790,20927 9793,20920 9795,20914 9798,20908 9801,20903 9804,20896 9808,20891 9812,20886 9816,20882 9820,20878 9825,20874 9830,20870 9836,20867 9841,20864 9847,20860 9854,20858 9860,20855 9874,20852 9890,20849 9906,20848 9924,20847 10261,20847 10294,20847 10326,20848 10355,20850 10382,20853 10395,20855 10408,20857 10420,20860 10433,20864 10445,20868 10458,20872 10470,20877 10482,20882 10493,20887 10504,20893 10514,20900 10525,20907 10535,20914 10545,20923 10556,20931 10566,20942 10575,20952 10584,20963 10593,20975 10600,20986 10607,20998 10614,21011 10620,21024 10625,21037 10630,21051 10634,21064 10637,21079 10640,21093 10642,21106 10644,21121 10645,21136 10645,21151 10644,21181 10641,21209 10635,21236 10628,21262 10618,21286 10613,21297 10607,21308 10600,21319 10593,21329 10585,21339 10577,21348 10559,21366 10539,21382 10517,21397 10494,21409 10470,21420 10443,21430 10415,21438 10385,21444 10391,21446 10397,21448 10410,21453 10422,21461 10435,21469 10448,21478 10461,21489 10473,21502 10486,21516 10511,21547 10534,21578 10557,21611 10578,21644 10597,21677 10613,21708 10628,21738 10640,21766 10650,21792 10657,21814 10660,21823 10662,21831 10663,21838 10663,21841 10663,21845 10663,21851 10662,21857 10661,21863 10659,21869 10657,21875 10655,21882 10652,21888 10648,21894 10644,21900 10640,21905 10635,21910 10630,21916 10625,21921 10619,21925 10613,21928 10607,21932 10601,21935 10594,21938 10587,21940 10580,21942 10573,21943 10565,21944 10557,21945 10549,21945 10538,21945 10529,21944 10520,21942 10511,21941 10503,21938 10495,21935 10488,21931 10481,21927 10469,21917 10463,21911 10457,21905 10452,21900 10447,21894 10442,21887 10437,21881 10389,21802 10304,21641 10264,21588 10246,21566 10229,21545 10221,21536 10212,21528 10204,21519 10196,21513 10187,21507 10179,21501 10170,21497 10162,21493 10153,21489 10144,21486 10134,21484 10124,21482 10113,21480 10102,21479 10090,21478 10077,21478 Z"/>
    <path fill="none" stroke="rgb(255,255,255)" stroke-width="53" stroke-linejoin="miter" d="M 10195,21036 L 10019,21036 10019,21296 10190,21296 10225,21295 10256,21293 10271,21291 10285,21289 10298,21287 10310,21284 10322,21280 10332,21276 10342,21272 10352,21267 10360,21262 10368,21257 10375,21251 10378,21246 10381,21243 10384,21239 10386,21236 10391,21228 10395,21219 10399,21209 10401,21199 10403,21188 10405,21176 10405,21164 10405,21155 10404,21146 10402,21136 10400,21127 10398,21119 10394,21111 10391,21102 10386,21095 10381,21088 10375,21081 10369,21075 10363,21069 10356,21064 10348,21059 10340,21055 10332,21051 10328,21049 10323,21048 10311,21045 10297,21043 10281,21041 10242,21037 10195,21036 Z"/>
    <path fill="none" stroke="rgb(255,255,255)" stroke-width="53" stroke-linejoin="miter" d="M 11296,20829 L 11336,20830 11374,20833 11411,20838 11447,20846 11482,20855 11515,20868 11547,20881 11577,20897 11606,20916 11632,20936 11657,20957 11680,20980 11702,21005 11721,21031 11739,21060 11755,21091 11769,21123 11781,21157 11792,21192 11800,21228 11807,21265 11811,21304 11814,21344 11815,21385 11814,21416 11813,21446 11810,21475 11807,21504 11802,21532 11796,21559 11790,21586 11782,21612 11773,21638 11764,21661 11753,21685 11741,21708 11728,21729 11714,21751 11699,21770 11683,21790 11666,21809 11648,21826 11629,21841 11609,21857 11588,21870 11566,21883 11544,21895 11520,21905 11496,21915 11470,21923 11443,21930 11416,21935 11388,21940 11360,21943 11330,21944 11300,21945 11269,21944 11240,21943 11211,21939 11183,21935 11156,21930 11129,21923 11104,21914 11079,21904 11055,21894 11032,21882 11010,21869 10990,21855 10970,21840 10951,21824 10933,21808 10916,21789 10900,21769 10885,21750 10871,21728 10858,21707 10846,21683 10836,21659 10826,21635 10817,21609 10809,21582 10803,21555 10797,21529 10792,21501 10789,21472 10786,21443 10785,21413 10784,21383 10785,21352 10786,21323 10789,21294 10793,21265 10798,21237 10804,21209 10811,21183 10819,21157 10828,21131 10838,21107 10849,21084 10861,21061 10874,21040 10888,21019 10903,20998 10919,20980 10936,20962 10954,20945 10973,20929 10993,20915 11014,20902 11035,20889 11058,20878 11081,20868 11105,20858 11130,20851 11156,20844 11182,20839 11210,20834 11238,20831 11266,20830 11296,20829 Z"/>
    <path fill="none" stroke="rgb(255,255,255)" stroke-width="53" stroke-linejoin="miter" d="M 11576,21383 L 11575,21356 11574,21330 11571,21304 11567,21279 11562,21256 11556,21233 11549,21211 11541,21191 11532,21171 11522,21153 11511,21135 11499,21120 11487,21104 11473,21091 11458,21080 11442,21068 11426,21059 11409,21051 11392,21044 11374,21037 11355,21033 11336,21030 11316,21028 11296,21027 11281,21027 11267,21028 11253,21030 11239,21032 11225,21035 11212,21040 11200,21045 11187,21050 11175,21056 11163,21062 11152,21069 11141,21078 11130,21086 11120,21095 11110,21105 11101,21116 11092,21127 11084,21139 11076,21152 11069,21165 11062,21180 11055,21195 11049,21211 11044,21228 11039,21245 11035,21263 11031,21282 11028,21301 11026,21321 11024,21341 11023,21362 11023,21383 11024,21427 11026,21447 11028,21467 11031,21486 11035,21506 11039,21524 11044,21542 11050,21559 11056,21576 11063,21591 11070,21606 11078,21620 11086,21634 11095,21646 11104,21657 11114,21669 11124,21678 11134,21687 11144,21696 11155,21705 11166,21712 11178,21718 11190,21724 11202,21729 11215,21734 11228,21738 11242,21741 11255,21744 11269,21746 11283,21747 11298,21747 11317,21746 11335,21745 11353,21742 11371,21738 11388,21732 11404,21725 11420,21718 11436,21709 11451,21698 11467,21687 11481,21674 11494,21659 11506,21643 11518,21625 11528,21607 11538,21587 11547,21566 11554,21544 11561,21520 11566,21496 11571,21469 11574,21442 11575,21413 11576,21383 Z"/>
    <path fill="none" stroke="rgb(255,255,255)" stroke-width="53" stroke-linejoin="miter" d="M 12886,21580 L 12886,21593 12884,21607 12883,21621 12880,21635 12876,21649 12872,21664 12867,21679 12861,21694 12854,21710 12847,21725 12838,21741 12829,21755 12818,21770 12807,21785 12795,21800 12782,21815 12768,21829 12753,21843 12738,21855 12721,21867 12703,21879 12685,21890 12665,21900 12645,21909 12624,21918 12602,21925 12579,21931 12556,21936 12531,21940 12506,21943 12480,21944 12453,21945 12412,21944 12373,21941 12354,21939 12336,21936 12318,21933 12301,21929 12284,21925 12268,21920 12252,21915 12236,21908 12221,21902 12206,21895 12191,21887 12177,21879 12163,21869 12149,21859 12136,21848 12122,21835 12109,21822 12096,21806 12083,21791 12071,21774 12062,21764 12053,21754 12044,21743 12035,21730 12026,21718 12018,21704 12010,21689 12003,21674 11996,21658 11989,21642 11978,21609 11968,21575 11960,21540 11954,21504 11949,21467 11946,21428 11945,21389 11946,21357 11947,21325 11950,21295 11954,21265 11960,21236 11966,21208 11973,21182 11982,21156 11992,21131 12002,21106 12014,21083 12026,21060 12040,21039 12055,21018 12070,20998 12087,20980 12105,20962 12123,20945 12142,20929 12162,20915 12183,20902 12204,20889 12226,20878 12249,20868 12272,20858 12296,20851 12320,20844 12345,20839 12371,20834 12396,20831 12421,20830 12447,20829 12479,20830 12510,20832 12539,20836 12568,20842 12596,20849 12623,20858 12650,20869 12675,20881 12699,20894 12722,20909 12743,20924 12763,20940 12782,20957 12799,20975 12815,20992 12829,21012 12842,21031 12853,21050 12862,21069 12870,21088 12875,21106 12880,21125 12882,21144 12883,21161 12883,21171 12881,21182 12879,21192 12876,21201 12872,21210 12867,21220 12861,21228 12854,21236 12846,21243 12839,21251 12835,21254 12830,21256 12826,21259 12822,21261 12817,21263 12812,21264 12808,21266 12803,21267 12798,21268 12793,21268 12782,21269 12771,21269 12761,21268 12751,21266 12742,21264 12738,21263 12734,21261 12730,21259 12727,21257 12723,21255 12720,21253 12717,21251 12714,21247 12708,21241 12702,21234 12696,21227 12690,21218 12684,21208 12678,21198 12665,21174 12655,21157 12645,21139 12634,21124 12623,21110 12612,21096 12600,21084 12588,21072 12575,21063 12562,21055 12548,21048 12533,21042 12518,21036 12502,21032 12485,21029 12467,21028 12449,21027 12434,21027 12420,21028 12406,21030 12392,21033 12379,21036 12365,21041 12352,21046 12340,21051 12328,21057 12317,21064 12306,21072 12295,21081 12285,21090 12275,21100 12265,21111 12256,21122 12247,21134 12239,21147 12232,21160 12225,21174 12212,21204 12202,21237 12194,21273 12189,21311 12185,21351 12184,21395 12185,21425 12186,21452 12189,21479 12192,21505 12197,21530 12202,21552 12209,21573 12216,21593 12224,21612 12233,21629 12243,21646 12254,21661 12265,21675 12278,21687 12291,21698 12305,21709 12320,21718 12335,21725 12351,21731 12369,21738 12386,21742 12404,21745 12423,21746 12442,21747 12463,21746 12482,21744 12501,21741 12520,21736 12537,21730 12553,21723 12569,21715 12584,21705 12598,21693 12611,21681 12624,21666 12635,21650 12646,21634 12656,21615 12665,21594 12673,21573 12676,21564 12680,21554 12684,21545 12688,21536 12692,21528 12697,21519 12703,21511 12708,21504 12711,21500 12714,21497 12717,21494 12721,21490 12725,21487 12729,21485 12733,21483 12737,21481 12742,21479 12747,21477 12752,21476 12757,21475 12769,21473 12781,21473 12792,21473 12802,21475 12812,21477 12816,21479 12821,21480 12826,21482 12830,21484 12834,21487 12839,21490 12847,21497 12855,21504 12862,21512 12869,21520 12871,21524 12874,21530 12876,21534 12878,21539 12880,21543 12882,21548 12883,21553 12884,21558 12886,21569 12886,21580 Z"/>
    <path fill="none" stroke="rgb(255,255,255)" stroke-width="53" stroke-linejoin="miter" d="M 13304,20973 L 13304,21326 13684,20894 13699,20879 13712,20866 13725,20854 13731,20849 13737,20845 13740,20843 13743,20841 13750,20838 13757,20835 13764,20833 13772,20831 13781,20830 13790,20829 13800,20829 13812,20829 13824,20831 13835,20833 13846,20836 13851,20838 13856,20840 13860,20843 13865,20846 13869,20849 13874,20852 13882,20859 13890,20868 13896,20876 13899,20880 13902,20885 13904,20889 13906,20894 13908,20899 13910,20904 13911,20909 13912,20914 13913,20919 13914,20924 13914,20936 13914,20942 13913,20949 13912,20955 13911,20961 13909,20969 13907,20975 13904,20982 13901,20988 13894,21001 13885,21014 13875,21027 13863,21040 13616,21275 13894,21685 13913,21710 13928,21733 13935,21744 13941,21754 13946,21764 13951,21774 13955,21783 13958,21791 13961,21800 13963,21810 13965,21818 13966,21826 13967,21835 13967,21844 13967,21854 13966,21859 13965,21864 13964,21868 13963,21873 13961,21878 13959,21883 13957,21887 13955,21891 13952,21895 13950,21899 13943,21907 13936,21916 13932,21919 13928,21923 13923,21926 13919,21929 13909,21934 13899,21938 13889,21941 13877,21943 13865,21945 13853,21945 13841,21945 13830,21944 13819,21942 13809,21940 13800,21937 13791,21933 13782,21929 13774,21924 13767,21919 13760,21913 13753,21906 13746,21899 13740,21892 13734,21885 13728,21876 13723,21868 13688,21809 13456,21432 13304,21590 13304,21800 13303,21818 13302,21834 13299,21850 13296,21864 13293,21870 13291,21876 13288,21883 13285,21889 13282,21894 13277,21899 13273,21904 13269,21908 13265,21913 13260,21917 13256,21921 13251,21925 13246,21928 13241,21931 13236,21934 13231,21936 13225,21938 13220,21940 13214,21941 13208,21943 13196,21944 13183,21945 13176,21945 13168,21944 13161,21943 13153,21941 13146,21939 13139,21936 13132,21933 13125,21929 13118,21925 13112,21920 13106,21915 13100,21909 13095,21903 13090,21897 13085,21890 13081,21883 13078,21878 13076,21871 13074,21865 13072,21860 13071,21853 13070,21847 13069,21840 13068,21833 13067,21818 13066,21799 13066,21754 13066,20972 13066,20955 13068,20939 13070,20924 13074,20911 13078,20897 13081,20891 13083,20886 13086,20881 13090,20875 13093,20871 13097,20866 13101,20861 13105,20857 13110,20853 13114,20849 13119,20846 13124,20843 13129,20840 13134,20838 13140,20836 13146,20834 13151,20833 13157,20831 13170,20830 13183,20829 13196,20830 13209,20831 13215,20833 13221,20834 13226,20836 13232,20838 13237,20841 13242,20843 13247,20846 13252,20849 13257,20853 13261,20857 13266,20861 13270,20866 13274,20871 13279,20875 13282,20880 13285,20886 13288,20891 13291,20897 13296,20911 13299,20924 13302,20940 13303,20955 13304,20973 Z"/>
    <path fill="none" stroke="rgb(255,255,255)" stroke-width="53" stroke-linejoin="miter" d="M 15472,21485 L 15472,21686 15471,21707 15471,21716 15470,21725 15468,21733 15467,21742 15465,21749 15463,21756 15461,21763 15458,21769 15455,21776 15451,21782 15447,21788 15442,21793 15437,21799 15432,21804 15426,21810 15420,21815 15407,21825 15392,21835 15376,21845 15329,21869 15284,21890 15238,21907 15216,21916 15194,21922 15172,21927 15149,21932 15126,21936 15103,21939 15053,21944 15003,21945 14973,21944 14944,21943 14915,21940 14887,21936 14860,21931 14834,21924 14808,21917 14783,21907 14758,21897 14735,21886 14712,21873 14690,21860 14670,21846 14650,21830 14631,21813 14613,21795 14596,21777 14580,21757 14565,21736 14551,21714 14538,21692 14526,21669 14515,21644 14505,21618 14496,21591 14489,21565 14482,21537 14477,21508 14472,21479 14469,21449 14468,21418 14467,21386 14468,21356 14469,21325 14472,21296 14476,21266 14481,21238 14487,21210 14494,21184 14503,21157 14513,21131 14524,21106 14535,21083 14548,21060 14562,21039 14578,21018 14594,20998 14611,20980 14629,20962 14649,20945 14669,20929 14690,20915 14712,20902 14735,20889 14759,20878 14784,20868 14810,20858 14837,20851 14864,20844 14892,20839 14921,20834 14951,20831 14982,20830 15014,20829 15040,20829 15065,20831 15090,20833 15114,20836 15137,20840 15160,20845 15181,20850 15202,20857 15222,20865 15241,20873 15259,20882 15276,20891 15293,20901 15308,20911 15323,20921 15336,20932 15349,20944 15360,20955 15371,20966 15381,20979 15391,20991 15399,21004 15407,21016 15414,21028 15420,21041 15426,21053 15430,21065 15434,21077 15437,21088 15439,21098 15441,21110 15441,21120 15440,21131 15440,21136 15439,21142 15438,21148 15436,21153 15434,21158 15432,21163 15430,21168 15428,21172 15425,21177 15422,21182 15415,21191 15407,21199 15398,21206 15390,21214 15380,21219 15371,21224 15366,21226 15361,21227 15350,21230 15339,21231 15328,21232 15321,21232 15315,21231 15308,21230 15302,21229 15296,21227 15290,21225 15284,21223 15278,21220 15272,21217 15267,21212 15261,21208 15256,21204 15251,21200 15247,21195 15242,21189 15238,21184 15220,21156 15203,21131 15188,21110 15175,21093 15169,21086 15162,21079 15154,21071 15146,21065 15137,21059 15128,21053 15118,21048 15108,21043 15096,21037 15084,21033 15072,21030 15058,21027 15045,21025 15030,21023 15015,21022 14999,21022 14982,21022 14965,21023 14949,21025 14934,21028 14918,21031 14904,21035 14890,21041 14876,21046 14863,21052 14850,21059 14838,21067 14827,21076 14815,21085 14805,21094 14795,21104 14785,21116 14776,21127 14767,21140 14759,21153 14752,21167 14745,21182 14738,21197 14732,21214 14727,21230 14722,21247 14718,21265 14714,21284 14711,21302 14709,21321 14707,21340 14706,21360 14706,21380 14707,21425 14711,21466 14717,21504 14726,21540 14737,21573 14743,21588 14751,21604 14758,21617 14767,21631 14775,21644 14785,21656 14795,21668 14806,21679 14817,21688 14828,21697 14840,21707 14853,21714 14866,21721 14879,21727 14893,21732 14907,21738 14922,21742 14938,21745 14970,21750 15004,21751 15021,21751 15038,21750 15055,21748 15071,21747 15088,21744 15105,21741 15120,21736 15136,21732 15166,21722 15196,21711 15225,21697 15253,21683 15253,21536 15108,21536 15092,21536 15077,21535 15064,21533 15051,21531 15039,21528 15028,21524 15018,21520 15009,21515 15005,21512 15001,21509 14997,21506 14994,21503 14990,21499 14988,21495 14985,21490 14983,21486 14981,21481 14979,21476 14977,21471 14976,21466 14975,21461 14975,21454 14974,21442 14974,21432 14975,21427 14976,21423 14977,21417 14978,21413 14980,21408 14982,21404 14984,21400 14986,21396 14988,21392 14991,21388 14994,21383 14997,21380 15004,21373 15008,21370 15012,21367 15016,21364 15020,21362 15024,21359 15028,21357 15038,21352 15048,21350 15058,21348 15069,21346 15081,21346 15317,21346 15339,21347 15359,21348 15378,21351 15396,21356 15404,21358 15412,21362 15419,21365 15427,21370 15433,21375 15439,21381 15445,21389 15451,21396 15454,21400 15456,21404 15458,21408 15460,21413 15464,21424 15467,21434 15469,21445 15471,21458 15472,21471 15472,21485 Z"/>
    <path fill="none" stroke="rgb(255,255,255)" stroke-width="53" stroke-linejoin="miter" d="M 16264,21804 L 16217,21677 15822,21677 15777,21801 15762,21839 15749,21870 15742,21884 15736,21895 15730,21905 15724,21915 15721,21919 15718,21922 15715,21925 15711,21928 15707,21931 15703,21933 15698,21936 15694,21938 15689,21939 15684,21941 15673,21943 15661,21945 15648,21945 15637,21944 15626,21943 15616,21940 15605,21937 15596,21932 15586,21926 15577,21920 15568,21911 15560,21903 15556,21899 15553,21894 15550,21890 15547,21885 15545,21881 15542,21875 15540,21870 15539,21865 15537,21861 15536,21856 15535,21851 15535,21845 15534,21834 15534,21828 15534,21822 15535,21816 15536,21811 15537,21804 15538,21798 15539,21793 15541,21787 15565,21720 15826,21037 15853,20966 15861,20947 15870,20928 15879,20911 15883,20903 15888,20895 15893,20888 15898,20881 15904,20875 15910,20869 15917,20862 15924,20857 15931,20852 15939,20847 15947,20843 15956,20839 15965,20836 15975,20833 15985,20831 15996,20830 16007,20829 16019,20829 16031,20829 16042,20830 16053,20831 16063,20833 16073,20836 16082,20839 16091,20843 16099,20847 16107,20852 16114,20857 16121,20862 16128,20869 16134,20875 16140,20882 16145,20888 16150,20895 16159,20910 16168,20923 16175,20938 16178,20945 16181,20952 16210,21029 16480,21715 16494,21752 16499,21769 16504,21785 16507,21798 16510,21811 16511,21822 16512,21832 16512,21837 16511,21843 16511,21848 16510,21853 16509,21858 16507,21863 16506,21868 16504,21873 16501,21879 16499,21883 16493,21892 16486,21901 16478,21910 16469,21919 16460,21926 16455,21929 16450,21932 16445,21934 16440,21937 16435,21939 16430,21940 16425,21942 16419,21943 16408,21944 16396,21945 16389,21945 16382,21944 16376,21944 16370,21943 16364,21941 16358,21940 16352,21937 16347,21935 16342,21932 16338,21929 16333,21926 16329,21923 16325,21920 16321,21916 16317,21911 16314,21907 16311,21902 16307,21897 16304,21892 16300,21885 16293,21870 16286,21854 16279,21837 16273,21824 16268,21813 16264,21804 Z"/>
    <path fill="none" stroke="rgb(255,255,255)" stroke-width="53" stroke-linejoin="miter" d="M 15881,21487 L 16157,21487 16018,21083 15881,21487 Z"/>
    <path fill="none" stroke="rgb(255,255,255)" stroke-width="53" stroke-linejoin="miter" d="M 17001,21739 L 16866,21099 16866,21810 16866,21826 16864,21840 16862,21855 16859,21868 16854,21880 16852,21886 16849,21891 16846,21896 16843,21901 16840,21906 16836,21910 16832,21915 16828,21919 16824,21923 16820,21926 16815,21929 16811,21932 16806,21934 16801,21937 16796,21939 16791,21940 16785,21942 16780,21943 16768,21944 16756,21945 16744,21944 16733,21943 16727,21942 16722,21940 16717,21939 16712,21937 16707,21935 16702,21932 16697,21929 16693,21926 16688,21923 16684,21920 16676,21911 16672,21907 16669,21902 16666,21897 16663,21892 16660,21887 16658,21882 16654,21869 16650,21856 16648,21841 16646,21826 16646,21810 16646,20978 16647,20959 16649,20943 16650,20936 16652,20928 16654,20921 16656,20914 16659,20908 16662,20903 16665,20896 16669,20891 16672,20887 16677,20882 16681,20879 16686,20875 16696,20869 16707,20862 16719,20858 16732,20854 16745,20851 16759,20849 16774,20847 16790,20847 16854,20847 16882,20848 16895,20849 16907,20850 16918,20852 16929,20854 16938,20856 16946,20859 16953,20862 16960,20867 16966,20872 16972,20877 16977,20882 16982,20888 16986,20895 16990,20903 16993,20911 16997,20920 17004,20942 17012,20969 17020,20998 17154,21563 17288,20998 17296,20969 17304,20942 17312,20920 17315,20911 17319,20903 17323,20895 17327,20888 17332,20882 17337,20876 17343,20872 17349,20867 17356,20862 17363,20859 17371,20856 17380,20854 17390,20852 17401,20850 17413,20849 17426,20848 17454,20847 17518,20847 17534,20847 17549,20849 17563,20851 17576,20854 17589,20858 17600,20862 17612,20869 17622,20875 17627,20879 17631,20882 17636,20887 17640,20891 17643,20896 17647,20903 17649,20908 17652,20914 17654,20921 17656,20928 17658,20936 17660,20943 17661,20959 17662,20978 17662,21810 17662,21826 17660,21840 17658,21855 17655,21868 17650,21880 17648,21886 17645,21891 17642,21896 17639,21901 17636,21906 17632,21910 17628,21915 17624,21919 17620,21923 17616,21926 17611,21929 17607,21932 17602,21934 17597,21937 17592,21939 17586,21940 17581,21942 17575,21943 17563,21944 17551,21945 17539,21944 17528,21943 17523,21942 17518,21940 17512,21939 17508,21937 17503,21934 17498,21932 17494,21929 17489,21926 17485,21923 17481,21919 17477,21915 17473,21910 17469,21906 17466,21901 17462,21896 17459,21891 17457,21886 17454,21881 17452,21874 17450,21868 17446,21855 17444,21840 17442,21826 17442,21810 17442,21099 17308,21757 17293,21814 17287,21836 17281,21855 17278,21863 17274,21871 17270,21880 17265,21887 17260,21895 17253,21902 17247,21909 17239,21917 17235,21920 17231,21924 17227,21927 17222,21929 17218,21932 17213,21934 17203,21938 17192,21941 17180,21943 17168,21945 17155,21945 17145,21945 17135,21944 17126,21942 17117,21941 17108,21938 17100,21935 17092,21931 17085,21927 17078,21922 17072,21918 17066,21913 17060,21906 17055,21901 17050,21895 17046,21889 17042,21882 17038,21874 17035,21867 17031,21860 17028,21853 17025,21846 17023,21837 17020,21830 17018,21822 17014,21804 17010,21786 17001,21739 Z"/>
    <path fill="none" stroke="rgb(255,255,255)" stroke-width="53" stroke-linejoin="miter" d="M 18557,21041 L 18106,21041 18106,21269 18520,21269 18533,21269 18545,21271 18557,21272 18567,21275 18577,21279 18581,21281 18586,21284 18590,21286 18594,21289 18597,21292 18601,21295 18608,21302 18610,21305 18613,21309 18616,21312 18618,21316 18620,21321 18622,21325 18624,21329 18625,21334 18626,21338 18627,21343 18629,21352 18629,21363 18629,21373 18627,21383 18625,21393 18624,21398 18622,21402 18620,21406 18618,21410 18616,21414 18614,21418 18611,21423 18608,21426 18605,21430 18602,21433 18599,21436 18595,21439 18591,21442 18587,21444 18582,21447 18578,21449 18573,21451 18568,21453 18557,21455 18545,21458 18533,21460 18520,21460 18106,21460 18106,21729 18573,21729 18586,21729 18599,21731 18611,21733 18622,21736 18632,21741 18636,21743 18641,21745 18645,21748 18649,21751 18653,21754 18657,21757 18661,21760 18664,21764 18667,21767 18670,21771 18672,21776 18675,21780 18677,21784 18679,21789 18681,21793 18682,21798 18683,21802 18684,21808 18686,21818 18686,21829 18686,21839 18684,21850 18683,21855 18682,21859 18681,21864 18679,21868 18677,21873 18675,21878 18672,21882 18670,21886 18667,21889 18664,21893 18661,21897 18657,21900 18653,21903 18649,21906 18645,21909 18641,21913 18636,21915 18632,21917 18622,21921 18611,21924 18599,21926 18586,21928 18573,21928 18011,21928 17993,21927 17976,21926 17961,21923 17947,21920 17940,21917 17934,21915 17928,21911 17922,21908 17917,21905 17912,21901 17907,21897 17903,21893 17899,21889 17895,21884 17892,21879 17888,21872 17885,21867 17882,21861 17880,21854 17878,21848 17874,21833 17871,21817 17870,21800 17869,21782 17869,20992 17869,20980 17870,20969 17871,20957 17873,20947 17875,20937 17877,20927 17880,20918 17884,20910 17888,20902 17893,20894 17898,20888 17903,20882 17909,20876 17916,20871 17923,20867 17931,20862 17939,20858 17948,20855 17957,20853 17967,20851 17977,20849 17988,20848 17999,20847 18011,20847 18557,20847 18570,20847 18583,20849 18595,20851 18606,20854 18616,20857 18621,20859 18625,20862 18629,20865 18633,20868 18637,20871 18641,20874 18644,20877 18648,20881 18651,20884 18654,20888 18656,20892 18659,20896 18661,20901 18663,20905 18664,20909 18666,20913 18667,20918 18668,20923 18669,20927 18670,20932 18670,20943 18670,20954 18668,20964 18667,20969 18666,20974 18664,20979 18663,20983 18661,20987 18659,20991 18656,20995 18654,20999 18651,21004 18648,21007 18644,21011 18641,21014 18637,21017 18633,21020 18629,21023 18625,21025 18621,21028 18616,21030 18606,21033 18595,21036 18583,21039 18570,21041 18557,21041 Z"/>
    <path fill="none" stroke="rgb(255,255,255)" stroke-width="53" stroke-linejoin="miter" d="M 19648,21596 L 19647,21621 19645,21645 19641,21669 19636,21691 19629,21714 19620,21735 19610,21756 19598,21777 19585,21796 19570,21815 19554,21831 19536,21848 19517,21863 19497,21876 19475,21890 19452,21901 19428,21911 19403,21921 19376,21928 19349,21934 19320,21939 19290,21942 19259,21944 19227,21945 19189,21944 19153,21941 19118,21937 19085,21930 19054,21922 19024,21911 18996,21899 18970,21885 18952,21873 18936,21861 18919,21848 18904,21833 18890,21818 18876,21801 18864,21785 18852,21766 18841,21748 18832,21729 18824,21711 18818,21693 18813,21675 18809,21657 18807,21639 18806,21621 18807,21610 18807,21605 18808,21600 18809,21594 18811,21589 18812,21584 18814,21580 18818,21571 18824,21561 18830,21553 18837,21545 18845,21538 18853,21531 18857,21528 18862,21525 18867,21522 18871,21520 18876,21518 18881,21517 18886,21515 18892,21514 18903,21513 18914,21512 18923,21512 18933,21514 18941,21516 18945,21517 18949,21518 18953,21520 18957,21522 18964,21526 18971,21532 18978,21538 18984,21544 18991,21551 18996,21559 19002,21568 19007,21576 19013,21586 19017,21595 19022,21607 19031,21630 19041,21652 19052,21672 19057,21680 19062,21688 19068,21696 19074,21704 19080,21710 19087,21717 19095,21723 19103,21729 19112,21734 19121,21740 19131,21745 19141,21748 19153,21752 19165,21754 19178,21756 19192,21758 19206,21759 19222,21759 19243,21758 19263,21757 19282,21754 19300,21749 19317,21744 19333,21736 19347,21728 19361,21719 19373,21709 19379,21704 19384,21697 19389,21692 19393,21686 19397,21680 19401,21674 19404,21668 19406,21661 19409,21654 19411,21648 19412,21641 19413,21634 19414,21626 19414,21619 19414,21608 19412,21598 19410,21587 19407,21578 19405,21573 19403,21569 19401,21564 19398,21559 19395,21555 19393,21551 19389,21548 19386,21544 19379,21537 19371,21531 19363,21524 19354,21518 19344,21513 19334,21508 19323,21503 19312,21499 19286,21490 19256,21482 19183,21464 19129,21449 19080,21434 19035,21417 19015,21409 18995,21400 18976,21391 18959,21379 18942,21368 18926,21356 18911,21342 18897,21329 18884,21313 18872,21298 18861,21281 18852,21264 18844,21245 18837,21226 18832,21205 18829,21184 18827,21161 18826,21137 18827,21115 18829,21093 18833,21071 18838,21051 18845,21031 18853,21012 18863,20993 18874,20975 18887,20957 18901,20942 18916,20926 18933,20912 18951,20900 18970,20887 18991,20877 19013,20867 19036,20857 19060,20850 19085,20844 19111,20838 19138,20834 19166,20831 19195,20830 19225,20829 19249,20829 19271,20830 19293,20832 19315,20835 19335,20838 19355,20842 19374,20847 19392,20853 19409,20859 19426,20867 19442,20874 19457,20882 19472,20891 19486,20901 19499,20910 19511,20920 19522,20930 19533,20942 19543,20952 19552,20963 19561,20975 19568,20986 19575,20997 19581,21009 19586,21020 19591,21031 19595,21044 19598,21055 19600,21066 19602,21078 19603,21088 19603,21099 19603,21111 19601,21121 19599,21131 19596,21141 19591,21151 19586,21160 19580,21169 19573,21179 19565,21187 19561,21191 19557,21194 19553,21197 19548,21200 19544,21202 19539,21205 19534,21207 19529,21208 19524,21210 19519,21211 19514,21212 19508,21212 19497,21214 19487,21214 19477,21212 19468,21210 19460,21208 19456,21207 19453,21205 19449,21204 19446,21202 19443,21200 19440,21198 19437,21196 19434,21193 19429,21187 19423,21181 19418,21174 19413,21166 19407,21158 19402,21150 19396,21140 19391,21130 19384,21116 19376,21102 19369,21090 19361,21079 19353,21067 19344,21058 19336,21049 19327,21041 19322,21036 19317,21033 19312,21030 19306,21027 19300,21024 19294,21022 19280,21018 19265,21014 19249,21012 19231,21010 19211,21010 19192,21011 19175,21012 19158,21015 19143,21018 19128,21023 19115,21028 19103,21035 19091,21043 19081,21051 19072,21059 19068,21064 19064,21068 19061,21072 19058,21078 19055,21082 19053,21087 19051,21092 19050,21097 19049,21102 19048,21107 19047,21113 19047,21118 19047,21124 19048,21130 19049,21136 19050,21142 19052,21149 19055,21154 19058,21159 19061,21164 19065,21169 19069,21173 19074,21179 19079,21183 19084,21187 19090,21191 19096,21195 19103,21199 19117,21206 19131,21212 19145,21219 19159,21224 19176,21229 19199,21235 19260,21252 19301,21262 19341,21273 19379,21285 19416,21297 19433,21303 19450,21310 19467,21317 19482,21326 19497,21334 19511,21342 19525,21351 19538,21361 19550,21370 19562,21380 19573,21392 19584,21403 19594,21415 19603,21428 19611,21441 19619,21455 19626,21470 19632,21486 19637,21503 19641,21520 19644,21538 19646,21557 19648,21576 19648,21596 Z"/>
   </g>
  </g>
 </g>
</svg>